TiroKannada-Regular.ufo
<glyph name="dAnudatta" format="2">
  <unicode hex="0952"/>
  <outline>
    <contour>
      <point x="235" y="-323" type="line"/>
      <point x="235" y="-276" type="line"/>
      <point x="-235" y="-276" type="line"/>
      <point x="-235" y="-323" type="line"/>
    </contour>
  </outline>
</glyph>
<glyph name="kCandrabinduSpacing" format="2">
  <advance width="582"/>
  <unicode hex="0C80"/>
  <outline>
    <contour>
      <point x="291" y="-15" type="curve" smooth="yes"/>
      <point x="449" y="-15"/>
      <point x="520" y="134"/>
      <point x="520" y="260" type="curve" smooth="yes"/>
      <point x="520" y="274"/>
      <point x="519" y="289"/>
      <point x="517" y="303" type="curve"/>
      <point x="482" y="307" type="line"/>
      <point x="483" y="299"/>
      <point x="483" y="291"/>
      <point x="483" y="283" type="curve" smooth="yes"/>
      <point x="483" y="190"/>
      <point x="433" y="96"/>
      <point x="291" y="96" type="curve" smooth="yes"/>
      <point x="149" y="96"/>
      <point x="99" y="190"/>
      <point x="99" y="283" type="curve" smooth="yes"/>
      <point x="99" y="291"/>
      <point x="99" y="299"/>
      <point x="100" y="307" type="curve"/>
      <point x="65" y="303" type="line"/>
      <point x="63" y="289"/>
      <point x="62" y="274"/>
      <point x="62" y="260" type="curve" smooth="yes"/>
      <point x="62" y="134"/>
      <point x="133" y="-15"/>
    </contour>
    <contour>
      <point x="291" y="198" type="curve" smooth="yes"/>
      <point x="331" y="198"/>
      <point x="364" y="232"/>
      <point x="364" y="271" type="curve" smooth="yes"/>
      <point x="364" y="309"/>
      <point x="331" y="343"/>
      <point x="291" y="343" type="curve" smooth="yes"/>
      <point x="252" y="343"/>
      <point x="218" y="309"/>
      <point x="218" y="271" type="curve" smooth="yes"/>
      <point x="218" y="232"/>
      <point x="252" y="198"/>
    </contour>
  </outline>
</glyph>
<glyph name="kCandrabindu" format="2">
  <unicode hex="0C81"/>
  <outline>
    <contour>
      <point x="0" y="635" type="curve" smooth="yes"/>
      <point x="79" y="635"/>
      <point x="152" y="688"/>
      <point x="173" y="819" type="curve"/>
      <point x="144" y="826" type="line"/>
      <point x="124" y="756"/>
      <point x="65" y="722"/>
      <point x="0" y="722" type="curve" smooth="yes"/>
      <point x="-65" y="722"/>
      <point x="-124" y="756"/>
      <point x="-144" y="826" type="curve"/>
      <point x="-173" y="819" type="line"/>
      <point x="-152" y="688"/>
      <point x="-79" y="635"/>
    </contour>
    <contour>
      <point x="0" y="790" type="curve" smooth="yes"/>
      <point x="31" y="790"/>
      <point x="57" y="818"/>
      <point x="57" y="849" type="curve" smooth="yes"/>
      <point x="57" y="880"/>
      <point x="31" y="907"/>
      <point x="0" y="907" type="curve" smooth="yes"/>
      <point x="-31" y="907"/>
      <point x="-58" y="880"/>
      <point x="-58" y="849" type="curve" smooth="yes"/>
      <point x="-58" y="818"/>
      <point x="-31" y="790"/>
    </contour>
  </outline>
</glyph>
<glyph name="kAnusvara" format="2">
  <advance width="566"/>
  <unicode hex="0C82"/>
  <outline>
    <contour>
      <point x="285" y="-15" type="curve" smooth="yes"/>
      <point x="431" y="-15"/>
      <point x="501" y="115"/>
      <point x="501" y="248" type="curve" smooth="yes"/>
      <point x="501" y="383"/>
      <point x="429" y="523"/>
      <point x="275" y="523" type="curve" smooth="yes"/>
      <point x="125" y="523"/>
      <point x="55" y="391"/>
      <point x="55" y="261" type="curve" smooth="yes"/>
      <point x="55" y="123"/>
      <point x="134" y="-15"/>
    </contour>
    <contour>
      <point x="277" y="95" type="curve" smooth="yes"/>
      <point x="167" y="95"/>
      <point x="93" y="161"/>
      <point x="93" y="257" type="curve" smooth="yes"/>
      <point x="93" y="359"/>
      <point x="177" y="424"/>
      <point x="280" y="424" type="curve" smooth="yes"/>
      <point x="384" y="424"/>
      <point x="463" y="357"/>
      <point x="463" y="258" type="curve" smooth="yes"/>
      <point x="463" y="158"/>
      <point x="384" y="95"/>
    </contour>
  </outline>
</glyph>
<glyph name="kVisarga" format="2">
  <advance width="366"/>
  <unicode hex="0C83"/>
  <outline>
    <contour>
      <point x="181" y="291" type="curve" smooth="yes"/>
      <point x="250" y="291"/>
      <point x="301" y="349"/>
      <point x="301" y="424" type="curve" smooth="yes"/>
      <point x="301" y="500"/>
      <point x="249" y="553"/>
      <point x="183" y="553" type="curve" smooth="yes"/>
      <point x="119" y="553"/>
      <point x="60" y="504"/>
      <point x="60" y="423" type="curve" smooth="yes"/>
      <point x="60" y="346"/>
      <point x="114" y="291"/>
    </contour>
    <contour>
      <point x="181" y="-15" type="curve" smooth="yes"/>
      <point x="250" y="-15"/>
      <point x="301" y="43"/>
      <point x="301" y="118" type="curve" smooth="yes"/>
      <point x="301" y="194"/>
      <point x="249" y="247"/>
      <point x="183" y="247" type="curve" smooth="yes"/>
      <point x="119" y="247"/>
      <point x="60" y="198"/>
      <point x="60" y="117" type="curve" smooth="yes"/>
      <point x="60" y="40"/>
      <point x="114" y="-15"/>
    </contour>
    <contour>
      <point x="181" y="52" type="curve" smooth="yes"/>
      <point x="137" y="52"/>
      <point x="104" y="84"/>
      <point x="104" y="127" type="curve" smooth="yes"/>
      <point x="104" y="171"/>
      <point x="139" y="205"/>
      <point x="182" y="205" type="curve" smooth="yes"/>
      <point x="224" y="205"/>
      <point x="257" y="171"/>
      <point x="257" y="127" type="curve" smooth="yes"/>
      <point x="257" y="84"/>
      <point x="224" y="52"/>
    </contour>
    <contour>
      <point x="181" y="358" type="curve" smooth="yes"/>
      <point x="137" y="358"/>
      <point x="104" y="390"/>
      <point x="104" y="433" type="curve" smooth="yes"/>
      <point x="104" y="477"/>
      <point x="139" y="511"/>
      <point x="182" y="511" type="curve" smooth="yes"/>
      <point x="224" y="511"/>
      <point x="257" y="477"/>
      <point x="257" y="433" type="curve" smooth="yes"/>
      <point x="257" y="390"/>
      <point x="224" y="358"/>
    </contour>
  </outline>
</glyph>
<glyph name="kSiddham" format="2">
  <advance width="627"/>
  <unicode hex="0C84"/>
  <outline>
    <contour>
      <point x="298" y="-15" type="curve" smooth="yes"/>
      <point x="469" y="-15"/>
      <point x="567" y="106"/>
      <point x="567" y="265" type="curve" smooth="yes"/>
      <point x="567" y="405"/>
      <point x="491" y="548"/>
      <point x="310" y="548" type="curve" smooth="yes"/>
      <point x="161" y="548"/>
      <point x="65" y="450"/>
      <point x="65" y="330" type="curve" smooth="yes"/>
      <point x="65" y="212"/>
      <point x="157" y="133"/>
      <point x="274" y="133" type="curve" smooth="yes"/>
      <point x="378" y="133"/>
      <point x="450" y="195"/>
      <point x="450" y="277" type="curve" smooth="yes"/>
      <point x="450" y="350"/>
      <point x="394" y="404"/>
      <point x="314" y="404" type="curve" smooth="yes"/>
      <point x="248" y="404"/>
      <point x="184" y="368"/>
      <point x="184" y="304" type="curve" smooth="yes"/>
      <point x="184" y="256"/>
      <point x="221" y="233"/>
      <point x="254" y="233" type="curve" smooth="yes"/>
      <point x="294" y="233"/>
      <point x="320" y="265"/>
      <point x="320" y="298" type="curve" smooth="yes"/>
      <point x="320" y="319"/>
      <point x="310" y="339"/>
      <point x="290" y="355" type="curve"/>
      <point x="302" y="359"/>
      <point x="315" y="361"/>
      <point x="327" y="361" type="curve" smooth="yes"/>
      <point x="378" y="361"/>
      <point x="415" y="325"/>
      <point x="415" y="279" type="curve" smooth="yes"/>
      <point x="415" y="226"/>
      <point x="363" y="175"/>
      <point x="271" y="175" type="curve" smooth="yes"/>
      <point x="164" y="175"/>
      <point x="112" y="243"/>
      <point x="112" y="315" type="curve" smooth="yes"/>
      <point x="112" y="393"/>
      <point x="174" y="475"/>
      <point x="313" y="475" type="curve" smooth="yes"/>
      <point x="460" y="475"/>
      <point x="526" y="384"/>
      <point x="526" y="283" type="curve" smooth="yes"/>
      <point x="526" y="174"/>
      <point x="449" y="71"/>
      <point x="287" y="71" type="curve" smooth="yes"/>
      <point x="198" y="71"/>
      <point x="123" y="102"/>
      <point x="72" y="151" type="curve"/>
      <point x="56" y="134" type="line"/>
      <point x="97" y="49"/>
      <point x="174" y="-15"/>
    </contour>
  </outline>
</glyph>
<glyph name="kA" format="2">
  <advance width="830"/>
  <unicode hex="0C85"/>
  <outline>
    <contour>
      <point x="412" y="-15" type="curve" smooth="yes"/>
      <point x="643" y="-15"/>
      <point x="775" y="152"/>
      <point x="775" y="332" type="curve" smooth="yes"/>
      <point x="775" y="465"/>
      <point x="702" y="558"/>
      <point x="607" y="558" type="curve" smooth="yes"/>
      <point x="545" y="558"/>
      <point x="496" y="518"/>
      <point x="496" y="458" type="curve" smooth="yes"/>
      <point x="496" y="410"/>
      <point x="528" y="371"/>
      <point x="562" y="352" type="curve"/>
      <point x="562" y="324" type="line"/>
      <point x="676" y="349" type="line"/>
      <point x="608" y="349"/>
      <point x="559" y="377"/>
      <point x="559" y="422" type="curve" smooth="yes"/>
      <point x="559" y="457"/>
      <point x="590" y="476"/>
      <point x="629" y="476" type="curve" smooth="yes"/>
      <point x="689" y="476"/>
      <point x="737" y="432"/>
      <point x="737" y="348" type="curve" smooth="yes"/>
      <point x="737" y="221"/>
      <point x="630" y="96"/>
      <point x="406" y="96" type="curve" smooth="yes"/>
      <point x="203" y="96"/>
      <point x="93" y="198"/>
      <point x="93" y="328" type="curve" smooth="yes"/>
      <point x="93" y="409"/>
      <point x="139" y="471"/>
      <point x="208" y="471" type="curve" smooth="yes"/>
      <point x="262" y="471"/>
      <point x="294" y="437"/>
      <point x="294" y="400" type="curve" smooth="yes"/>
      <point x="294" y="366"/>
      <point x="267" y="342"/>
      <point x="221" y="342" type="curve" smooth="yes"/>
      <point x="168" y="342"/>
      <point x="126" y="373"/>
      <point x="120" y="450" type="curve"/>
      <point x="79" y="388" type="line"/>
      <point x="105" y="388" type="line"/>
      <point x="116" y="306"/>
      <point x="169" y="268"/>
      <point x="222" y="268" type="curve" smooth="yes"/>
      <point x="281" y="268"/>
      <point x="330" y="314"/>
      <point x="330" y="401" type="curve" smooth="yes"/>
      <point x="330" y="481"/>
      <point x="288" y="558"/>
      <point x="207" y="558" type="curve" smooth="yes"/>
      <point x="112" y="558"/>
      <point x="55" y="451"/>
      <point x="55" y="342" type="curve" smooth="yes"/>
      <point x="55" y="202"/>
      <point x="149" y="-15"/>
    </contour>
    <contour>
      <point x="680" y="271" type="line"/>
      <point x="676" y="349" type="line"/>
      <point x="388" y="349" type="line"/>
      <point x="392" y="271" type="line"/>
    </contour>
  </outline>
</glyph>
<glyph name="kAa" format="2">
  <advance width="826"/>
  <unicode hex="0C86"/>
  <outline>
    <contour>
      <point x="407" y="-15" type="curve" smooth="yes"/>
      <point x="582" y="-15"/>
      <point x="705" y="85"/>
      <point x="705" y="202" type="curve" smooth="yes"/>
      <point x="705" y="244"/>
      <point x="688" y="278"/>
      <point x="672" y="305" type="curve"/>
      <point x="643" y="299" type="line"/>
      <point x="650" y="284"/>
      <point x="660" y="260"/>
      <point x="660" y="240" type="curve" smooth="yes"/>
      <point x="660" y="170"/>
      <point x="573" y="96"/>
      <point x="402" y="96" type="curve" smooth="yes"/>
      <point x="203" y="96"/>
      <point x="93" y="198"/>
      <point x="93" y="328" type="curve" smooth="yes"/>
      <point x="93" y="409"/>
      <point x="139" y="471"/>
      <point x="208" y="471" type="curve" smooth="yes"/>
      <point x="262" y="471"/>
      <point x="294" y="437"/>
      <point x="294" y="400" type="curve" smooth="yes"/>
      <point x="294" y="366"/>
      <point x="267" y="342"/>
      <point x="221" y="342" type="curve" smooth="yes"/>
      <point x="168" y="342"/>
      <point x="126" y="373"/>
      <point x="120" y="450" type="curve"/>
      <point x="79" y="388" type="line"/>
      <point x="105" y="388" type="line"/>
      <point x="116" y="306"/>
      <point x="169" y="268"/>
      <point x="222" y="268" type="curve" smooth="yes"/>
      <point x="281" y="268"/>
      <point x="330" y="314"/>
      <point x="330" y="401" type="curve" smooth="yes"/>
      <point x="330" y="481"/>
      <point x="288" y="558"/>
      <point x="207" y="558" type="curve" smooth="yes"/>
      <point x="112" y="558"/>
      <point x="55" y="451"/>
      <point x="55" y="342" type="curve" smooth="yes"/>
      <point x="55" y="202"/>
      <point x="148" y="-15"/>
    </contour>
    <contour>
      <point x="597" y="276" type="line" smooth="yes"/>
      <point x="704" y="276"/>
      <point x="786" y="319"/>
      <point x="786" y="419" type="curve" smooth="yes"/>
      <point x="786" y="493"/>
      <point x="737" y="558"/>
      <point x="666" y="558" type="curve" smooth="yes"/>
      <point x="611" y="558"/>
      <point x="568" y="519"/>
      <point x="568" y="458" type="curve" smooth="yes"/>
      <point x="568" y="415"/>
      <point x="586" y="379"/>
      <point x="619" y="334" type="curve"/>
      <point x="652" y="334" type="line"/>
      <point x="624" y="373"/>
      <point x="614" y="397"/>
      <point x="614" y="421" type="curve" smooth="yes"/>
      <point x="614" y="461"/>
      <point x="646" y="487"/>
      <point x="687" y="487" type="curve" smooth="yes"/>
      <point x="733" y="487"/>
      <point x="751" y="456"/>
      <point x="751" y="431" type="curve" smooth="yes"/>
      <point x="751" y="384"/>
      <point x="692" y="354"/>
      <point x="599" y="354" type="curve" smooth="yes"/>
      <point x="388" y="354" type="line"/>
      <point x="392" y="276" type="line"/>
    </contour>
  </outline>
</glyph>
<glyph name="kI" format="2">
  <advance width="784"/>
  <unicode hex="0C87"/>
  <outline>
    <contour>
      <point x="675" y="-119" type="line"/>
      <point x="720" y="-81"/>
      <point x="744" y="-36"/>
      <point x="744" y="16" type="curve" smooth="yes"/>
      <point x="744" y="124"/>
      <point x="638" y="246"/>
      <point x="448" y="246" type="curve" smooth="yes"/>
      <point x="309" y="246"/>
      <point x="257" y="183"/>
      <point x="257" y="118" type="curve" smooth="yes"/>
      <point x="257" y="49"/>
      <point x="317" y="-15"/>
      <point x="415" y="-15" type="curve" smooth="yes"/>
      <point x="577" y="-15"/>
      <point x="705" y="165"/>
      <point x="705" y="346" type="curve" smooth="yes"/>
      <point x="705" y="457"/>
      <point x="653" y="558"/>
      <point x="540" y="558" type="curve" smooth="yes"/>
      <point x="445" y="558"/>
      <point x="388" y="488"/>
      <point x="368" y="389" type="curve"/>
      <point x="378" y="299" type="line"/>
      <point x="390" y="386"/>
      <point x="446" y="460"/>
      <point x="543" y="460" type="curve" smooth="yes"/>
      <point x="629" y="460"/>
      <point x="667" y="402"/>
      <point x="667" y="332" type="curve" smooth="yes"/>
      <point x="667" y="207"/>
      <point x="554" y="87"/>
      <point x="412" y="87" type="curve" smooth="yes"/>
      <point x="344" y="87"/>
      <point x="311" y="114"/>
      <point x="311" y="144" type="curve" smooth="yes"/>
      <point x="311" y="178"/>
      <point x="354" y="212"/>
      <point x="447" y="212" type="curve" smooth="yes"/>
      <point x="583" y="212"/>
      <point x="690" y="140"/>
      <point x="690" y="57" type="curve" smooth="yes"/>
      <point x="690" y="12"/>
      <point x="661" y="-27"/>
      <point x="612" y="-69" type="curve"/>
    </contour>
    <contour>
      <point x="123" y="235" type="line"/>
      <point x="103" y="265"/>
      <point x="92" y="302"/>
      <point x="92" y="335" type="curve" smooth="yes"/>
      <point x="92" y="411"/>
      <point x="149" y="460"/>
      <point x="218" y="460" type="curve" smooth="yes"/>
      <point x="294" y="460"/>
      <point x="343" y="401"/>
      <point x="362" y="299" type="curve"/>
      <point x="378" y="299" type="line"/>
      <point x="388" y="407" type="line"/>
      <point x="368" y="407" type="line"/>
      <point x="339" y="506"/>
      <point x="281" y="558"/>
      <point x="202" y="558" type="curve" smooth="yes"/>
      <point x="101" y="558"/>
      <point x="45" y="472"/>
      <point x="45" y="375" type="curve" smooth="yes"/>
      <point x="45" y="322"/>
      <point x="62" y="265"/>
      <point x="94" y="218" type="curve"/>
    </contour>
  </outline>
</glyph>
<glyph name="kIi" format="2">
  <advance width="970"/>
  <unicode hex="0C88"/>
  <outline>
    <contour>
      <point x="815" y="43" type="line"/>
      <point x="855" y="79"/>
      <point x="870" y="112"/>
      <point x="870" y="144" type="curve" smooth="yes"/>
      <point x="870" y="233"/>
      <point x="749" y="311"/>
      <point x="749" y="385" type="curve" smooth="yes"/>
      <point x="749" y="423"/>
      <point x="781" y="451"/>
      <point x="824" y="451" type="curve" smooth="yes"/>
      <point x="872" y="451"/>
      <point x="885" y="416"/>
      <point x="885" y="396" type="curve" smooth="yes"/>
      <point x="885" y="357"/>
      <point x="834" y="323"/>
      <point x="730" y="323" type="curve" smooth="yes"/>
      <point x="40" y="323" type="line"/>
      <point x="44" y="245" type="line"/>
      <point x="734" y="245" type="line" smooth="yes"/>
      <point x="855" y="245"/>
      <point x="920" y="298"/>
      <point x="920" y="382" type="curve" smooth="yes"/>
      <point x="920" y="452"/>
      <point x="873" y="515"/>
      <point x="802" y="515" type="curve" smooth="yes"/>
      <point x="746" y="515"/>
      <point x="703" y="475"/>
      <point x="703" y="416" type="curve" smooth="yes"/>
      <point x="703" y="321"/>
      <point x="810" y="263"/>
      <point x="810" y="189" type="curve" smooth="yes"/>
      <point x="810" y="160"/>
      <point x="795" y="129"/>
      <point x="752" y="93" type="curve"/>
    </contour>
    <contour>
      <point x="408" y="-15" type="curve" smooth="yes"/>
      <point x="545" y="-15"/>
      <point x="649" y="91"/>
      <point x="649" y="248" type="curve" smooth="yes"/>
      <point x="649" y="346"/>
      <point x="587" y="494"/>
      <point x="407" y="494" type="curve" smooth="yes"/>
      <point x="257" y="494"/>
      <point x="165" y="374"/>
      <point x="165" y="248" type="curve" smooth="yes"/>
      <point x="165" y="65"/>
      <point x="298" y="-15"/>
    </contour>
    <contour>
      <point x="408" y="94" type="curve" smooth="yes"/>
      <point x="302" y="94"/>
      <point x="216" y="159"/>
      <point x="216" y="279" type="curve" smooth="yes"/>
      <point x="216" y="382"/>
      <point x="309" y="463"/>
      <point x="407" y="463" type="curve" smooth="yes"/>
      <point x="525" y="463"/>
      <point x="599" y="368"/>
      <point x="599" y="279" type="curve" smooth="yes"/>
      <point x="599" y="163"/>
      <point x="508" y="94"/>
    </contour>
    <contour>
      <point x="296" y="460" type="line"/>
      <point x="407" y="482" type="line"/>
      <point x="504" y="460" type="line"/>
      <point x="650" y="468"/>
      <point x="671" y="548"/>
      <point x="671" y="602" type="curve" smooth="yes"/>
      <point x="671" y="665"/>
      <point x="641" y="713"/>
      <point x="594" y="747" type="curve"/>
      <point x="573" y="727" type="line"/>
      <point x="603" y="702"/>
      <point x="622" y="666"/>
      <point x="622" y="631" type="curve" smooth="yes"/>
      <point x="622" y="588"/>
      <point x="594" y="548"/>
      <point x="498" y="548" type="curve" smooth="yes"/>
      <point x="143" y="548" type="line"/>
      <point x="148" y="460" type="line"/>
    </contour>
  </outline>
</glyph>
<glyph name="kU" format="2">
  <advance width="1071"/>
  <unicode hex="0C89"/>
  <outline>
    <contour>
      <point x="294" y="-15" type="curve" smooth="yes"/>
      <point x="405" y="-15"/>
      <point x="472" y="71"/>
      <point x="472" y="172" type="curve" smooth="yes"/>
      <point x="472" y="225"/>
      <point x="456" y="302"/>
      <point x="456" y="347" type="curve" smooth="yes"/>
      <point x="456" y="415"/>
      <point x="495" y="458"/>
      <point x="564" y="458" type="curve" smooth="yes"/>
      <point x="633" y="458"/>
      <point x="672" y="415"/>
      <point x="672" y="314" type="curve" smooth="yes"/>
      <point x="672" y="282"/>
      <point x="668" y="261"/>
      <point x="668" y="223" type="curve" smooth="yes"/>
      <point x="668" y="63"/>
      <point x="739" y="-15"/>
      <point x="835" y="-15" type="curve" smooth="yes"/>
      <point x="946" y="-15"/>
      <point x="1006" y="94"/>
      <point x="1006" y="209" type="curve" smooth="yes"/>
      <point x="1006" y="390"/>
      <point x="857" y="533"/>
      <point x="811" y="533" type="curve" smooth="yes"/>
      <point x="798" y="533"/>
      <point x="788" y="521"/>
      <point x="788" y="503" type="curve" smooth="yes"/>
      <point x="788" y="486"/>
      <point x="797" y="471"/>
      <point x="806" y="464" type="curve"/>
      <point x="921" y="421"/>
      <point x="959" y="323"/>
      <point x="959" y="247" type="curve" smooth="yes"/>
      <point x="959" y="162"/>
      <point x="912" y="96"/>
      <point x="827" y="96" type="curve" smooth="yes"/>
      <point x="740" y="96"/>
      <point x="706" y="162"/>
      <point x="706" y="242" type="curve" smooth="yes"/>
      <point x="706" y="268"/>
      <point x="710" y="292"/>
      <point x="710" y="331" type="curve" smooth="yes"/>
      <point x="710" y="489"/>
      <point x="644" y="553"/>
      <point x="559" y="553" type="curve" smooth="yes"/>
      <point x="474" y="553"/>
      <point x="413" y="488"/>
      <point x="413" y="387" type="curve" smooth="yes"/>
      <point x="413" y="332"/>
      <point x="429" y="276"/>
      <point x="429" y="236" type="curve" smooth="yes"/>
      <point x="429" y="156"/>
      <point x="368" y="96"/>
      <point x="278" y="96" type="curve" smooth="yes"/>
      <point x="168" y="96"/>
      <point x="103" y="190"/>
      <point x="103" y="300" type="curve" smooth="yes"/>
      <point x="103" y="378"/>
      <point x="135" y="471"/>
      <point x="222" y="471" type="curve" smooth="yes"/>
      <point x="275" y="471"/>
      <point x="306" y="437"/>
      <point x="306" y="400" type="curve" smooth="yes"/>
      <point x="306" y="366"/>
      <point x="279" y="342"/>
      <point x="234" y="342" type="curve" smooth="yes"/>
      <point x="182" y="342"/>
      <point x="141" y="373"/>
      <point x="135" y="450" type="curve"/>
      <point x="90" y="388" type="line"/>
      <point x="120" y="388" type="line"/>
      <point x="131" y="306"/>
      <point x="183" y="268"/>
      <point x="235" y="268" type="curve" smooth="yes"/>
      <point x="293" y="268"/>
      <point x="341" y="314"/>
      <point x="341" y="401" type="curve" smooth="yes"/>
      <point x="341" y="481"/>
      <point x="299" y="558"/>
      <point x="218" y="558" type="curve" smooth="yes"/>
      <point x="122" y="558"/>
      <point x="65" y="436"/>
      <point x="65" y="311" type="curve" smooth="yes"/>
      <point x="65" y="177"/>
      <point x="130" y="-15"/>
    </contour>
  </outline>
</glyph>
<glyph name="kUu" format="2">
  <advance width="1486"/>
  <unicode hex="0C8A"/>
  <outline>
    <contour>
      <point x="294" y="-15" type="curve" smooth="yes"/>
      <point x="405" y="-15"/>
      <point x="472" y="71"/>
      <point x="472" y="173" type="curve" smooth="yes"/>
      <point x="472" y="223"/>
      <point x="456" y="303"/>
      <point x="456" y="347" type="curve" smooth="yes"/>
      <point x="456" y="415"/>
      <point x="495" y="458"/>
      <point x="563" y="458" type="curve" smooth="yes"/>
      <point x="632" y="458"/>
      <point x="670" y="415"/>
      <point x="670" y="314" type="curve" smooth="yes"/>
      <point x="670" y="282"/>
      <point x="666" y="261"/>
      <point x="666" y="223" type="curve" smooth="yes"/>
      <point x="666" y="62"/>
      <point x="735" y="-15"/>
      <point x="825" y="-15" type="curve" smooth="yes"/>
      <point x="893" y="-15"/>
      <point x="955" y="30"/>
      <point x="955" y="126" type="curve" smooth="yes"/>
      <point x="955" y="177"/>
      <point x="936" y="235"/>
      <point x="936" y="286" type="curve" smooth="yes"/>
      <point x="936" y="398"/>
      <point x="1031" y="465"/>
      <point x="1147" y="465" type="curve" smooth="yes"/>
      <point x="1295" y="465"/>
      <point x="1380" y="356"/>
      <point x="1380" y="242" type="curve" smooth="yes"/>
      <point x="1380" y="143"/>
      <point x="1317" y="61"/>
      <point x="1202" y="61" type="curve" smooth="yes"/>
      <point x="1109" y="61"/>
      <point x="1065" y="115"/>
      <point x="1065" y="180" type="curve" smooth="yes"/>
      <point x="1065" y="235"/>
      <point x="1097" y="286"/>
      <point x="1154" y="286" type="curve" smooth="yes"/>
      <point x="1159" y="286"/>
      <point x="1162" y="286"/>
      <point x="1169" y="285" type="curve"/>
      <point x="1149" y="269"/>
      <point x="1140" y="248"/>
      <point x="1140" y="227" type="curve" smooth="yes"/>
      <point x="1140" y="194"/>
      <point x="1163" y="163"/>
      <point x="1203" y="163" type="curve" smooth="yes"/>
      <point x="1237" y="163"/>
      <point x="1273" y="187"/>
      <point x="1273" y="239" type="curve" smooth="yes"/>
      <point x="1273" y="290"/>
      <point x="1238" y="328"/>
      <point x="1176" y="328" type="curve" smooth="yes"/>
      <point x="1098" y="328"/>
      <point x="1032" y="268"/>
      <point x="1032" y="168" type="curve" smooth="yes"/>
      <point x="1032" y="63"/>
      <point x="1104" y="-15"/>
      <point x="1207" y="-15" type="curve" smooth="yes"/>
      <point x="1341" y="-15"/>
      <point x="1419" y="118"/>
      <point x="1419" y="254" type="curve" smooth="yes"/>
      <point x="1419" y="420"/>
      <point x="1303" y="558"/>
      <point x="1130" y="558" type="curve" smooth="yes"/>
      <point x="991" y="558"/>
      <point x="890" y="468"/>
      <point x="890" y="351" type="curve" smooth="yes"/>
      <point x="890" y="297"/>
      <point x="912" y="233"/>
      <point x="912" y="189" type="curve" smooth="yes"/>
      <point x="912" y="135"/>
      <point x="881" y="94"/>
      <point x="819" y="94" type="curve" smooth="yes"/>
      <point x="738" y="94"/>
      <point x="704" y="162"/>
      <point x="704" y="242" type="curve" smooth="yes"/>
      <point x="704" y="268"/>
      <point x="708" y="292"/>
      <point x="708" y="331" type="curve" smooth="yes"/>
      <point x="708" y="489"/>
      <point x="642" y="553"/>
      <point x="558" y="553" type="curve" smooth="yes"/>
      <point x="474" y="553"/>
      <point x="413" y="488"/>
      <point x="413" y="386" type="curve" smooth="yes"/>
      <point x="413" y="333"/>
      <point x="429" y="276"/>
      <point x="429" y="236" type="curve" smooth="yes"/>
      <point x="429" y="156"/>
      <point x="367" y="96"/>
      <point x="278" y="96" type="curve" smooth="yes"/>
      <point x="168" y="96"/>
      <point x="103" y="190"/>
      <point x="103" y="300" type="curve" smooth="yes"/>
      <point x="103" y="378"/>
      <point x="135" y="471"/>
      <point x="222" y="471" type="curve" smooth="yes"/>
      <point x="275" y="471"/>
      <point x="306" y="437"/>
      <point x="306" y="400" type="curve" smooth="yes"/>
      <point x="306" y="366"/>
      <point x="279" y="342"/>
      <point x="234" y="342" type="curve" smooth="yes"/>
      <point x="182" y="342"/>
      <point x="141" y="373"/>
      <point x="135" y="450" type="curve"/>
      <point x="90" y="388" type="line"/>
      <point x="120" y="388" type="line"/>
      <point x="131" y="306"/>
      <point x="183" y="268"/>
      <point x="235" y="268" type="curve" smooth="yes"/>
      <point x="293" y="268"/>
      <point x="341" y="314"/>
      <point x="341" y="400" type="curve" smooth="yes"/>
      <point x="341" y="480"/>
      <point x="300" y="558"/>
      <point x="220" y="558" type="curve" smooth="yes"/>
      <point x="121" y="558"/>
      <point x="65" y="436"/>
      <point x="65" y="311" type="curve" smooth="yes"/>
      <point x="65" y="177"/>
      <point x="130" y="-15"/>
    </contour>
  </outline>
</glyph>
<glyph name="kVocalicR" format="2">
  <advance width="1258"/>
  <unicode hex="0C8B"/>
  <outline>
    <contour>
      <point x="245" y="-15" type="curve" smooth="yes"/>
      <point x="397" y="-15"/>
      <point x="502" y="93"/>
      <point x="502" y="260" type="curve" smooth="yes"/>
      <point x="502" y="461"/>
      <point x="358" y="558"/>
      <point x="231" y="558" type="curve" smooth="yes"/>
      <point x="139" y="558"/>
      <point x="55" y="508"/>
      <point x="55" y="423" type="curve" smooth="yes"/>
      <point x="55" y="364"/>
      <point x="98" y="319"/>
      <point x="159" y="319" type="curve" smooth="yes"/>
      <point x="222" y="319"/>
      <point x="260" y="366"/>
      <point x="260" y="416" type="curve" smooth="yes"/>
      <point x="260" y="458"/>
      <point x="233" y="498"/>
      <point x="183" y="510" type="curve"/>
      <point x="176" y="541" type="line"/>
      <point x="119" y="498" type="line"/>
      <point x="182" y="491"/>
      <point x="207" y="453"/>
      <point x="207" y="420" type="curve" smooth="yes"/>
      <point x="207" y="382"/>
      <point x="178" y="362"/>
      <point x="149" y="362" type="curve" smooth="yes"/>
      <point x="121" y="362"/>
      <point x="93" y="381"/>
      <point x="93" y="420" type="curve" smooth="yes"/>
      <point x="93" y="481"/>
      <point x="159" y="519"/>
      <point x="221" y="519" type="curve" smooth="yes"/>
      <point x="303" y="519"/>
      <point x="397" y="454"/>
      <point x="397" y="268" type="curve" smooth="yes"/>
      <point x="397" y="88"/>
      <point x="310" y="26"/>
      <point x="230" y="26" type="curve" smooth="yes"/>
      <point x="173" y="26"/>
      <point x="103" y="63"/>
      <point x="103" y="122" type="curve" smooth="yes"/>
      <point x="103" y="160"/>
      <point x="135" y="179"/>
      <point x="166" y="179" type="curve" smooth="yes"/>
      <point x="204" y="179"/>
      <point x="224" y="150"/>
      <point x="224" y="121" type="curve" smooth="yes"/>
      <point x="224" y="83"/>
      <point x="189" y="42"/>
      <point x="122" y="45" type="curve"/>
      <point x="197" y="6" type="line"/>
      <point x="205" y="31" type="line"/>
      <point x="257" y="47"/>
      <point x="277" y="90"/>
      <point x="277" y="125" type="curve" smooth="yes"/>
      <point x="277" y="174"/>
      <point x="237" y="226"/>
      <point x="171" y="226" type="curve" smooth="yes"/>
      <point x="119" y="226"/>
      <point x="63" y="193"/>
      <point x="63" y="124" type="curve" smooth="yes"/>
      <point x="63" y="38"/>
      <point x="149" y="-15"/>
    </contour>
    <contour>
      <point x="698" y="-15" type="curve" smooth="yes"/>
      <point x="816" y="-15"/>
      <point x="853" y="100"/>
      <point x="853" y="176" type="curve" smooth="yes"/>
      <point x="853" y="193"/>
      <point x="852" y="210"/>
      <point x="850" y="226" type="curve" smooth="yes"/>
      <point x="839" y="330"/>
      <point x="793" y="406"/>
      <point x="727" y="462" type="curve"/>
      <point x="727" y="483" type="line"/>
      <point x="599" y="460" type="line"/>
      <point x="723" y="460"/>
      <point x="803" y="348"/>
      <point x="803" y="232" type="curve" smooth="yes"/>
      <point x="803" y="157"/>
      <point x="764" y="96"/>
      <point x="680" y="96" type="curve" smooth="yes"/>
      <point x="600" y="96"/>
      <point x="534" y="147"/>
      <point x="496" y="260" type="curve"/>
      <point x="473" y="179" type="line"/>
      <point x="498" y="179" type="line"/>
      <point x="527" y="62"/>
      <point x="614" y="-15"/>
    </contour>
    <contour>
      <point x="599" y="460" type="line"/>
      <point x="644" y="464" type="line"/>
      <point x="675" y="460" type="line"/>
      <point x="849" y="460"/>
      <point x="867" y="550"/>
      <point x="867" y="602" type="curve" smooth="yes"/>
      <point x="867" y="665"/>
      <point x="837" y="713"/>
      <point x="790" y="747" type="curve"/>
      <point x="769" y="727" type="line"/>
      <point x="799" y="702"/>
      <point x="818" y="666"/>
      <point x="818" y="631" type="curve" smooth="yes"/>
      <point x="818" y="587"/>
      <point x="789" y="548"/>
      <point x="693" y="548" type="curve" smooth="yes"/>
      <point x="521" y="548" type="line"/>
      <point x="526" y="460" type="line"/>
    </contour>
    <contour>
      <point x="1042" y="-15" type="curve" smooth="yes"/>
      <point x="1145" y="-15"/>
      <point x="1193" y="83"/>
      <point x="1193" y="186" type="curve" smooth="yes"/>
      <point x="1193" y="384"/>
      <point x="1018" y="533"/>
      <point x="968" y="533" type="curve" smooth="yes"/>
      <point x="954" y="533"/>
      <point x="945" y="521"/>
      <point x="945" y="504" type="curve" smooth="yes"/>
      <point x="945" y="489"/>
      <point x="952" y="472"/>
      <point x="963" y="464" type="curve"/>
      <point x="1092" y="419"/>
      <point x="1143" y="318"/>
      <point x="1143" y="232" type="curve" smooth="yes"/>
      <point x="1143" y="158"/>
      <point x="1103" y="96"/>
      <point x="1023" y="96" type="curve" smooth="yes"/>
      <point x="949" y="96"/>
      <point x="889" y="147"/>
      <point x="850" y="226" type="curve"/>
      <point x="823" y="146" type="line"/>
      <point x="855" y="146" type="line"/>
      <point x="902" y="39"/>
      <point x="966" y="-15"/>
    </contour>
  </outline>
</glyph>
<glyph name="kVocalicL" format="2">
  <advance width="799"/>
  <unicode hex="0C8C"/>
  <outline>
    <contour>
      <point x="611" y="-15" type="curve" smooth="yes"/>
      <point x="676" y="-15"/>
      <point x="751" y="27"/>
      <point x="764" y="173" type="curve"/>
      <point x="738" y="177" type="line"/>
      <point x="718" y="89"/>
      <point x="658" y="72"/>
      <point x="612" y="72" type="curve" smooth="yes"/>
      <point x="548" y="72"/>
      <point x="531" y="105"/>
      <point x="531" y="131" type="curve" smooth="yes"/>
      <point x="531" y="212"/>
      <point x="692" y="252"/>
      <point x="692" y="385" type="curve" smooth="yes"/>
      <point x="692" y="455"/>
      <point x="647" y="558"/>
      <point x="530" y="558" type="curve" smooth="yes"/>
      <point x="441" y="558"/>
      <point x="389" y="498"/>
      <point x="366" y="407" type="curve"/>
      <point x="346" y="407" type="line"/>
      <point x="356" y="299" type="line"/>
      <point x="372" y="299" type="line"/>
      <point x="385" y="387"/>
      <point x="435" y="460"/>
      <point x="533" y="460" type="curve" smooth="yes"/>
      <point x="613" y="460"/>
      <point x="646" y="410"/>
      <point x="646" y="363" type="curve" smooth="yes"/>
      <point x="646" y="258"/>
      <point x="478" y="227"/>
      <point x="478" y="111" type="curve" smooth="yes"/>
      <point x="478" y="42"/>
      <point x="536" y="-15"/>
    </contour>
    <contour>
      <point x="123" y="235" type="line"/>
      <point x="103" y="265"/>
      <point x="92" y="302"/>
      <point x="92" y="335" type="curve" smooth="yes"/>
      <point x="92" y="411"/>
      <point x="148" y="460"/>
      <point x="215" y="460" type="curve" smooth="yes"/>
      <point x="290" y="460"/>
      <point x="337" y="401"/>
      <point x="356" y="299" type="curve"/>
      <point x="368" y="383" type="line"/>
      <point x="343" y="499"/>
      <point x="281" y="558"/>
      <point x="199" y="558" type="curve" smooth="yes"/>
      <point x="100" y="558"/>
      <point x="43" y="473"/>
      <point x="43" y="377" type="curve" smooth="yes"/>
      <point x="43" y="322"/>
      <point x="62" y="265"/>
      <point x="94" y="218" type="curve"/>
    </contour>
  </outline>
</glyph>
<glyph name="kEe" format="2">
  <advance width="816"/>
  <unicode hex="0C8F"/>
  <outline>
    <contour>
      <point x="584" y="-15" type="curve" smooth="yes"/>
      <point x="686" y="-15"/>
      <point x="746" y="78"/>
      <point x="746" y="195" type="curve" smooth="yes"/>
      <point x="746" y="353"/>
      <point x="637" y="519"/>
      <point x="408" y="579" type="curve"/>
      <point x="383" y="550"/>
      <point x="345" y="533"/>
      <point x="299" y="533" type="curve" smooth="yes"/>
      <point x="233" y="533"/>
      <point x="192" y="569"/>
      <point x="192" y="618" type="curve" smooth="yes"/>
      <point x="192" y="645"/>
      <point x="204" y="675"/>
      <point x="229" y="705" type="curve"/>
      <point x="204" y="721" type="line"/>
      <point x="164" y="684"/>
      <point x="143" y="633"/>
      <point x="143" y="585" type="curve" smooth="yes"/>
      <point x="143" y="512"/>
      <point x="193" y="445"/>
      <point x="277" y="445" type="curve" smooth="yes"/>
      <point x="332" y="445"/>
      <point x="378" y="473"/>
      <point x="409" y="529" type="curve"/>
      <point x="612" y="481"/>
      <point x="700" y="336"/>
      <point x="700" y="234" type="curve" smooth="yes"/>
      <point x="700" y="156"/>
      <point x="653" y="96"/>
      <point x="571" y="96" type="curve" smooth="yes"/>
      <point x="482" y="96"/>
      <point x="431" y="168"/>
      <point x="420" y="254" type="curve"/>
      <point x="410" y="169" type="line"/>
      <point x="427" y="47"/>
      <point x="501" y="-15"/>
    </contour>
    <contour>
      <point x="227" y="-15" type="curve" smooth="yes"/>
      <point x="317" y="-15"/>
      <point x="386" y="49"/>
      <point x="410" y="146" type="curve"/>
      <point x="430" y="146" type="line"/>
      <point x="420" y="254" type="line"/>
      <point x="404" y="254" type="line"/>
      <point x="388" y="147"/>
      <point x="322" y="94"/>
      <point x="224" y="94" type="curve" smooth="yes"/>
      <point x="129" y="94"/>
      <point x="92" y="143"/>
      <point x="92" y="190" type="curve" smooth="yes"/>
      <point x="92" y="237"/>
      <point x="126" y="281"/>
      <point x="178" y="281" type="curve" smooth="yes"/>
      <point x="219" y="281"/>
      <point x="247" y="254"/>
      <point x="247" y="222" type="curve" smooth="yes"/>
      <point x="247" y="206"/>
      <point x="240" y="188"/>
      <point x="226" y="173" type="curve"/>
      <point x="246" y="158" type="line"/>
      <point x="285" y="187"/>
      <point x="309" y="225"/>
      <point x="309" y="265" type="curve" smooth="yes"/>
      <point x="309" y="324"/>
      <point x="258" y="363"/>
      <point x="197" y="363" type="curve" smooth="yes"/>
      <point x="109" y="363"/>
      <point x="55" y="281"/>
      <point x="55" y="189" type="curve" smooth="yes"/>
      <point x="55" y="98"/>
      <point x="107" y="-15"/>
    </contour>
  </outline>
</glyph>
<glyph name="kAi" format="2">
  <advance width="825"/>
  <unicode hex="0C90"/>
  <outline>
    <contour>
      <point x="592" y="-15" type="curve" smooth="yes"/>
      <point x="703" y="-15"/>
      <point x="756" y="113"/>
      <point x="756" y="249" type="curve" smooth="yes"/>
      <point x="756" y="397"/>
      <point x="692" y="558"/>
      <point x="566" y="558" type="curve" smooth="yes"/>
      <point x="488" y="558"/>
      <point x="436" y="497"/>
      <point x="414" y="419" type="curve"/>
      <point x="410" y="419" type="line"/>
      <point x="382" y="513"/>
      <point x="318" y="558"/>
      <point x="247" y="558" type="curve" smooth="yes"/>
      <point x="159" y="558"/>
      <point x="82" y="490"/>
      <point x="75" y="374" type="curve"/>
      <point x="103" y="370" type="line"/>
      <point x="128" y="429"/>
      <point x="190" y="460"/>
      <point x="251" y="460" type="curve" smooth="yes"/>
      <point x="328" y="460"/>
      <point x="386" y="412"/>
      <point x="407" y="335" type="curve"/>
      <point x="423" y="335" type="line"/>
      <point x="444" y="408"/>
      <point x="501" y="460"/>
      <point x="572" y="460" type="curve" smooth="yes"/>
      <point x="669" y="460"/>
      <point x="718" y="364"/>
      <point x="718" y="273" type="curve" smooth="yes"/>
      <point x="718" y="182"/>
      <point x="670" y="96"/>
      <point x="576" y="96" type="curve" smooth="yes"/>
      <point x="494" y="96"/>
      <point x="445" y="162"/>
      <point x="430" y="238" type="curve"/>
      <point x="418" y="163" type="line"/>
      <point x="443" y="46"/>
      <point x="516" y="-15"/>
    </contour>
    <contour>
      <point x="237" y="-15" type="curve" smooth="yes"/>
      <point x="327" y="-15"/>
      <point x="390" y="49"/>
      <point x="420" y="140" type="curve"/>
      <point x="440" y="140" type="line"/>
      <point x="430" y="238" type="line"/>
      <point x="414" y="238" type="line"/>
      <point x="397" y="144"/>
      <point x="331" y="94"/>
      <point x="233" y="94" type="curve" smooth="yes"/>
      <point x="139" y="94"/>
      <point x="102" y="141"/>
      <point x="102" y="187" type="curve" smooth="yes"/>
      <point x="102" y="231"/>
      <point x="136" y="273"/>
      <point x="187" y="273" type="curve" smooth="yes"/>
      <point x="227" y="273"/>
      <point x="255" y="247"/>
      <point x="255" y="216" type="curve" smooth="yes"/>
      <point x="255" y="201"/>
      <point x="248" y="183"/>
      <point x="234" y="169" type="curve"/>
      <point x="254" y="154" type="line"/>
      <point x="293" y="182"/>
      <point x="316" y="218"/>
      <point x="316" y="257" type="curve" smooth="yes"/>
      <point x="316" y="314"/>
      <point x="266" y="351"/>
      <point x="206" y="351" type="curve" smooth="yes"/>
      <point x="119" y="351"/>
      <point x="65" y="273"/>
      <point x="65" y="184" type="curve" smooth="yes"/>
      <point x="65" y="96"/>
      <point x="117" y="-15"/>
    </contour>
  </outline>
</glyph>
<glyph name="kO" format="2">
  <advance width="790"/>
  <unicode hex="0C92"/>
  <outline>
    <contour>
      <point x="231" y="-15" type="curve" smooth="yes"/>
      <point x="311" y="-15"/>
      <point x="379" y="39"/>
      <point x="405" y="136" type="curve"/>
      <point x="425" y="136" type="line"/>
      <point x="415" y="244" type="line"/>
      <point x="399" y="244" type="line"/>
      <point x="383" y="145"/>
      <point x="322" y="96"/>
      <point x="238" y="96" type="curve" smooth="yes"/>
      <point x="163" y="96"/>
      <point x="135" y="136"/>
      <point x="135" y="178" type="curve" smooth="yes"/>
      <point x="135" y="278"/>
      <point x="300" y="307"/>
      <point x="300" y="430" type="curve" smooth="yes"/>
      <point x="300" y="502"/>
      <point x="253" y="558"/>
      <point x="174" y="558" type="curve" smooth="yes"/>
      <point x="104" y="558"/>
      <point x="38" y="513"/>
      <point x="38" y="444" type="curve"/>
      <point x="38" y="414"/>
      <point x="49" y="378"/>
      <point x="73" y="340" type="curve"/>
      <point x="97" y="348" type="line"/>
      <point x="88" y="367"/>
      <point x="84" y="384"/>
      <point x="84" y="399" type="curve" smooth="yes"/>
      <point x="84" y="447"/>
      <point x="125" y="471"/>
      <point x="172" y="471" type="curve" smooth="yes"/>
      <point x="225" y="471"/>
      <point x="247" y="440"/>
      <point x="247" y="408" type="curve" smooth="yes"/>
      <point x="247" y="318"/>
      <point x="79" y="287"/>
      <point x="79" y="142" type="curve" smooth="yes"/>
      <point x="79" y="54"/>
      <point x="142" y="-15"/>
    </contour>
    <contour>
      <point x="571" y="-15" type="curve" smooth="yes"/>
      <point x="650" y="-15"/>
      <point x="732" y="51"/>
      <point x="732" y="171" type="curve" smooth="yes"/>
      <point x="732" y="240"/>
      <point x="705" y="304"/>
      <point x="659" y="359" type="curve"/>
      <point x="626" y="337" type="line"/>
      <point x="657" y="301"/>
      <point x="677" y="257"/>
      <point x="677" y="214" type="curve" smooth="yes"/>
      <point x="677" y="152"/>
      <point x="635" y="96"/>
      <point x="560" y="96" type="curve" smooth="yes"/>
      <point x="481" y="96"/>
      <point x="427" y="158"/>
      <point x="415" y="244" type="curve"/>
      <point x="405" y="161" type="line"/>
      <point x="421" y="34"/>
      <point x="504" y="-15"/>
    </contour>
  </outline>
</glyph>
<glyph name="kOo" format="2">
  <advance width="790"/>
  <unicode hex="0C93"/>
  <outline>
    <contour>
      <point x="231" y="-15" type="curve" smooth="yes"/>
      <point x="311" y="-15"/>
      <point x="379" y="39"/>
      <point x="405" y="136" type="curve"/>
      <point x="425" y="136" type="line"/>
      <point x="415" y="244" type="line"/>
      <point x="399" y="244" type="line"/>
      <point x="383" y="145"/>
      <point x="322" y="96"/>
      <point x="238" y="96" type="curve" smooth="yes"/>
      <point x="163" y="96"/>
      <point x="135" y="134"/>
      <point x="135" y="176" type="curve" smooth="yes"/>
      <point x="135" y="274"/>
      <point x="300" y="303"/>
      <point x="300" y="422" type="curve" smooth="yes"/>
      <point x="300" y="494"/>
      <point x="245" y="548"/>
      <point x="166" y="548" type="curve" smooth="yes"/>
      <point x="96" y="548"/>
      <point x="38" y="505"/>
      <point x="38" y="436" type="curve" smooth="yes"/>
      <point x="38" y="406"/>
      <point x="49" y="370"/>
      <point x="73" y="332" type="curve"/>
      <point x="97" y="340" type="line"/>
      <point x="88" y="359"/>
      <point x="84" y="376"/>
      <point x="84" y="391" type="curve" smooth="yes"/>
      <point x="84" y="439"/>
      <point x="125" y="463"/>
      <point x="172" y="463" type="curve" smooth="yes"/>
      <point x="225" y="463"/>
      <point x="247" y="432"/>
      <point x="247" y="400" type="curve" smooth="yes"/>
      <point x="247" y="314"/>
      <point x="79" y="280"/>
      <point x="79" y="138" type="curve" smooth="yes"/>
      <point x="79" y="53"/>
      <point x="142" y="-15"/>
    </contour>
    <contour>
      <point x="571" y="-15" type="curve" smooth="yes"/>
      <point x="650" y="-15"/>
      <point x="732" y="51"/>
      <point x="732" y="171" type="curve" smooth="yes"/>
      <point x="732" y="240"/>
      <point x="705" y="304"/>
      <point x="659" y="359" type="curve"/>
      <point x="626" y="337" type="line"/>
      <point x="657" y="301"/>
      <point x="677" y="257"/>
      <point x="677" y="214" type="curve" smooth="yes"/>
      <point x="677" y="152"/>
      <point x="635" y="96"/>
      <point x="560" y="96" type="curve" smooth="yes"/>
      <point x="481" y="96"/>
      <point x="427" y="158"/>
      <point x="415" y="244" type="curve"/>
      <point x="405" y="161" type="line"/>
      <point x="421" y="34"/>
      <point x="504" y="-15"/>
    </contour>
    <contour>
      <point x="300" y="422" type="line"/>
      <point x="300" y="536"/>
      <point x="181" y="552"/>
      <point x="181" y="646" type="curve" smooth="yes"/>
      <point x="181" y="674"/>
      <point x="192" y="704"/>
      <point x="242" y="726" type="curve"/>
      <point x="232" y="752" type="line"/>
      <point x="145" y="747"/>
      <point x="106" y="708"/>
      <point x="106" y="657" type="curve" smooth="yes"/>
      <point x="106" y="621"/>
      <point x="126" y="585"/>
      <point x="183" y="551" type="curve"/>
      <point x="181" y="547" type="line"/>
      <point x="254" y="447" type="line"/>
    </contour>
  </outline>
</glyph>
<glyph name="kAu" format="2">
  <advance width="821"/>
  <unicode hex="0C94"/>
  <outline>
    <contour>
      <point x="595" y="350" type="curve" smooth="yes"/>
      <point x="717" y="350"/>
      <point x="781" y="460"/>
      <point x="781" y="567" type="curve" smooth="yes"/>
      <point x="781" y="672"/>
      <point x="720" y="792"/>
      <point x="530" y="792" type="curve" smooth="yes"/>
      <point x="48" y="792" type="line"/>
      <point x="52" y="710" type="line"/>
      <point x="540" y="710" type="line" smooth="yes"/>
      <point x="687" y="710"/>
      <point x="742" y="630"/>
      <point x="742" y="550" type="curve" smooth="yes"/>
      <point x="742" y="470"/>
      <point x="688" y="398"/>
      <point x="594" y="398" type="curve" smooth="yes"/>
      <point x="515" y="398"/>
      <point x="471" y="448"/>
      <point x="471" y="499" type="curve" smooth="yes"/>
      <point x="471" y="542"/>
      <point x="501" y="579"/>
      <point x="549" y="579" type="curve" smooth="yes"/>
      <point x="554" y="579"/>
      <point x="557" y="579"/>
      <point x="564" y="578" type="curve"/>
      <point x="544" y="565"/>
      <point x="535" y="547"/>
      <point x="535" y="526" type="curve" smooth="yes"/>
      <point x="535" y="489"/>
      <point x="564" y="469"/>
      <point x="594" y="469" type="curve" smooth="yes"/>
      <point x="626" y="469"/>
      <point x="660" y="492"/>
      <point x="660" y="538" type="curve" smooth="yes"/>
      <point x="660" y="586"/>
      <point x="624" y="621"/>
      <point x="565" y="621" type="curve" smooth="yes"/>
      <point x="495" y="621"/>
      <point x="440" y="571"/>
      <point x="440" y="495" type="curve" smooth="yes"/>
      <point x="440" y="414"/>
      <point x="502" y="350"/>
    </contour>
    <contour>
      <point x="238" y="-15" type="curve" smooth="yes"/>
      <point x="318" y="-15"/>
      <point x="386" y="39"/>
      <point x="412" y="136" type="curve"/>
      <point x="432" y="136" type="line"/>
      <point x="422" y="244" type="line"/>
      <point x="406" y="244" type="line"/>
      <point x="390" y="145"/>
      <point x="329" y="96"/>
      <point x="245" y="96" type="curve" smooth="yes"/>
      <point x="170" y="96"/>
      <point x="142" y="136"/>
      <point x="142" y="178" type="curve" smooth="yes"/>
      <point x="142" y="278"/>
      <point x="307" y="307"/>
      <point x="307" y="430" type="curve" smooth="yes"/>
      <point x="307" y="502"/>
      <point x="252" y="551"/>
      <point x="173" y="551" type="curve" smooth="yes"/>
      <point x="103" y="551"/>
      <point x="45" y="513"/>
      <point x="45" y="444" type="curve" smooth="yes"/>
      <point x="45" y="414"/>
      <point x="56" y="378"/>
      <point x="80" y="340" type="curve"/>
      <point x="104" y="348" type="line"/>
      <point x="95" y="367"/>
      <point x="91" y="384"/>
      <point x="91" y="399" type="curve" smooth="yes"/>
      <point x="91" y="447"/>
      <point x="132" y="471"/>
      <point x="179" y="471" type="curve" smooth="yes"/>
      <point x="232" y="471"/>
      <point x="254" y="440"/>
      <point x="254" y="408" type="curve" smooth="yes"/>
      <point x="254" y="318"/>
      <point x="86" y="287"/>
      <point x="86" y="142" type="curve" smooth="yes"/>
      <point x="86" y="54"/>
      <point x="149" y="-15"/>
    </contour>
    <contour>
      <point x="578" y="-15" type="curve" smooth="yes"/>
      <point x="657" y="-15"/>
      <point x="736" y="49"/>
      <point x="736" y="164" type="curve" smooth="yes"/>
      <point x="736" y="221"/>
      <point x="716" y="276"/>
      <point x="677" y="326" type="curve"/>
      <point x="644" y="305" type="line"/>
      <point x="668" y="275"/>
      <point x="681" y="241"/>
      <point x="681" y="207" type="curve" smooth="yes"/>
      <point x="681" y="149"/>
      <point x="642" y="96"/>
      <point x="568" y="96" type="curve" smooth="yes"/>
      <point x="489" y="96"/>
      <point x="434" y="158"/>
      <point x="422" y="244" type="curve"/>
      <point x="412" y="161" type="line"/>
      <point x="428" y="34"/>
      <point x="511" y="-15"/>
    </contour>
    <contour>
      <point x="211" y="540" type="line" smooth="yes"/>
      <point x="345" y="540"/>
      <point x="362" y="600"/>
      <point x="362" y="638" type="curve" smooth="yes"/>
      <point x="362" y="669"/>
      <point x="351" y="699"/>
      <point x="322" y="727" type="curve"/>
      <point x="280" y="727" type="line"/>
      <point x="311" y="705"/>
      <point x="321" y="689"/>
      <point x="321" y="668" type="curve" smooth="yes"/>
      <point x="321" y="635"/>
      <point x="295" y="622"/>
      <point x="223" y="622" type="curve" smooth="yes"/>
      <point x="55" y="622" type="line"/>
      <point x="59" y="540" type="line"/>
    </contour>
  </outline>
</glyph>
<glyph name="kKa" format="2">
  <advance width="629"/>
  <unicode hex="0C95"/>
  <outline>
    <contour>
      <point x="398" y="461" type="line" smooth="yes"/>
      <point x="564" y="461"/>
      <point x="587" y="546"/>
      <point x="587" y="602" type="curve" smooth="yes"/>
      <point x="587" y="665"/>
      <point x="557" y="713"/>
      <point x="510" y="747" type="curve"/>
      <point x="489" y="727" type="line"/>
      <point x="519" y="702"/>
      <point x="538" y="666"/>
      <point x="538" y="631" type="curve" smooth="yes"/>
      <point x="538" y="588"/>
      <point x="510" y="548"/>
      <point x="414" y="548" type="curve" smooth="yes"/>
      <point x="58" y="548" type="line"/>
      <point x="63" y="461" type="line"/>
    </contour>
    <contour>
      <point x="313" y="-15" type="curve" smooth="yes"/>
      <point x="410" y="-15"/>
      <point x="482" y="63"/>
      <point x="482" y="164" type="curve" smooth="yes"/>
      <point x="482" y="258"/>
      <point x="419" y="340"/>
      <point x="315" y="340" type="curve" smooth="yes"/>
      <point x="218" y="340"/>
      <point x="142" y="265"/>
      <point x="142" y="162" type="curve" smooth="yes"/>
      <point x="142" y="59"/>
      <point x="218" y="-15"/>
    </contour>
    <contour>
      <point x="312" y="94" type="curve" smooth="yes"/>
      <point x="240" y="94"/>
      <point x="191" y="139"/>
      <point x="191" y="197" type="curve" smooth="yes"/>
      <point x="191" y="260"/>
      <point x="247" y="308"/>
      <point x="314" y="308" type="curve" smooth="yes"/>
      <point x="383" y="308"/>
      <point x="435" y="259"/>
      <point x="435" y="198" type="curve" smooth="yes"/>
      <point x="435" y="137"/>
      <point x="382" y="94"/>
    </contour>
    <contour>
      <point x="230" y="301" type="line"/>
      <point x="251" y="319" type="line"/>
      <point x="369" y="319" type="line"/>
      <point x="389" y="301" type="line"/>
      <point x="568" y="301" type="line"/>
      <point x="564" y="379" type="line"/>
      <point x="65" y="379" type="line"/>
      <point x="69" y="301" type="line"/>
    </contour>
    <contour>
      <point x="328" y="360" type="line"/>
      <point x="361" y="381"/>
      <point x="367" y="403"/>
      <point x="367" y="420" type="curve" smooth="yes"/>
      <point x="367" y="440"/>
      <point x="358" y="463"/>
      <point x="326" y="482" type="curve"/>
      <point x="276" y="461" type="line"/>
      <point x="309" y="461"/>
      <point x="331" y="448"/>
      <point x="331" y="419" type="curve" smooth="yes"/>
      <point x="331" y="393"/>
      <point x="314" y="381"/>
      <point x="287" y="374" type="curve"/>
    </contour>
  </outline>
</glyph>
<glyph name="kKha" format="2">
  <advance width="838"/>
  <unicode hex="0C96"/>
  <outline>
    <contour>
      <point x="182" y="-15" type="curve" smooth="yes"/>
      <point x="347" y="-15"/>
      <point x="464" y="166"/>
      <point x="464" y="336" type="curve" smooth="yes"/>
      <point x="464" y="494"/>
      <point x="367" y="558"/>
      <point x="280" y="558" type="curve" smooth="yes"/>
      <point x="185" y="558"/>
      <point x="131" y="483"/>
      <point x="131" y="410" type="curve" smooth="yes"/>
      <point x="131" y="348"/>
      <point x="171" y="287"/>
      <point x="232" y="287" type="curve" smooth="yes"/>
      <point x="277" y="287"/>
      <point x="300" y="320"/>
      <point x="300" y="352" type="curve" smooth="yes"/>
      <point x="300" y="384"/>
      <point x="278" y="413"/>
      <point x="240" y="413" type="curve" smooth="yes"/>
      <point x="216" y="413"/>
      <point x="191" y="401"/>
      <point x="176" y="377" type="curve"/>
      <point x="172" y="387"/>
      <point x="170" y="396"/>
      <point x="170" y="405" type="curve" smooth="yes"/>
      <point x="170" y="446"/>
      <point x="214" y="480"/>
      <point x="278" y="480" type="curve" smooth="yes"/>
      <point x="349" y="480"/>
      <point x="426" y="437"/>
      <point x="426" y="328" type="curve" smooth="yes"/>
      <point x="426" y="195"/>
      <point x="313" y="85"/>
      <point x="175" y="85" type="curve" smooth="yes"/>
      <point x="111" y="85"/>
      <point x="79" y="109"/>
      <point x="79" y="134" type="curve" smooth="yes"/>
      <point x="79" y="160"/>
      <point x="113" y="188"/>
      <point x="180" y="188" type="curve" smooth="yes"/>
      <point x="361" y="188"/>
      <point x="431" y="-15"/>
      <point x="603" y="-15" type="curve" smooth="yes"/>
      <point x="724" y="-15"/>
      <point x="773" y="85"/>
      <point x="773" y="191" type="curve" smooth="yes"/>
      <point x="773" y="384"/>
      <point x="609" y="533"/>
      <point x="558" y="533" type="curve" smooth="yes"/>
      <point x="543" y="533"/>
      <point x="534" y="520"/>
      <point x="534" y="504" type="curve" smooth="yes"/>
      <point x="534" y="490"/>
      <point x="541" y="472"/>
      <point x="552" y="464" type="curve"/>
      <point x="678" y="418"/>
      <point x="725" y="311"/>
      <point x="725" y="233" type="curve" smooth="yes"/>
      <point x="725" y="158"/>
      <point x="681" y="96"/>
      <point x="587" y="96" type="curve" smooth="yes"/>
      <point x="449" y="96"/>
      <point x="337" y="222"/>
      <point x="179" y="222" type="curve" smooth="yes"/>
      <point x="80" y="222"/>
      <point x="35" y="168"/>
      <point x="35" y="109" type="curve" smooth="yes"/>
      <point x="35" y="45"/>
      <point x="89" y="-15"/>
    </contour>
  </outline>
</glyph>
<glyph name="kGa" format="2">
  <advance width="671"/>
  <unicode hex="0C97"/>
  <outline>
    <contour>
      <point x="175" y="0" type="line"/>
      <point x="181" y="252"/>
      <point x="218" y="464"/>
      <point x="338" y="464" type="curve" smooth="yes"/>
      <point x="458" y="464"/>
      <point x="495" y="252"/>
      <point x="501" y="0" type="curve"/>
      <point x="606" y="0" type="line"/>
      <point x="595" y="326"/>
      <point x="460" y="494"/>
      <point x="339" y="494" type="curve" smooth="yes"/>
      <point x="174" y="494"/>
      <point x="74" y="248"/>
      <point x="70" y="0" type="curve"/>
    </contour>
    <contour>
      <point x="269" y="460" type="line"/>
      <point x="340" y="483" type="line"/>
      <point x="402" y="460" type="line"/>
      <point x="569" y="459"/>
      <point x="592" y="545"/>
      <point x="592" y="602" type="curve" smooth="yes"/>
      <point x="592" y="665"/>
      <point x="562" y="713"/>
      <point x="515" y="747" type="curve"/>
      <point x="494" y="727" type="line"/>
      <point x="524" y="702"/>
      <point x="543" y="666"/>
      <point x="543" y="631" type="curve" smooth="yes"/>
      <point x="543" y="588"/>
      <point x="515" y="548"/>
      <point x="419" y="548" type="curve" smooth="yes"/>
      <point x="74" y="548" type="line"/>
      <point x="79" y="460" type="line"/>
    </contour>
  </outline>
</glyph>
<glyph name="kGha" format="2">
  <advance width="964"/>
  <unicode hex="0C98"/>
  <outline>
    <contour>
      <point x="562" y="460" type="line" smooth="yes"/>
      <point x="728" y="460"/>
      <point x="751" y="546"/>
      <point x="751" y="602" type="curve" smooth="yes"/>
      <point x="751" y="665"/>
      <point x="721" y="713"/>
      <point x="674" y="747" type="curve"/>
      <point x="653" y="727" type="line"/>
      <point x="683" y="702"/>
      <point x="702" y="666"/>
      <point x="702" y="631" type="curve" smooth="yes"/>
      <point x="702" y="588"/>
      <point x="674" y="548"/>
      <point x="578" y="548" type="curve" smooth="yes"/>
      <point x="95" y="548" type="line"/>
      <point x="100" y="460" type="line"/>
    </contour>
    <contour>
      <point x="425" y="-200" type="curve" smooth="yes"/>
      <point x="457" y="-200"/>
      <point x="479" y="-173"/>
      <point x="479" y="-146" type="curve" smooth="yes"/>
      <point x="479" y="-111"/>
      <point x="464" y="-76"/>
      <point x="430" y="39" type="curve"/>
      <point x="423" y="39" type="line"/>
      <point x="387" y="-78"/>
      <point x="374" y="-115"/>
      <point x="374" y="-145" type="curve" smooth="yes"/>
      <point x="374" y="-174"/>
      <point x="393" y="-200"/>
    </contour>
    <contour>
      <point x="245" y="-15" type="curve" smooth="yes"/>
      <point x="329" y="-15"/>
      <point x="401" y="43"/>
      <point x="425" y="142" type="curve"/>
      <point x="445" y="142" type="line"/>
      <point x="435" y="244" type="line"/>
      <point x="419" y="244" type="line"/>
      <point x="403" y="141"/>
      <point x="334" y="94"/>
      <point x="242" y="94" type="curve" smooth="yes"/>
      <point x="143" y="94"/>
      <point x="107" y="143"/>
      <point x="107" y="191" type="curve" smooth="yes"/>
      <point x="107" y="237"/>
      <point x="141" y="281"/>
      <point x="193" y="281" type="curve" smooth="yes"/>
      <point x="234" y="281"/>
      <point x="262" y="254"/>
      <point x="262" y="222" type="curve" smooth="yes"/>
      <point x="262" y="206"/>
      <point x="255" y="188"/>
      <point x="241" y="173" type="curve"/>
      <point x="261" y="158" type="line"/>
      <point x="300" y="186"/>
      <point x="324" y="224"/>
      <point x="324" y="263" type="curve" smooth="yes"/>
      <point x="324" y="321"/>
      <point x="273" y="360"/>
      <point x="212" y="360" type="curve" smooth="yes"/>
      <point x="124" y="360"/>
      <point x="70" y="279"/>
      <point x="70" y="187" type="curve" smooth="yes"/>
      <point x="70" y="98"/>
      <point x="122" y="-15"/>
    </contour>
    <contour>
      <point x="425" y="291" type="curve" smooth="yes"/>
      <point x="458" y="291"/>
      <point x="484" y="319"/>
      <point x="484" y="352" type="curve" smooth="yes"/>
      <point x="484" y="385"/>
      <point x="458" y="412"/>
      <point x="425" y="412" type="curve" smooth="yes"/>
      <point x="392" y="412"/>
      <point x="365" y="385"/>
      <point x="365" y="352" type="curve" smooth="yes"/>
      <point x="365" y="319"/>
      <point x="392" y="291"/>
    </contour>
    <contour>
      <point x="592" y="-15" type="curve" smooth="yes"/>
      <point x="690" y="-15"/>
      <point x="748" y="66"/>
      <point x="748" y="171" type="curve" smooth="yes"/>
      <point x="748" y="256"/>
      <point x="705" y="334"/>
      <point x="655" y="396" type="curve"/>
      <point x="626" y="375" type="line"/>
      <point x="668" y="328"/>
      <point x="695" y="269"/>
      <point x="695" y="215" type="curve" smooth="yes"/>
      <point x="695" y="145"/>
      <point x="653" y="96"/>
      <point x="581" y="96" type="curve" smooth="yes"/>
      <point x="493" y="96"/>
      <point x="445" y="170"/>
      <point x="435" y="244" type="curve"/>
      <point x="424" y="170" type="line"/>
      <point x="443" y="35"/>
      <point x="520" y="-15"/>
    </contour>
    <contour>
      <point x="823" y="260" type="curve" smooth="yes"/>
      <point x="887" y="260"/>
      <point x="934" y="306"/>
      <point x="934" y="378" type="curve" smooth="yes"/>
      <point x="934" y="436"/>
      <point x="904" y="497"/>
      <point x="852" y="537" type="curve"/>
      <point x="831" y="517" type="line"/>
      <point x="857" y="492"/>
      <point x="874" y="462"/>
      <point x="874" y="425" type="curve" smooth="yes"/>
      <point x="874" y="368"/>
      <point x="834" y="333"/>
      <point x="778" y="333" type="curve" smooth="yes"/>
      <point x="730" y="333"/>
      <point x="682" y="358"/>
      <point x="655" y="396" type="curve"/>
      <point x="700" y="277" type="line"/>
      <point x="724" y="296" type="line"/>
      <point x="754" y="273"/>
      <point x="788" y="260"/>
    </contour>
  </outline>
</glyph>
<glyph name="kNga" format="2">
  <advance width="794"/>
  <unicode hex="0C99"/>
  <outline>
    <contour>
      <point x="230" y="-15" type="curve" smooth="yes"/>
      <point x="311" y="-15"/>
      <point x="382" y="41"/>
      <point x="407" y="140" type="curve"/>
      <point x="427" y="140" type="line"/>
      <point x="417" y="242" type="line"/>
      <point x="401" y="242" type="line"/>
      <point x="385" y="143"/>
      <point x="322" y="96"/>
      <point x="238" y="96" type="curve" smooth="yes"/>
      <point x="163" y="96"/>
      <point x="135" y="136"/>
      <point x="135" y="178" type="curve" smooth="yes"/>
      <point x="135" y="251"/>
      <point x="215" y="278"/>
      <point x="300" y="380" type="curve"/>
      <point x="298" y="416" type="line"/>
      <point x="298" y="430" type="line" smooth="yes"/>
      <point x="298" y="502"/>
      <point x="253" y="558"/>
      <point x="174" y="558" type="curve" smooth="yes"/>
      <point x="104" y="558"/>
      <point x="38" y="513"/>
      <point x="38" y="444" type="curve" smooth="yes"/>
      <point x="38" y="414"/>
      <point x="49" y="378"/>
      <point x="73" y="340" type="curve"/>
      <point x="97" y="348" type="line"/>
      <point x="88" y="367"/>
      <point x="84" y="384"/>
      <point x="84" y="399" type="curve" smooth="yes"/>
      <point x="84" y="447"/>
      <point x="125" y="471"/>
      <point x="172" y="471" type="curve" smooth="yes"/>
      <point x="225" y="471"/>
      <point x="247" y="440"/>
      <point x="247" y="408" type="curve" smooth="yes"/>
      <point x="247" y="318"/>
      <point x="79" y="286"/>
      <point x="79" y="142" type="curve" smooth="yes"/>
      <point x="79" y="54"/>
      <point x="142" y="-15"/>
    </contour>
    <contour>
      <point x="572" y="-15" type="curve" smooth="yes"/>
      <point x="650" y="-15"/>
      <point x="729" y="49"/>
      <point x="729" y="164" type="curve" smooth="yes"/>
      <point x="729" y="223"/>
      <point x="709" y="279"/>
      <point x="667" y="330" type="curve"/>
      <point x="634" y="308" type="line"/>
      <point x="660" y="277"/>
      <point x="674" y="242"/>
      <point x="674" y="207" type="curve" smooth="yes"/>
      <point x="674" y="149"/>
      <point x="635" y="96"/>
      <point x="561" y="96" type="curve" smooth="yes"/>
      <point x="477" y="96"/>
      <point x="428" y="161"/>
      <point x="417" y="242" type="curve"/>
      <point x="407" y="163" type="line"/>
      <point x="424" y="32"/>
      <point x="504" y="-15"/>
    </contour>
    <contour>
      <point x="408" y="279" type="curve" smooth="yes"/>
      <point x="440" y="279"/>
      <point x="466" y="307"/>
      <point x="466" y="339" type="curve" smooth="yes"/>
      <point x="466" y="371"/>
      <point x="440" y="398"/>
      <point x="408" y="398" type="curve" smooth="yes"/>
      <point x="376" y="398"/>
      <point x="349" y="371"/>
      <point x="349" y="339" type="curve" smooth="yes"/>
      <point x="349" y="307"/>
      <point x="376" y="279"/>
    </contour>
    <contour>
      <point x="660" y="368" type="line"/>
      <point x="677" y="395"/>
      <point x="685" y="423"/>
      <point x="685" y="449" type="curve" smooth="yes"/>
      <point x="685" y="519"/>
      <point x="629" y="580"/>
      <point x="541" y="580" type="curve" smooth="yes"/>
      <point x="464" y="580"/>
      <point x="380" y="529"/>
      <point x="302" y="427" type="curve"/>
      <point x="273" y="434" type="line"/>
      <point x="300" y="380" type="line"/>
      <point x="348" y="438"/>
      <point x="411" y="498"/>
      <point x="511" y="498" type="curve" smooth="yes"/>
      <point x="592" y="498"/>
      <point x="639" y="459"/>
      <point x="639" y="407" type="curve" smooth="yes"/>
      <point x="639" y="397"/>
      <point x="637" y="387"/>
      <point x="634" y="377" type="curve"/>
    </contour>
  </outline>
</glyph>
<glyph name="kCa" format="2">
  <advance width="840"/>
  <unicode hex="0C9A"/>
  <outline>
    <contour>
      <point x="231" y="-15" type="curve" smooth="yes"/>
      <point x="311" y="-15"/>
      <point x="379" y="39"/>
      <point x="405" y="136" type="curve"/>
      <point x="425" y="136" type="line"/>
      <point x="415" y="244" type="line"/>
      <point x="399" y="244" type="line"/>
      <point x="383" y="145"/>
      <point x="322" y="96"/>
      <point x="238" y="96" type="curve" smooth="yes"/>
      <point x="163" y="96"/>
      <point x="135" y="136"/>
      <point x="135" y="178" type="curve" smooth="yes"/>
      <point x="135" y="278"/>
      <point x="300" y="307"/>
      <point x="300" y="430" type="curve" smooth="yes"/>
      <point x="300" y="502"/>
      <point x="253" y="558"/>
      <point x="174" y="558" type="curve" smooth="yes"/>
      <point x="104" y="558"/>
      <point x="38" y="513"/>
      <point x="38" y="444" type="curve"/>
      <point x="38" y="414"/>
      <point x="49" y="378"/>
      <point x="73" y="340" type="curve"/>
      <point x="97" y="348" type="line"/>
      <point x="88" y="367"/>
      <point x="84" y="384"/>
      <point x="84" y="399" type="curve" smooth="yes"/>
      <point x="84" y="447"/>
      <point x="125" y="471"/>
      <point x="172" y="471" type="curve" smooth="yes"/>
      <point x="225" y="471"/>
      <point x="247" y="440"/>
      <point x="247" y="408" type="curve" smooth="yes"/>
      <point x="247" y="318"/>
      <point x="79" y="287"/>
      <point x="79" y="142" type="curve" smooth="yes"/>
      <point x="79" y="54"/>
      <point x="142" y="-15"/>
    </contour>
    <contour>
      <point x="575" y="-15" type="curve" smooth="yes"/>
      <point x="656" y="-15"/>
      <point x="727" y="46"/>
      <point x="727" y="148" type="curve" smooth="yes"/>
      <point x="727" y="239"/>
      <point x="674" y="316"/>
      <point x="588" y="339" type="curve"/>
      <point x="554" y="316" type="line"/>
      <point x="615" y="301"/>
      <point x="672" y="260"/>
      <point x="672" y="191" type="curve" smooth="yes"/>
      <point x="672" y="138"/>
      <point x="633" y="96"/>
      <point x="563" y="96" type="curve" smooth="yes"/>
      <point x="474" y="96"/>
      <point x="426" y="165"/>
      <point x="415" y="244" type="curve"/>
      <point x="405" y="161" type="line"/>
      <point x="422" y="28"/>
      <point x="508" y="-15"/>
    </contour>
    <contour>
      <point x="781" y="301" type="line"/>
      <point x="777" y="379" type="line"/>
      <point x="428" y="379" type="line"/>
      <point x="432" y="301" type="line"/>
    </contour>
    <contour>
      <point x="623" y="360" type="line"/>
      <point x="656" y="381"/>
      <point x="662" y="403"/>
      <point x="662" y="420" type="curve" smooth="yes"/>
      <point x="662" y="438"/>
      <point x="653" y="463"/>
      <point x="617" y="482" type="curve"/>
      <point x="571" y="461" type="line"/>
      <point x="604" y="461"/>
      <point x="626" y="448"/>
      <point x="626" y="419" type="curve" smooth="yes"/>
      <point x="626" y="393"/>
      <point x="609" y="381"/>
      <point x="582" y="374" type="curve"/>
    </contour>
    <contour>
      <point x="616" y="461" type="line" smooth="yes"/>
      <point x="732" y="461"/>
      <point x="800" y="508"/>
      <point x="800" y="602" type="curve" smooth="yes"/>
      <point x="800" y="665"/>
      <point x="770" y="713"/>
      <point x="723" y="747" type="curve"/>
      <point x="702" y="727" type="line"/>
      <point x="732" y="702"/>
      <point x="751" y="666"/>
      <point x="751" y="631" type="curve" smooth="yes"/>
      <point x="751" y="588"/>
      <point x="723" y="548"/>
      <point x="627" y="548" type="curve" smooth="yes"/>
      <point x="421" y="548" type="line"/>
      <point x="426" y="461" type="line"/>
    </contour>
  </outline>
</glyph>
<glyph name="kCha" format="2">
  <advance width="842"/>
  <unicode hex="0C9B"/>
  <outline>
    <contour>
      <point x="262" y="-15" type="curve" smooth="yes"/>
      <point x="342" y="-15"/>
      <point x="414" y="39"/>
      <point x="440" y="136" type="curve"/>
      <point x="460" y="136" type="line"/>
      <point x="450" y="244" type="line"/>
      <point x="434" y="244" type="line"/>
      <point x="418" y="145"/>
      <point x="353" y="96"/>
      <point x="269" y="96" type="curve" smooth="yes"/>
      <point x="158" y="96"/>
      <point x="104" y="181"/>
      <point x="104" y="281" type="curve" smooth="yes"/>
      <point x="104" y="385"/>
      <point x="147" y="471"/>
      <point x="225" y="471" type="curve" smooth="yes"/>
      <point x="282" y="471"/>
      <point x="311" y="432"/>
      <point x="311" y="397" type="curve" smooth="yes"/>
      <point x="311" y="361"/>
      <point x="284" y="337"/>
      <point x="238" y="337" type="curve" smooth="yes"/>
      <point x="189" y="337"/>
      <point x="143" y="373"/>
      <point x="143" y="450" type="curve"/>
      <point x="96" y="388" type="line"/>
      <point x="125" y="388" type="line"/>
      <point x="135" y="306"/>
      <point x="186" y="263"/>
      <point x="239" y="263" type="curve" smooth="yes"/>
      <point x="297" y="263"/>
      <point x="346" y="310"/>
      <point x="346" y="399" type="curve" smooth="yes"/>
      <point x="346" y="478"/>
      <point x="308" y="558"/>
      <point x="231" y="558" type="curve" smooth="yes"/>
      <point x="125" y="558"/>
      <point x="65" y="419"/>
      <point x="65" y="280" type="curve" smooth="yes"/>
      <point x="65" y="140"/>
      <point x="127" y="-15"/>
    </contour>
    <contour>
      <point x="440" y="-200" type="curve" smooth="yes"/>
      <point x="470" y="-200"/>
      <point x="494" y="-177"/>
      <point x="494" y="-142" type="curve" smooth="yes"/>
      <point x="494" y="-114"/>
      <point x="479" y="-75"/>
      <point x="445" y="39" type="curve"/>
      <point x="438" y="39" type="line"/>
      <point x="402" y="-78"/>
      <point x="389" y="-116"/>
      <point x="389" y="-143" type="curve" smooth="yes"/>
      <point x="389" y="-175"/>
      <point x="408" y="-200"/>
    </contour>
    <contour>
      <point x="612" y="-15" type="curve" smooth="yes"/>
      <point x="712" y="-15"/>
      <point x="768" y="66"/>
      <point x="768" y="185" type="curve" smooth="yes"/>
      <point x="768" y="319"/>
      <point x="699" y="412"/>
      <point x="635" y="462" type="curve"/>
      <point x="635" y="492" type="line"/>
      <point x="504" y="460" type="line"/>
      <point x="631" y="460"/>
      <point x="718" y="339"/>
      <point x="718" y="227" type="curve" smooth="yes"/>
      <point x="718" y="152"/>
      <point x="679" y="96"/>
      <point x="600" y="96" type="curve" smooth="yes"/>
      <point x="520" y="96"/>
      <point x="463" y="153"/>
      <point x="450" y="244" type="curve"/>
      <point x="440" y="158" type="line"/>
      <point x="460" y="36"/>
      <point x="533" y="-15"/>
    </contour>
    <contour>
      <point x="504" y="460" type="line"/>
      <point x="635" y="464" type="line"/>
      <point x="684" y="468"/>
      <point x="775" y="491"/>
      <point x="775" y="601" type="curve" smooth="yes"/>
      <point x="775" y="665"/>
      <point x="745" y="713"/>
      <point x="698" y="747" type="curve"/>
      <point x="677" y="727" type="line"/>
      <point x="707" y="702"/>
      <point x="726" y="666"/>
      <point x="726" y="631" type="curve" smooth="yes"/>
      <point x="726" y="588"/>
      <point x="698" y="548"/>
      <point x="602" y="548" type="curve" smooth="yes"/>
      <point x="431" y="548" type="line"/>
      <point x="436" y="460" type="line"/>
    </contour>
  </outline>
</glyph>
<glyph name="kJa" format="2">
  <advance width="789"/>
  <unicode hex="0C9C"/>
  <outline>
    <contour>
      <point x="231" y="-15" type="curve" smooth="yes"/>
      <point x="311" y="-15"/>
      <point x="379" y="39"/>
      <point x="405" y="136" type="curve"/>
      <point x="425" y="136" type="line"/>
      <point x="415" y="244" type="line"/>
      <point x="399" y="244" type="line"/>
      <point x="383" y="145"/>
      <point x="322" y="96"/>
      <point x="238" y="96" type="curve" smooth="yes"/>
      <point x="163" y="96"/>
      <point x="135" y="136"/>
      <point x="135" y="178" type="curve" smooth="yes"/>
      <point x="135" y="278"/>
      <point x="297" y="310"/>
      <point x="297" y="430" type="curve" smooth="yes"/>
      <point x="297" y="443"/>
      <point x="296" y="455"/>
      <point x="293" y="466" type="curve"/>
      <point x="262" y="521" type="line"/>
      <point x="239" y="544"/>
      <point x="206" y="558"/>
      <point x="166" y="558" type="curve" smooth="yes"/>
      <point x="96" y="558"/>
      <point x="38" y="513"/>
      <point x="38" y="444" type="curve" smooth="yes"/>
      <point x="38" y="414"/>
      <point x="49" y="378"/>
      <point x="73" y="340" type="curve"/>
      <point x="97" y="348" type="line"/>
      <point x="88" y="367"/>
      <point x="84" y="384"/>
      <point x="84" y="399" type="curve" smooth="yes"/>
      <point x="84" y="447"/>
      <point x="125" y="471"/>
      <point x="172" y="471" type="curve" smooth="yes"/>
      <point x="225" y="471"/>
      <point x="247" y="440"/>
      <point x="247" y="408" type="curve" smooth="yes"/>
      <point x="247" y="318"/>
      <point x="79" y="287"/>
      <point x="79" y="142" type="curve" smooth="yes"/>
      <point x="79" y="54"/>
      <point x="142" y="-15"/>
    </contour>
    <contour>
      <point x="572" y="-15" type="curve" smooth="yes"/>
      <point x="650" y="-15"/>
      <point x="729" y="49"/>
      <point x="729" y="164" type="curve" smooth="yes"/>
      <point x="729" y="223"/>
      <point x="708" y="282"/>
      <point x="665" y="333" type="curve"/>
      <point x="631" y="311" type="line"/>
      <point x="659" y="279"/>
      <point x="674" y="244"/>
      <point x="674" y="207" type="curve" smooth="yes"/>
      <point x="674" y="149"/>
      <point x="635" y="96"/>
      <point x="561" y="96" type="curve" smooth="yes"/>
      <point x="474" y="96"/>
      <point x="426" y="165"/>
      <point x="415" y="244" type="curve"/>
      <point x="405" y="161" type="line"/>
      <point x="422" y="28"/>
      <point x="509" y="-15"/>
    </contour>
    <contour>
      <point x="530" y="328" type="curve" smooth="yes"/>
      <point x="597" y="328"/>
      <point x="650" y="369"/>
      <point x="650" y="446" type="curve" smooth="yes"/>
      <point x="650" y="488"/>
      <point x="635" y="531"/>
      <point x="605" y="568" type="curve"/>
      <point x="581" y="550" type="line"/>
      <point x="593" y="531"/>
      <point x="602" y="504"/>
      <point x="602" y="483" type="curve" smooth="yes"/>
      <point x="602" y="437"/>
      <point x="565" y="409"/>
      <point x="502" y="409" type="curve" smooth="yes"/>
      <point x="442" y="409"/>
      <point x="348" y="436"/>
      <point x="262" y="521" type="curve"/>
      <point x="274" y="438" type="line"/>
      <point x="298" y="450" type="line"/>
      <point x="366" y="381"/>
      <point x="454" y="328"/>
    </contour>
  </outline>
</glyph>
<glyph name="kJha" format="2">
  <advance width="1311"/>
  <unicode hex="0C9D"/>
  <outline>
    <contour>
      <point x="323" y="-15" type="curve" smooth="yes"/>
      <point x="459" y="-15"/>
      <point x="564" y="97"/>
      <point x="564" y="241" type="curve" smooth="yes"/>
      <point x="564" y="359"/>
      <point x="493" y="493"/>
      <point x="318" y="493" type="curve" smooth="yes"/>
      <point x="169" y="493"/>
      <point x="76" y="377"/>
      <point x="76" y="242" type="curve" smooth="yes"/>
      <point x="76" y="93"/>
      <point x="184" y="-15"/>
    </contour>
    <contour>
      <point x="321" y="96" type="curve" smooth="yes"/>
      <point x="205" y="96"/>
      <point x="129" y="172"/>
      <point x="129" y="276" type="curve" smooth="yes"/>
      <point x="129" y="381"/>
      <point x="220" y="463"/>
      <point x="322" y="463" type="curve" smooth="yes"/>
      <point x="430" y="463"/>
      <point x="512" y="378"/>
      <point x="512" y="275" type="curve" smooth="yes"/>
      <point x="512" y="171"/>
      <point x="428" y="96"/>
    </contour>
    <contour>
      <point x="919" y="-200" type="curve" smooth="yes"/>
      <point x="951" y="-200"/>
      <point x="973" y="-173"/>
      <point x="973" y="-146" type="curve" smooth="yes"/>
      <point x="973" y="-111"/>
      <point x="958" y="-76"/>
      <point x="924" y="39" type="curve"/>
      <point x="917" y="39" type="line"/>
      <point x="881" y="-78"/>
      <point x="868" y="-115"/>
      <point x="868" y="-145" type="curve" smooth="yes"/>
      <point x="868" y="-174"/>
      <point x="887" y="-200"/>
    </contour>
    <contour>
      <point x="207" y="460" type="line"/>
      <point x="318" y="482" type="line"/>
      <point x="417" y="460" type="line"/>
      <point x="563" y="468"/>
      <point x="584" y="548"/>
      <point x="584" y="602" type="curve" smooth="yes"/>
      <point x="584" y="665"/>
      <point x="554" y="713"/>
      <point x="507" y="747" type="curve"/>
      <point x="486" y="727" type="line"/>
      <point x="516" y="702"/>
      <point x="535" y="666"/>
      <point x="535" y="631" type="curve" smooth="yes"/>
      <point x="535" y="588"/>
      <point x="507" y="548"/>
      <point x="411" y="548" type="curve" smooth="yes"/>
      <point x="56" y="548" type="line"/>
      <point x="61" y="460" type="line"/>
    </contour>
    <contour>
      <point x="760" y="-15" type="curve" smooth="yes"/>
      <point x="865" y="-15"/>
      <point x="911" y="83"/>
      <point x="911" y="183" type="curve" smooth="yes"/>
      <point x="911" y="383"/>
      <point x="736" y="533"/>
      <point x="686" y="533" type="curve" smooth="yes"/>
      <point x="672" y="533"/>
      <point x="663" y="521"/>
      <point x="663" y="504" type="curve" smooth="yes"/>
      <point x="663" y="489"/>
      <point x="670" y="472"/>
      <point x="681" y="464" type="curve"/>
      <point x="810" y="419"/>
      <point x="861" y="318"/>
      <point x="861" y="232" type="curve" smooth="yes"/>
      <point x="861" y="158"/>
      <point x="823" y="96"/>
      <point x="741" y="96" type="curve" smooth="yes"/>
      <point x="662" y="96"/>
      <point x="598" y="148"/>
      <point x="562" y="246" type="curve"/>
      <point x="533" y="175" type="line"/>
      <point x="561" y="175" type="line"/>
      <point x="591" y="64"/>
      <point x="675" y="-15"/>
    </contour>
    <contour>
      <point x="1095" y="-15" type="curve" smooth="yes"/>
      <point x="1200" y="-15"/>
      <point x="1246" y="83"/>
      <point x="1246" y="185" type="curve" smooth="yes"/>
      <point x="1246" y="385"/>
      <point x="1071" y="533"/>
      <point x="1021" y="533" type="curve" smooth="yes"/>
      <point x="1007" y="533"/>
      <point x="998" y="521"/>
      <point x="998" y="504" type="curve" smooth="yes"/>
      <point x="998" y="489"/>
      <point x="1005" y="472"/>
      <point x="1016" y="464" type="curve"/>
      <point x="1145" y="419"/>
      <point x="1196" y="318"/>
      <point x="1196" y="232" type="curve" smooth="yes"/>
      <point x="1196" y="158"/>
      <point x="1158" y="96"/>
      <point x="1076" y="96" type="curve" smooth="yes"/>
      <point x="1000" y="96"/>
      <point x="934" y="158"/>
      <point x="902" y="241" type="curve"/>
      <point x="885" y="146" type="line"/>
      <point x="913" y="146" type="line"/>
      <point x="957" y="43"/>
      <point x="1020" y="-15"/>
    </contour>
  </outline>
</glyph>
<glyph name="kNya" format="2">
  <advance width="1036"/>
  <unicode hex="0C9E"/>
  <outline>
    <contour>
      <point x="662" y="-119" type="line"/>
      <point x="707" y="-81"/>
      <point x="731" y="-36"/>
      <point x="731" y="16" type="curve" smooth="yes"/>
      <point x="731" y="127"/>
      <point x="623" y="246"/>
      <point x="435" y="246" type="curve" smooth="yes"/>
      <point x="296" y="246"/>
      <point x="244" y="183"/>
      <point x="244" y="118" type="curve" smooth="yes"/>
      <point x="244" y="49"/>
      <point x="304" y="-15"/>
      <point x="403" y="-15" type="curve" smooth="yes"/>
      <point x="549" y="-15"/>
      <point x="659" y="122"/>
      <point x="686" y="289" type="curve"/>
      <point x="689" y="474"/>
      <point x="628" y="558"/>
      <point x="529" y="558" type="curve" smooth="yes"/>
      <point x="437" y="558"/>
      <point x="381" y="487"/>
      <point x="362" y="389" type="curve"/>
      <point x="372" y="299" type="line"/>
      <point x="383" y="386"/>
      <point x="439" y="460"/>
      <point x="531" y="460" type="curve" smooth="yes"/>
      <point x="618" y="460"/>
      <point x="654" y="394"/>
      <point x="654" y="329" type="curve" smooth="yes"/>
      <point x="654" y="209"/>
      <point x="542" y="87"/>
      <point x="400" y="87" type="curve" smooth="yes"/>
      <point x="331" y="87"/>
      <point x="298" y="114"/>
      <point x="298" y="144" type="curve" smooth="yes"/>
      <point x="298" y="178"/>
      <point x="341" y="212"/>
      <point x="434" y="212" type="curve" smooth="yes"/>
      <point x="562" y="212"/>
      <point x="677" y="145"/>
      <point x="677" y="57" type="curve" smooth="yes"/>
      <point x="677" y="12"/>
      <point x="648" y="-27"/>
      <point x="599" y="-69" type="curve"/>
    </contour>
    <contour>
      <point x="123" y="235" type="line"/>
      <point x="103" y="265"/>
      <point x="92" y="302"/>
      <point x="92" y="335" type="curve" smooth="yes"/>
      <point x="92" y="411"/>
      <point x="148" y="460"/>
      <point x="215" y="460" type="curve" smooth="yes"/>
      <point x="289" y="460"/>
      <point x="337" y="401"/>
      <point x="356" y="299" type="curve"/>
      <point x="372" y="299" type="line"/>
      <point x="382" y="407" type="line"/>
      <point x="362" y="407" type="line"/>
      <point x="333" y="506"/>
      <point x="276" y="558"/>
      <point x="199" y="558" type="curve" smooth="yes"/>
      <point x="100" y="558"/>
      <point x="45" y="472"/>
      <point x="45" y="375" type="curve" smooth="yes"/>
      <point x="45" y="322"/>
      <point x="62" y="265"/>
      <point x="94" y="218" type="curve"/>
    </contour>
    <contour>
      <point x="922" y="208" type="line"/>
      <point x="967" y="262"/>
      <point x="986" y="323"/>
      <point x="986" y="379" type="curve" smooth="yes"/>
      <point x="986" y="475"/>
      <point x="931" y="558"/>
      <point x="838" y="558" type="curve" smooth="yes"/>
      <point x="766" y="558"/>
      <point x="709" y="508"/>
      <point x="681" y="407" type="curve"/>
      <point x="659" y="407" type="line"/>
      <point x="686" y="289" type="line"/>
      <point x="705" y="399"/>
      <point x="764" y="460"/>
      <point x="833" y="460" type="curve" smooth="yes"/>
      <point x="900" y="460"/>
      <point x="930" y="403"/>
      <point x="930" y="342" type="curve" smooth="yes"/>
      <point x="930" y="302"/>
      <point x="917" y="261"/>
      <point x="892" y="226" type="curve"/>
    </contour>
  </outline>
</glyph>
<glyph name="kTta" format="2">
  <advance width="833"/>
  <unicode hex="0C9F"/>
  <outline>
    <contour>
      <point x="607" y="-15" type="curve" smooth="yes"/>
      <point x="707" y="-15"/>
      <point x="763" y="75"/>
      <point x="763" y="192" type="curve" smooth="yes"/>
      <point x="763" y="314"/>
      <point x="702" y="425"/>
      <point x="592" y="491" type="curve"/>
      <point x="558" y="461" type="line"/>
      <point x="664" y="414"/>
      <point x="713" y="316"/>
      <point x="713" y="227" type="curve" smooth="yes"/>
      <point x="713" y="152"/>
      <point x="671" y="96"/>
      <point x="595" y="96" type="curve" smooth="yes"/>
      <point x="513" y="96"/>
      <point x="458" y="153"/>
      <point x="445" y="244" type="curve"/>
      <point x="435" y="158" type="line"/>
      <point x="455" y="36"/>
      <point x="528" y="-15"/>
    </contour>
    <contour>
      <point x="614" y="477" type="line"/>
      <point x="691" y="531"/>
      <point x="706" y="579"/>
      <point x="706" y="613" type="curve" smooth="yes"/>
      <point x="706" y="671"/>
      <point x="665" y="721"/>
      <point x="578" y="726" type="curve"/>
      <point x="568" y="700" type="line"/>
      <point x="618" y="677"/>
      <point x="631" y="643"/>
      <point x="631" y="605" type="curve" smooth="yes"/>
      <point x="631" y="558"/>
      <point x="611" y="523"/>
      <point x="556" y="476" type="curve"/>
      <point x="558" y="461" type="line"/>
    </contour>
    <contour>
      <point x="257" y="-15" type="curve" smooth="yes"/>
      <point x="337" y="-15"/>
      <point x="409" y="39"/>
      <point x="435" y="136" type="curve"/>
      <point x="455" y="136" type="line"/>
      <point x="445" y="244" type="line"/>
      <point x="429" y="244" type="line"/>
      <point x="415" y="145"/>
      <point x="343" y="95"/>
      <point x="264" y="95" type="curve" smooth="yes"/>
      <point x="169" y="95"/>
      <point x="109" y="160"/>
      <point x="109" y="256" type="curve" smooth="yes"/>
      <point x="109" y="292"/>
      <point x="119" y="338"/>
      <point x="132" y="366" type="curve"/>
      <point x="146" y="371" type="line"/>
      <point x="165" y="404"/>
      <point x="197" y="423"/>
      <point x="232" y="423" type="curve" smooth="yes"/>
      <point x="289" y="423"/>
      <point x="318" y="384"/>
      <point x="318" y="349" type="curve" smooth="yes"/>
      <point x="318" y="313"/>
      <point x="291" y="289"/>
      <point x="245" y="289" type="curve" smooth="yes"/>
      <point x="196" y="289"/>
      <point x="151" y="325"/>
      <point x="149" y="402" type="curve"/>
      <point x="103" y="359" type="line"/>
      <point x="132" y="359" type="line"/>
      <point x="144" y="273"/>
      <point x="193" y="217"/>
      <point x="251" y="217" type="curve" smooth="yes"/>
      <point x="304" y="217"/>
      <point x="353" y="262"/>
      <point x="353" y="351" type="curve" smooth="yes"/>
      <point x="353" y="456"/>
      <point x="288" y="504"/>
      <point x="235" y="504" type="curve" smooth="yes"/>
      <point x="134" y="504"/>
      <point x="70" y="375"/>
      <point x="70" y="248" type="curve" smooth="yes"/>
      <point x="70" y="124"/>
      <point x="129" y="-15"/>
    </contour>
    <contour>
      <point x="335" y="435" type="line"/>
      <point x="301" y="509"/>
      <point x="228" y="528"/>
      <point x="228" y="610" type="curve" smooth="yes"/>
      <point x="228" y="642"/>
      <point x="239" y="677"/>
      <point x="289" y="700" type="curve"/>
      <point x="279" y="726" type="line"/>
      <point x="192" y="721"/>
      <point x="153" y="674"/>
      <point x="153" y="620" type="curve" smooth="yes"/>
      <point x="153" y="582"/>
      <point x="173" y="543"/>
      <point x="230" y="507" type="curve"/>
      <point x="226" y="495" type="line"/>
      <point x="303" y="435" type="line"/>
    </contour>
  </outline>
</glyph>
<glyph name="kDdha" format="2">
  <advance width="828"/>
  <unicode hex="0CA2"/>
  <outline>
    <contour>
      <point x="236" y="-15" type="curve" smooth="yes"/>
      <point x="313" y="-15"/>
      <point x="376" y="40"/>
      <point x="400" y="136" type="curve"/>
      <point x="420" y="136" type="line"/>
      <point x="410" y="244" type="line"/>
      <point x="394" y="244" type="line"/>
      <point x="380" y="147"/>
      <point x="321" y="96"/>
      <point x="248" y="96" type="curve" smooth="yes"/>
      <point x="177" y="96"/>
      <point x="127" y="143"/>
      <point x="127" y="220" type="curve" smooth="yes"/>
      <point x="127" y="351"/>
      <point x="271" y="463"/>
      <point x="412" y="463" type="curve" smooth="yes"/>
      <point x="488" y="463"/>
      <point x="626" y="422"/>
      <point x="626" y="320" type="curve" smooth="yes"/>
      <point x="626" y="279"/>
      <point x="592" y="260"/>
      <point x="560" y="260" type="curve" smooth="yes"/>
      <point x="529" y="260"/>
      <point x="502" y="277"/>
      <point x="502" y="305" type="curve" smooth="yes"/>
      <point x="502" y="334"/>
      <point x="531" y="361"/>
      <point x="577" y="361" type="curve" smooth="yes"/>
      <point x="645" y="361"/>
      <point x="707" y="301"/>
      <point x="707" y="219" type="curve" smooth="yes"/>
      <point x="707" y="155"/>
      <point x="667" y="94"/>
      <point x="577" y="94" type="curve" smooth="yes"/>
      <point x="482" y="94"/>
      <point x="423" y="162"/>
      <point x="410" y="244" type="curve"/>
      <point x="400" y="157" type="line"/>
      <point x="420" y="34"/>
      <point x="510" y="-15"/>
      <point x="588" y="-15" type="curve" smooth="yes"/>
      <point x="688" y="-15"/>
      <point x="758" y="66"/>
      <point x="758" y="173" type="curve" smooth="yes"/>
      <point x="758" y="319"/>
      <point x="660" y="395"/>
      <point x="572" y="395" type="curve" smooth="yes"/>
      <point x="513" y="395"/>
      <point x="462" y="361"/>
      <point x="462" y="295" type="curve" smooth="yes"/>
      <point x="462" y="229"/>
      <point x="514" y="191"/>
      <point x="566" y="191" type="curve" smooth="yes"/>
      <point x="615" y="191"/>
      <point x="664" y="225"/>
      <point x="664" y="301" type="curve" smooth="yes"/>
      <point x="664" y="429"/>
      <point x="549" y="492"/>
      <point x="394" y="492" type="curve" smooth="yes"/>
      <point x="195" y="492"/>
      <point x="70" y="318"/>
      <point x="70" y="180" type="curve" smooth="yes"/>
      <point x="70" y="71"/>
      <point x="140" y="-15"/>
    </contour>
    <contour>
      <point x="400" y="-200" type="curve" smooth="yes"/>
      <point x="432" y="-200"/>
      <point x="454" y="-173"/>
      <point x="454" y="-146" type="curve" smooth="yes"/>
      <point x="454" y="-111"/>
      <point x="439" y="-76"/>
      <point x="405" y="39" type="curve"/>
      <point x="398" y="39" type="line"/>
      <point x="362" y="-78"/>
      <point x="349" y="-115"/>
      <point x="349" y="-145" type="curve" smooth="yes"/>
      <point x="349" y="-174"/>
      <point x="368" y="-200"/>
    </contour>
    <contour>
      <point x="300" y="460" type="line"/>
      <point x="410" y="477" type="line"/>
      <point x="516" y="460" type="line"/>
      <point x="569" y="460" type="line" smooth="yes"/>
      <point x="735" y="460"/>
      <point x="758" y="546"/>
      <point x="758" y="602" type="curve" smooth="yes"/>
      <point x="758" y="665"/>
      <point x="728" y="713"/>
      <point x="681" y="747" type="curve"/>
      <point x="660" y="727" type="line"/>
      <point x="690" y="702"/>
      <point x="709" y="666"/>
      <point x="709" y="631" type="curve" smooth="yes"/>
      <point x="709" y="588"/>
      <point x="681" y="548"/>
      <point x="585" y="548" type="curve" smooth="yes"/>
      <point x="70" y="548" type="line"/>
      <point x="75" y="460" type="line"/>
    </contour>
  </outline>
</glyph>
<glyph name="kNna" format="2">
  <advance width="904"/>
  <unicode hex="0CA3"/>
  <outline>
    <contour>
      <point x="638" y="-15" type="curve" smooth="yes"/>
      <point x="760" y="-15"/>
      <point x="834" y="108"/>
      <point x="834" y="263" type="curve" smooth="yes"/>
      <point x="834" y="421"/>
      <point x="757" y="558"/>
      <point x="607" y="558" type="curve" smooth="yes"/>
      <point x="503" y="558"/>
      <point x="435" y="492"/>
      <point x="414" y="383" type="curve"/>
      <point x="424" y="293" type="line"/>
      <point x="439" y="400"/>
      <point x="512" y="460"/>
      <point x="609" y="460" type="curve" smooth="yes"/>
      <point x="734" y="460"/>
      <point x="796" y="360"/>
      <point x="796" y="257" type="curve" smooth="yes"/>
      <point x="796" y="165"/>
      <point x="746" y="81"/>
      <point x="632" y="81" type="curve" smooth="yes"/>
      <point x="553" y="81"/>
      <point x="523" y="121"/>
      <point x="523" y="160" type="curve" smooth="yes"/>
      <point x="523" y="202"/>
      <point x="557" y="236"/>
      <point x="612" y="236" type="curve" smooth="yes"/>
      <point x="639" y="236"/>
      <point x="666" y="228"/>
      <point x="692" y="207" type="curve"/>
      <point x="712" y="226" type="line"/>
      <point x="678" y="283"/>
      <point x="642" y="300"/>
      <point x="604" y="300" type="curve" smooth="yes"/>
      <point x="530" y="300"/>
      <point x="485" y="234"/>
      <point x="485" y="156" type="curve" smooth="yes"/>
      <point x="485" y="76"/>
      <point x="533" y="-15"/>
    </contour>
    <contour>
      <point x="213" y="-15" type="curve" smooth="yes"/>
      <point x="288" y="-15"/>
      <point x="348" y="40"/>
      <point x="390" y="123" type="curve"/>
      <point x="369" y="139" type="line"/>
      <point x="321" y="93"/>
      <point x="268" y="74"/>
      <point x="226" y="74" type="curve" smooth="yes"/>
      <point x="170" y="74"/>
      <point x="142" y="107"/>
      <point x="142" y="146" type="curve" smooth="yes"/>
      <point x="142" y="181"/>
      <point x="165" y="232"/>
      <point x="240" y="252" type="curve"/>
      <point x="189" y="270" type="line"/>
      <point x="107" y="242"/>
      <point x="74" y="176"/>
      <point x="74" y="120" type="curve" smooth="yes"/>
      <point x="74" y="42"/>
      <point x="136" y="-15"/>
    </contour>
    <contour>
      <point x="240" y="252" type="line"/>
      <point x="235" y="285" type="line"/>
      <point x="167" y="291"/>
      <point x="135" y="332"/>
      <point x="135" y="373" type="curve" smooth="yes"/>
      <point x="135" y="416"/>
      <point x="171" y="460"/>
      <point x="249" y="460" type="curve" smooth="yes"/>
      <point x="335" y="460"/>
      <point x="388" y="406"/>
      <point x="408" y="293" type="curve"/>
      <point x="424" y="293" type="line"/>
      <point x="434" y="401" type="line"/>
      <point x="414" y="401" type="line"/>
      <point x="387" y="504"/>
      <point x="325" y="558"/>
      <point x="236" y="558" type="curve" smooth="yes"/>
      <point x="129" y="558"/>
      <point x="72" y="480"/>
      <point x="72" y="403" type="curve" smooth="yes"/>
      <point x="72" y="348"/>
      <point x="101" y="288"/>
      <point x="171" y="266" type="curve"/>
      <point x="171" y="247" type="line"/>
    </contour>
  </outline>
</glyph>
<glyph name="kTha" format="2">
  <advance width="798"/>
  <unicode hex="0CA5"/>
  <outline>
    <contour>
      <point x="236" y="-15" type="curve" smooth="yes"/>
      <point x="313" y="-15"/>
      <point x="376" y="40"/>
      <point x="400" y="136" type="curve"/>
      <point x="420" y="136" type="line"/>
      <point x="410" y="234" type="line"/>
      <point x="394" y="234" type="line"/>
      <point x="377" y="146"/>
      <point x="321" y="96"/>
      <point x="248" y="96" type="curve" smooth="yes"/>
      <point x="177" y="96"/>
      <point x="127" y="143"/>
      <point x="127" y="220" type="curve" smooth="yes"/>
      <point x="127" y="351"/>
      <point x="276" y="463"/>
      <point x="402" y="463" type="curve" smooth="yes"/>
      <point x="535" y="463"/>
      <point x="677" y="338"/>
      <point x="677" y="222" type="curve" smooth="yes"/>
      <point x="677" y="158"/>
      <point x="635" y="96"/>
      <point x="556" y="96" type="curve" smooth="yes"/>
      <point x="474" y="96"/>
      <point x="424" y="160"/>
      <point x="410" y="234" type="curve"/>
      <point x="400" y="158" type="line"/>
      <point x="418" y="34"/>
      <point x="499" y="-15"/>
      <point x="568" y="-15" type="curve" smooth="yes"/>
      <point x="649" y="-15"/>
      <point x="731" y="50"/>
      <point x="731" y="173" type="curve" smooth="yes"/>
      <point x="731" y="340"/>
      <point x="579" y="497"/>
      <point x="402" y="497" type="curve" smooth="yes"/>
      <point x="214" y="497"/>
      <point x="70" y="335"/>
      <point x="70" y="180" type="curve" smooth="yes"/>
      <point x="70" y="71"/>
      <point x="140" y="-15"/>
    </contour>
    <contour>
      <point x="400" y="-200" type="curve" smooth="yes"/>
      <point x="432" y="-200"/>
      <point x="454" y="-173"/>
      <point x="454" y="-146" type="curve" smooth="yes"/>
      <point x="454" y="-111"/>
      <point x="439" y="-76"/>
      <point x="405" y="39" type="curve"/>
      <point x="398" y="39" type="line"/>
      <point x="362" y="-78"/>
      <point x="349" y="-115"/>
      <point x="349" y="-145" type="curve" smooth="yes"/>
      <point x="349" y="-174"/>
      <point x="368" y="-200"/>
    </contour>
    <contour>
      <point x="400" y="267" type="curve" smooth="yes"/>
      <point x="433" y="267"/>
      <point x="459" y="295"/>
      <point x="459" y="328" type="curve" smooth="yes"/>
      <point x="459" y="361"/>
      <point x="433" y="388"/>
      <point x="400" y="388" type="curve" smooth="yes"/>
      <point x="367" y="388"/>
      <point x="340" y="361"/>
      <point x="340" y="328" type="curve" smooth="yes"/>
      <point x="340" y="295"/>
      <point x="367" y="267"/>
    </contour>
    <contour>
      <point x="287" y="460" type="line"/>
      <point x="404" y="482" type="line"/>
      <point x="529" y="460" type="line"/>
      <point x="547" y="460" type="line"/>
      <point x="705" y="460"/>
      <point x="731" y="545"/>
      <point x="731" y="602" type="curve" smooth="yes"/>
      <point x="731" y="665"/>
      <point x="701" y="713"/>
      <point x="654" y="747" type="curve"/>
      <point x="633" y="727" type="line"/>
      <point x="663" y="702"/>
      <point x="682" y="666"/>
      <point x="682" y="631" type="curve" smooth="yes"/>
      <point x="682" y="588"/>
      <point x="654" y="548"/>
      <point x="558" y="548" type="curve" smooth="yes"/>
      <point x="70" y="548" type="line"/>
      <point x="75" y="460" type="line"/>
    </contour>
  </outline>
</glyph>
<glyph name="kDa" format="2">
  <advance width="800"/>
  <unicode hex="0CA6"/>
  <outline>
    <contour>
      <point x="236" y="-15" type="curve" smooth="yes"/>
      <point x="313" y="-15"/>
      <point x="376" y="40"/>
      <point x="400" y="136" type="curve"/>
      <point x="420" y="136" type="line"/>
      <point x="410" y="244" type="line"/>
      <point x="394" y="244" type="line"/>
      <point x="380" y="147"/>
      <point x="321" y="96"/>
      <point x="248" y="96" type="curve" smooth="yes"/>
      <point x="177" y="96"/>
      <point x="127" y="143"/>
      <point x="127" y="220" type="curve" smooth="yes"/>
      <point x="127" y="351"/>
      <point x="276" y="464"/>
      <point x="402" y="464" type="curve" smooth="yes"/>
      <point x="535" y="464"/>
      <point x="677" y="338"/>
      <point x="677" y="222" type="curve" smooth="yes"/>
      <point x="677" y="158"/>
      <point x="635" y="96"/>
      <point x="556" y="96" type="curve" smooth="yes"/>
      <point x="474" y="96"/>
      <point x="421" y="162"/>
      <point x="410" y="244" type="curve"/>
      <point x="400" y="158" type="line"/>
      <point x="418" y="34"/>
      <point x="499" y="-15"/>
      <point x="568" y="-15" type="curve" smooth="yes"/>
      <point x="649" y="-15"/>
      <point x="731" y="50"/>
      <point x="731" y="173" type="curve" smooth="yes"/>
      <point x="731" y="341"/>
      <point x="581" y="497"/>
      <point x="402" y="497" type="curve" smooth="yes"/>
      <point x="212" y="497"/>
      <point x="70" y="335"/>
      <point x="70" y="180" type="curve" smooth="yes"/>
      <point x="70" y="71"/>
      <point x="140" y="-15"/>
    </contour>
    <contour>
      <point x="287" y="460" type="line"/>
      <point x="404" y="482" type="line"/>
      <point x="544" y="460" type="line"/>
      <point x="702" y="460"/>
      <point x="730" y="543"/>
      <point x="730" y="602" type="curve" smooth="yes"/>
      <point x="730" y="665"/>
      <point x="700" y="713"/>
      <point x="653" y="747" type="curve"/>
      <point x="632" y="727" type="line"/>
      <point x="662" y="702"/>
      <point x="681" y="666"/>
      <point x="681" y="631" type="curve" smooth="yes"/>
      <point x="681" y="588"/>
      <point x="653" y="548"/>
      <point x="557" y="548" type="curve" smooth="yes"/>
      <point x="70" y="548" type="line"/>
      <point x="75" y="460" type="line"/>
    </contour>
  </outline>
</glyph>
<glyph name="kDha" format="2">
  <advance width="800"/>
  <unicode hex="0CA7"/>
  <outline>
    <contour>
      <point x="236" y="-15" type="curve" smooth="yes"/>
      <point x="313" y="-15"/>
      <point x="376" y="40"/>
      <point x="400" y="136" type="curve"/>
      <point x="420" y="136" type="line"/>
      <point x="410" y="244" type="line"/>
      <point x="394" y="244" type="line"/>
      <point x="380" y="147"/>
      <point x="321" y="96"/>
      <point x="248" y="96" type="curve" smooth="yes"/>
      <point x="177" y="96"/>
      <point x="127" y="143"/>
      <point x="127" y="220" type="curve" smooth="yes"/>
      <point x="127" y="351"/>
      <point x="276" y="464"/>
      <point x="402" y="464" type="curve" smooth="yes"/>
      <point x="535" y="464"/>
      <point x="677" y="338"/>
      <point x="677" y="222" type="curve" smooth="yes"/>
      <point x="677" y="158"/>
      <point x="635" y="96"/>
      <point x="556" y="96" type="curve" smooth="yes"/>
      <point x="474" y="96"/>
      <point x="421" y="162"/>
      <point x="410" y="244" type="curve"/>
      <point x="400" y="158" type="line"/>
      <point x="418" y="34"/>
      <point x="499" y="-15"/>
      <point x="568" y="-15" type="curve" smooth="yes"/>
      <point x="649" y="-15"/>
      <point x="731" y="50"/>
      <point x="731" y="173" type="curve" smooth="yes"/>
      <point x="731" y="341"/>
      <point x="581" y="497"/>
      <point x="402" y="497" type="curve" smooth="yes"/>
      <point x="212" y="497"/>
      <point x="70" y="335"/>
      <point x="70" y="180" type="curve" smooth="yes"/>
      <point x="70" y="71"/>
      <point x="140" y="-15"/>
    </contour>
    <contour>
      <point x="400" y="-200" type="curve" smooth="yes"/>
      <point x="432" y="-200"/>
      <point x="454" y="-173"/>
      <point x="454" y="-146" type="curve" smooth="yes"/>
      <point x="454" y="-111"/>
      <point x="439" y="-76"/>
      <point x="405" y="39" type="curve"/>
      <point x="398" y="39" type="line"/>
      <point x="362" y="-78"/>
      <point x="349" y="-115"/>
      <point x="349" y="-145" type="curve" smooth="yes"/>
      <point x="349" y="-174"/>
      <point x="368" y="-200"/>
    </contour>
    <contour>
      <point x="287" y="460" type="line"/>
      <point x="404" y="482" type="line"/>
      <point x="544" y="460" type="line"/>
      <point x="703" y="460"/>
      <point x="731" y="543"/>
      <point x="731" y="602" type="curve" smooth="yes"/>
      <point x="731" y="665"/>
      <point x="701" y="713"/>
      <point x="654" y="747" type="curve"/>
      <point x="633" y="727" type="line"/>
      <point x="663" y="702"/>
      <point x="682" y="666"/>
      <point x="682" y="631" type="curve" smooth="yes"/>
      <point x="682" y="588"/>
      <point x="654" y="548"/>
      <point x="557" y="548" type="curve" smooth="yes"/>
      <point x="70" y="548" type="line"/>
      <point x="75" y="460" type="line"/>
    </contour>
  </outline>
</glyph>
<glyph name="kNa" format="2">
  <advance width="697"/>
  <unicode hex="0CA8"/>
  <outline>
    <contour>
      <point x="223" y="-101" type="line"/>
      <point x="163" y="-47"/>
      <point x="127" y="25"/>
      <point x="127" y="88" type="curve" smooth="yes"/>
      <point x="127" y="150"/>
      <point x="161" y="192"/>
      <point x="224" y="192" type="curve" smooth="yes"/>
      <point x="365" y="192"/>
      <point x="364" y="-15"/>
      <point x="494" y="-15" type="curve" smooth="yes"/>
      <point x="581" y="-15"/>
      <point x="625" y="76"/>
      <point x="625" y="179" type="curve" smooth="yes"/>
      <point x="625" y="327"/>
      <point x="533" y="416"/>
      <point x="462" y="460" type="curve"/>
      <point x="476" y="486" type="line"/>
      <point x="311" y="460" type="line"/>
      <point x="463" y="460"/>
      <point x="572" y="333"/>
      <point x="572" y="213" type="curve" smooth="yes"/>
      <point x="572" y="157"/>
      <point x="548" y="96"/>
      <point x="474" y="96" type="curve" smooth="yes"/>
      <point x="340" y="96"/>
      <point x="334" y="294"/>
      <point x="203" y="294" type="curve" smooth="yes"/>
      <point x="119" y="294"/>
      <point x="68" y="215"/>
      <point x="68" y="122" type="curve" smooth="yes"/>
      <point x="68" y="38"/>
      <point x="109" y="-51"/>
      <point x="195" y="-129" type="curve"/>
    </contour>
    <contour>
      <point x="311" y="460" type="line"/>
      <point x="455" y="462" type="line"/>
      <point x="575" y="462"/>
      <point x="625" y="523"/>
      <point x="625" y="602" type="curve" smooth="yes"/>
      <point x="625" y="661"/>
      <point x="598" y="711"/>
      <point x="548" y="747" type="curve"/>
      <point x="527" y="727" type="line"/>
      <point x="557" y="702"/>
      <point x="576" y="666"/>
      <point x="576" y="631" type="curve" smooth="yes"/>
      <point x="576" y="588"/>
      <point x="548" y="548"/>
      <point x="452" y="548" type="curve" smooth="yes"/>
      <point x="74" y="548" type="line"/>
      <point x="79" y="460" type="line"/>
    </contour>
  </outline>
</glyph>
<glyph name="kPha" format="2">
  <advance width="820"/>
  <unicode hex="0CAB"/>
  <outline>
    <contour>
      <point x="561" y="460" type="line" smooth="yes"/>
      <point x="727" y="460"/>
      <point x="750" y="546"/>
      <point x="750" y="602" type="curve" smooth="yes"/>
      <point x="750" y="665"/>
      <point x="720" y="713"/>
      <point x="673" y="747" type="curve"/>
      <point x="652" y="727" type="line"/>
      <point x="682" y="702"/>
      <point x="701" y="666"/>
      <point x="701" y="631" type="curve" smooth="yes"/>
      <point x="701" y="588"/>
      <point x="673" y="548"/>
      <point x="577" y="548" type="curve" smooth="yes"/>
      <point x="95" y="548" type="line"/>
      <point x="100" y="460" type="line"/>
    </contour>
    <contour>
      <point x="425" y="-200" type="curve" smooth="yes"/>
      <point x="457" y="-200"/>
      <point x="479" y="-173"/>
      <point x="479" y="-146" type="curve" smooth="yes"/>
      <point x="479" y="-111"/>
      <point x="464" y="-76"/>
      <point x="430" y="39" type="curve"/>
      <point x="423" y="39" type="line"/>
      <point x="387" y="-78"/>
      <point x="374" y="-115"/>
      <point x="374" y="-145" type="curve" smooth="yes"/>
      <point x="374" y="-174"/>
      <point x="393" y="-200"/>
    </contour>
    <contour>
      <point x="243" y="-15" type="curve" smooth="yes"/>
      <point x="330" y="-15"/>
      <point x="401" y="43"/>
      <point x="425" y="142" type="curve"/>
      <point x="445" y="142" type="line"/>
      <point x="435" y="244" type="line"/>
      <point x="419" y="244" type="line"/>
      <point x="403" y="141"/>
      <point x="335" y="94"/>
      <point x="240" y="94" type="curve" smooth="yes"/>
      <point x="143" y="94"/>
      <point x="107" y="143"/>
      <point x="107" y="191" type="curve" smooth="yes"/>
      <point x="107" y="237"/>
      <point x="141" y="281"/>
      <point x="193" y="281" type="curve" smooth="yes"/>
      <point x="234" y="281"/>
      <point x="262" y="254"/>
      <point x="262" y="222" type="curve" smooth="yes"/>
      <point x="262" y="206"/>
      <point x="255" y="188"/>
      <point x="241" y="173" type="curve"/>
      <point x="261" y="158" type="line"/>
      <point x="300" y="186"/>
      <point x="323" y="224"/>
      <point x="323" y="263" type="curve" smooth="yes"/>
      <point x="323" y="321"/>
      <point x="273" y="360"/>
      <point x="212" y="360" type="curve" smooth="yes"/>
      <point x="124" y="360"/>
      <point x="70" y="279"/>
      <point x="70" y="187" type="curve" smooth="yes"/>
      <point x="70" y="98"/>
      <point x="121" y="-15"/>
    </contour>
    <contour>
      <point x="425" y="291" type="curve" smooth="yes"/>
      <point x="458" y="291"/>
      <point x="484" y="319"/>
      <point x="484" y="352" type="curve" smooth="yes"/>
      <point x="484" y="385"/>
      <point x="458" y="412"/>
      <point x="425" y="412" type="curve" smooth="yes"/>
      <point x="392" y="412"/>
      <point x="365" y="385"/>
      <point x="365" y="352" type="curve" smooth="yes"/>
      <point x="365" y="319"/>
      <point x="392" y="291"/>
    </contour>
    <contour>
      <point x="593" y="-15" type="curve" smooth="yes"/>
      <point x="690" y="-15"/>
      <point x="751" y="68"/>
      <point x="751" y="174" type="curve" smooth="yes"/>
      <point x="751" y="253"/>
      <point x="717" y="331"/>
      <point x="660" y="398" type="curve"/>
      <point x="628" y="376" type="line"/>
      <point x="670" y="329"/>
      <point x="696" y="269"/>
      <point x="696" y="215" type="curve" smooth="yes"/>
      <point x="696" y="145"/>
      <point x="653" y="96"/>
      <point x="581" y="96" type="curve" smooth="yes"/>
      <point x="493" y="96"/>
      <point x="445" y="170"/>
      <point x="435" y="244" type="curve"/>
      <point x="425" y="164" type="line"/>
      <point x="445" y="38"/>
      <point x="515" y="-15"/>
    </contour>
  </outline>
</glyph>
<glyph name="kBa" format="2">
  <advance width="793"/>
  <unicode hex="0CAC"/>
  <outline>
    <contour>
      <point x="231" y="-15" type="curve" smooth="yes"/>
      <point x="311" y="-15"/>
      <point x="379" y="39"/>
      <point x="405" y="136" type="curve"/>
      <point x="425" y="136" type="line"/>
      <point x="415" y="244" type="line"/>
      <point x="399" y="244" type="line"/>
      <point x="383" y="145"/>
      <point x="322" y="96"/>
      <point x="238" y="96" type="curve" smooth="yes"/>
      <point x="163" y="96"/>
      <point x="135" y="136"/>
      <point x="135" y="178" type="curve" smooth="yes"/>
      <point x="135" y="279"/>
      <point x="300" y="306"/>
      <point x="300" y="430" type="curve" smooth="yes"/>
      <point x="300" y="502"/>
      <point x="253" y="558"/>
      <point x="174" y="558" type="curve" smooth="yes"/>
      <point x="104" y="558"/>
      <point x="38" y="513"/>
      <point x="38" y="444" type="curve" smooth="yes"/>
      <point x="38" y="414"/>
      <point x="49" y="378"/>
      <point x="73" y="340" type="curve"/>
      <point x="97" y="348" type="line"/>
      <point x="88" y="367"/>
      <point x="84" y="384"/>
      <point x="84" y="399" type="curve" smooth="yes"/>
      <point x="84" y="447"/>
      <point x="125" y="471"/>
      <point x="172" y="471" type="curve" smooth="yes"/>
      <point x="225" y="471"/>
      <point x="247" y="440"/>
      <point x="247" y="408" type="curve" smooth="yes"/>
      <point x="247" y="318"/>
      <point x="79" y="287"/>
      <point x="79" y="142" type="curve" smooth="yes"/>
      <point x="79" y="54"/>
      <point x="142" y="-15"/>
    </contour>
    <contour>
      <point x="576" y="-15" type="curve" smooth="yes"/>
      <point x="675" y="-15"/>
      <point x="728" y="69"/>
      <point x="728" y="181" type="curve" smooth="yes"/>
      <point x="728" y="383"/>
      <point x="557" y="531"/>
      <point x="508" y="531" type="curve" smooth="yes"/>
      <point x="494" y="531"/>
      <point x="485" y="519"/>
      <point x="485" y="502" type="curve" smooth="yes"/>
      <point x="485" y="487"/>
      <point x="492" y="470"/>
      <point x="503" y="462" type="curve"/>
      <point x="633" y="415"/>
      <point x="678" y="310"/>
      <point x="678" y="229" type="curve" smooth="yes"/>
      <point x="678" y="154"/>
      <point x="640" y="96"/>
      <point x="562" y="96" type="curve" smooth="yes"/>
      <point x="484" y="96"/>
      <point x="428" y="153"/>
      <point x="415" y="244" type="curve"/>
      <point x="405" y="158" type="line"/>
      <point x="424" y="36"/>
      <point x="500" y="-15"/>
    </contour>
  </outline>
</glyph>
<glyph name="kBha" format="2">
  <advance width="802"/>
  <unicode hex="0CAD"/>
  <outline>
    <contour>
      <point x="231" y="-15" type="curve" smooth="yes"/>
      <point x="311" y="-15"/>
      <point x="379" y="39"/>
      <point x="405" y="136" type="curve"/>
      <point x="425" y="136" type="line"/>
      <point x="415" y="244" type="line"/>
      <point x="399" y="244" type="line"/>
      <point x="383" y="145"/>
      <point x="322" y="96"/>
      <point x="238" y="96" type="curve" smooth="yes"/>
      <point x="163" y="96"/>
      <point x="135" y="136"/>
      <point x="135" y="178" type="curve" smooth="yes"/>
      <point x="135" y="279"/>
      <point x="300" y="306"/>
      <point x="300" y="430" type="curve" smooth="yes"/>
      <point x="300" y="502"/>
      <point x="253" y="558"/>
      <point x="174" y="558" type="curve" smooth="yes"/>
      <point x="104" y="558"/>
      <point x="38" y="513"/>
      <point x="38" y="444" type="curve" smooth="yes"/>
      <point x="38" y="414"/>
      <point x="49" y="378"/>
      <point x="73" y="340" type="curve"/>
      <point x="97" y="348" type="line"/>
      <point x="88" y="367"/>
      <point x="84" y="384"/>
      <point x="84" y="399" type="curve" smooth="yes"/>
      <point x="84" y="447"/>
      <point x="125" y="471"/>
      <point x="172" y="471" type="curve" smooth="yes"/>
      <point x="225" y="471"/>
      <point x="247" y="440"/>
      <point x="247" y="408" type="curve" smooth="yes"/>
      <point x="247" y="318"/>
      <point x="79" y="287"/>
      <point x="79" y="142" type="curve" smooth="yes"/>
      <point x="79" y="54"/>
      <point x="142" y="-15"/>
    </contour>
    <contour>
      <point x="405" y="-200" type="curve" smooth="yes"/>
      <point x="437" y="-200"/>
      <point x="459" y="-173"/>
      <point x="459" y="-146" type="curve" smooth="yes"/>
      <point x="459" y="-111"/>
      <point x="444" y="-76"/>
      <point x="410" y="39" type="curve"/>
      <point x="403" y="39" type="line"/>
      <point x="367" y="-78"/>
      <point x="354" y="-115"/>
      <point x="354" y="-145" type="curve" smooth="yes"/>
      <point x="354" y="-174"/>
      <point x="373" y="-200"/>
    </contour>
    <contour>
      <point x="576" y="-15" type="curve" smooth="yes"/>
      <point x="673" y="-15"/>
      <point x="728" y="69"/>
      <point x="728" y="181" type="curve" smooth="yes"/>
      <point x="728" y="378"/>
      <point x="589" y="473"/>
      <point x="556" y="490" type="curve"/>
      <point x="462" y="460" type="line"/>
      <point x="593" y="460"/>
      <point x="678" y="338"/>
      <point x="678" y="227" type="curve" smooth="yes"/>
      <point x="678" y="152"/>
      <point x="640" y="96"/>
      <point x="562" y="96" type="curve" smooth="yes"/>
      <point x="484" y="96"/>
      <point x="428" y="153"/>
      <point x="415" y="244" type="curve"/>
      <point x="405" y="159" type="line"/>
      <point x="423" y="36"/>
      <point x="499" y="-15"/>
    </contour>
    <contour>
      <point x="528" y="469" type="line"/>
      <point x="546" y="460" type="line"/>
      <point x="715" y="460"/>
      <point x="735" y="547"/>
      <point x="735" y="602" type="curve" smooth="yes"/>
      <point x="735" y="665"/>
      <point x="705" y="713"/>
      <point x="658" y="747" type="curve"/>
      <point x="637" y="727" type="line"/>
      <point x="667" y="702"/>
      <point x="686" y="666"/>
      <point x="686" y="631" type="curve" smooth="yes"/>
      <point x="686" y="588"/>
      <point x="658" y="548"/>
      <point x="564" y="548" type="curve" smooth="yes"/>
      <point x="391" y="548" type="line"/>
      <point x="396" y="460" type="line"/>
      <point x="462" y="460" type="line"/>
    </contour>
  </outline>
</glyph>
<glyph name="kMa" format="2">
  <advance width="1146"/>
  <unicode hex="0CAE"/>
  <outline>
    <contour>
      <point x="930" y="-15" type="curve" smooth="yes"/>
      <point x="1035" y="-15"/>
      <point x="1081" y="83"/>
      <point x="1081" y="185" type="curve" smooth="yes"/>
      <point x="1081" y="385"/>
      <point x="906" y="533"/>
      <point x="856" y="533" type="curve" smooth="yes"/>
      <point x="842" y="533"/>
      <point x="833" y="521"/>
      <point x="833" y="504" type="curve" smooth="yes"/>
      <point x="833" y="489"/>
      <point x="840" y="472"/>
      <point x="851" y="464" type="curve"/>
      <point x="980" y="419"/>
      <point x="1031" y="318"/>
      <point x="1031" y="232" type="curve" smooth="yes"/>
      <point x="1031" y="158"/>
      <point x="993" y="96"/>
      <point x="911" y="96" type="curve" smooth="yes"/>
      <point x="841" y="96"/>
      <point x="785" y="144"/>
      <point x="747" y="231" type="curve"/>
      <point x="727" y="144" type="line"/>
      <point x="756" y="144" type="line"/>
      <point x="791" y="36"/>
      <point x="856" y="-15"/>
    </contour>
    <contour>
      <point x="243" y="-15" type="curve" smooth="yes"/>
      <point x="332" y="-15"/>
      <point x="401" y="49"/>
      <point x="425" y="146" type="curve"/>
      <point x="445" y="146" type="line"/>
      <point x="435" y="254" type="line"/>
      <point x="419" y="254" type="line"/>
      <point x="403" y="147"/>
      <point x="337" y="94"/>
      <point x="239" y="94" type="curve" smooth="yes"/>
      <point x="143" y="94"/>
      <point x="107" y="143"/>
      <point x="107" y="191" type="curve" smooth="yes"/>
      <point x="107" y="237"/>
      <point x="141" y="281"/>
      <point x="193" y="281" type="curve" smooth="yes"/>
      <point x="234" y="281"/>
      <point x="262" y="254"/>
      <point x="262" y="222" type="curve" smooth="yes"/>
      <point x="262" y="206"/>
      <point x="255" y="188"/>
      <point x="241" y="173" type="curve"/>
      <point x="261" y="158" type="line"/>
      <point x="300" y="187"/>
      <point x="324" y="225"/>
      <point x="324" y="266" type="curve" smooth="yes"/>
      <point x="324" y="324"/>
      <point x="273" y="363"/>
      <point x="212" y="363" type="curve" smooth="yes"/>
      <point x="124" y="363"/>
      <point x="70" y="281"/>
      <point x="70" y="189" type="curve" smooth="yes"/>
      <point x="70" y="98"/>
      <point x="122" y="-15"/>
    </contour>
    <contour>
      <point x="601" y="-15" type="curve" smooth="yes"/>
      <point x="703" y="-15"/>
      <point x="756" y="80"/>
      <point x="756" y="185" type="curve" smooth="yes"/>
      <point x="756" y="326"/>
      <point x="677" y="421"/>
      <point x="623" y="463" type="curve"/>
      <point x="634" y="486" type="line"/>
      <point x="490" y="460" type="line"/>
      <point x="621" y="460"/>
      <point x="706" y="337"/>
      <point x="706" y="228" type="curve" smooth="yes"/>
      <point x="706" y="155"/>
      <point x="670" y="96"/>
      <point x="587" y="96" type="curve" smooth="yes"/>
      <point x="499" y="96"/>
      <point x="447" y="164"/>
      <point x="435" y="254" type="curve"/>
      <point x="424" y="180" type="line"/>
      <point x="438" y="45"/>
      <point x="517" y="-15"/>
    </contour>
    <contour>
      <point x="489" y="460" type="line"/>
      <point x="542" y="465" type="line"/>
      <point x="555" y="460" type="line"/>
      <point x="695" y="460"/>
      <point x="755" y="509"/>
      <point x="755" y="602" type="curve" smooth="yes"/>
      <point x="755" y="661"/>
      <point x="728" y="711"/>
      <point x="678" y="747" type="curve"/>
      <point x="657" y="727" type="line"/>
      <point x="687" y="702"/>
      <point x="706" y="666"/>
      <point x="706" y="631" type="curve" smooth="yes"/>
      <point x="706" y="588"/>
      <point x="678" y="548"/>
      <point x="582" y="548" type="curve" smooth="yes"/>
      <point x="95" y="548" type="line"/>
      <point x="100" y="460" type="line"/>
    </contour>
  </outline>
</glyph>
<glyph name="kYa" format="2">
  <advance width="1261"/>
  <unicode hex="0CAF"/>
  <outline>
    <contour>
      <point x="299" y="-15" type="curve" smooth="yes"/>
      <point x="433" y="-15"/>
      <point x="514" y="105"/>
      <point x="514" y="259" type="curve" smooth="yes"/>
      <point x="514" y="399"/>
      <point x="444" y="558"/>
      <point x="287" y="558" type="curve" smooth="yes"/>
      <point x="140" y="558"/>
      <point x="70" y="420"/>
      <point x="70" y="281" type="curve" smooth="yes"/>
      <point x="70" y="134"/>
      <point x="148" y="-15"/>
    </contour>
    <contour>
      <point x="291" y="96" type="curve" smooth="yes"/>
      <point x="182" y="96"/>
      <point x="108" y="171"/>
      <point x="108" y="276" type="curve" smooth="yes"/>
      <point x="108" y="389"/>
      <point x="193" y="460"/>
      <point x="292" y="460" type="curve" smooth="yes"/>
      <point x="396" y="460"/>
      <point x="476" y="380"/>
      <point x="476" y="271" type="curve" smooth="yes"/>
      <point x="476" y="160"/>
      <point x="394" y="96"/>
    </contour>
    <contour>
      <point x="715" y="-15" type="curve" smooth="yes"/>
      <point x="822" y="-15"/>
      <point x="871" y="85"/>
      <point x="871" y="188" type="curve" smooth="yes"/>
      <point x="871" y="326"/>
      <point x="790" y="422"/>
      <point x="738" y="463" type="curve"/>
      <point x="738" y="483" type="line"/>
      <point x="611" y="460" type="line"/>
      <point x="730" y="460"/>
      <point x="821" y="347"/>
      <point x="821" y="232" type="curve" smooth="yes"/>
      <point x="821" y="155"/>
      <point x="780" y="96"/>
      <point x="693" y="96" type="curve" smooth="yes"/>
      <point x="612" y="96"/>
      <point x="544" y="147"/>
      <point x="506" y="260" type="curve"/>
      <point x="486" y="175" type="line"/>
      <point x="510" y="175" type="line"/>
      <point x="545" y="54"/>
      <point x="626" y="-15"/>
    </contour>
    <contour>
      <point x="1045" y="-15" type="curve" smooth="yes"/>
      <point x="1150" y="-15"/>
      <point x="1196" y="83"/>
      <point x="1196" y="185" type="curve" smooth="yes"/>
      <point x="1196" y="385"/>
      <point x="1021" y="533"/>
      <point x="971" y="533" type="curve" smooth="yes"/>
      <point x="957" y="533"/>
      <point x="948" y="521"/>
      <point x="948" y="504" type="curve" smooth="yes"/>
      <point x="948" y="489"/>
      <point x="955" y="472"/>
      <point x="966" y="464" type="curve"/>
      <point x="1095" y="419"/>
      <point x="1146" y="318"/>
      <point x="1146" y="232" type="curve" smooth="yes"/>
      <point x="1146" y="158"/>
      <point x="1108" y="96"/>
      <point x="1026" y="96" type="curve" smooth="yes"/>
      <point x="950" y="96"/>
      <point x="885" y="158"/>
      <point x="851" y="261" type="curve"/>
      <point x="844" y="144" type="line"/>
      <point x="872" y="144" type="line"/>
      <point x="907" y="36"/>
      <point x="971" y="-15"/>
    </contour>
    <contour>
      <point x="611" y="460" type="line"/>
      <point x="699" y="462" type="line" smooth="yes"/>
      <point x="849" y="465"/>
      <point x="870" y="549"/>
      <point x="870" y="601" type="curve" smooth="yes"/>
      <point x="870" y="665"/>
      <point x="840" y="713"/>
      <point x="793" y="747" type="curve"/>
      <point x="772" y="727" type="line"/>
      <point x="802" y="702"/>
      <point x="821" y="666"/>
      <point x="821" y="631" type="curve" smooth="yes"/>
      <point x="821" y="588"/>
      <point x="793" y="548"/>
      <point x="697" y="548" type="curve" smooth="yes"/>
      <point x="546" y="548" type="line"/>
      <point x="551" y="460" type="line"/>
    </contour>
  </outline>
</glyph>
<glyph name="kRa" format="2">
  <advance width="640"/>
  <unicode hex="0CB0"/>
  <outline>
    <contour>
      <point x="323" y="-15" type="curve" smooth="yes"/>
      <point x="459" y="-15"/>
      <point x="564" y="97"/>
      <point x="564" y="242" type="curve" smooth="yes"/>
      <point x="564" y="357"/>
      <point x="494" y="493"/>
      <point x="318" y="493" type="curve" smooth="yes"/>
      <point x="169" y="493"/>
      <point x="76" y="377"/>
      <point x="76" y="242" type="curve" smooth="yes"/>
      <point x="76" y="93"/>
      <point x="184" y="-15"/>
    </contour>
    <contour>
      <point x="321" y="96" type="curve" smooth="yes"/>
      <point x="205" y="96"/>
      <point x="129" y="172"/>
      <point x="129" y="276" type="curve" smooth="yes"/>
      <point x="129" y="381"/>
      <point x="220" y="463"/>
      <point x="322" y="463" type="curve" smooth="yes"/>
      <point x="430" y="463"/>
      <point x="512" y="378"/>
      <point x="512" y="275" type="curve" smooth="yes"/>
      <point x="512" y="171"/>
      <point x="428" y="96"/>
    </contour>
    <contour>
      <point x="207" y="460" type="line"/>
      <point x="318" y="482" type="line"/>
      <point x="417" y="460" type="line"/>
      <point x="563" y="468"/>
      <point x="584" y="548"/>
      <point x="584" y="602" type="curve" smooth="yes"/>
      <point x="584" y="665"/>
      <point x="554" y="713"/>
      <point x="507" y="747" type="curve"/>
      <point x="486" y="727" type="line"/>
      <point x="516" y="702"/>
      <point x="535" y="666"/>
      <point x="535" y="631" type="curve" smooth="yes"/>
      <point x="535" y="588"/>
      <point x="507" y="548"/>
      <point x="411" y="548" type="curve" smooth="yes"/>
      <point x="56" y="548" type="line"/>
      <point x="61" y="460" type="line"/>
    </contour>
  </outline>
</glyph>
<glyph name="kRra" format="2">
  <advance width="851"/>
  <unicode hex="0CB1"/>
  <outline>
    <contour>
      <point x="264" y="-15" type="curve" smooth="yes"/>
      <point x="342" y="-15"/>
      <point x="400" y="36"/>
      <point x="430" y="125" type="curve"/>
      <point x="450" y="125" type="line"/>
      <point x="440" y="226" type="line"/>
      <point x="424" y="226" type="line"/>
      <point x="409" y="152"/>
      <point x="359" y="96"/>
      <point x="267" y="96" type="curve" smooth="yes"/>
      <point x="158" y="96"/>
      <point x="104" y="174"/>
      <point x="104" y="281" type="curve" smooth="yes"/>
      <point x="104" y="399"/>
      <point x="170" y="478"/>
      <point x="245" y="478" type="curve" smooth="yes"/>
      <point x="284" y="478"/>
      <point x="309" y="457"/>
      <point x="309" y="425" type="curve" smooth="yes"/>
      <point x="309" y="382"/>
      <point x="263" y="352"/>
      <point x="196" y="352" type="curve"/>
      <point x="306" y="326" type="line"/>
      <point x="306" y="355" type="line"/>
      <point x="343" y="376"/>
      <point x="371" y="416"/>
      <point x="371" y="461" type="curve" smooth="yes"/>
      <point x="371" y="519"/>
      <point x="324" y="558"/>
      <point x="262" y="558" type="curve" smooth="yes"/>
      <point x="152" y="558"/>
      <point x="65" y="437"/>
      <point x="65" y="274" type="curve" smooth="yes"/>
      <point x="65" y="133"/>
      <point x="130" y="-15"/>
    </contour>
    <contour>
      <point x="691" y="274" type="line"/>
      <point x="687" y="352" type="line"/>
      <point x="160" y="352" type="line"/>
      <point x="164" y="274" type="line"/>
    </contour>
    <contour>
      <point x="604" y="-15" type="curve" smooth="yes"/>
      <point x="729" y="-15"/>
      <point x="786" y="114"/>
      <point x="786" y="256" type="curve" smooth="yes"/>
      <point x="786" y="429"/>
      <point x="702" y="558"/>
      <point x="591" y="558" type="curve" smooth="yes"/>
      <point x="530" y="558"/>
      <point x="481" y="519"/>
      <point x="481" y="461" type="curve" smooth="yes"/>
      <point x="481" y="416"/>
      <point x="510" y="376"/>
      <point x="547" y="355" type="curve"/>
      <point x="547" y="326" type="line"/>
      <point x="657" y="352" type="line"/>
      <point x="589" y="352"/>
      <point x="544" y="383"/>
      <point x="544" y="424" type="curve" smooth="yes"/>
      <point x="544" y="458"/>
      <point x="574" y="478"/>
      <point x="613" y="478" type="curve" smooth="yes"/>
      <point x="687" y="478"/>
      <point x="747" y="402"/>
      <point x="747" y="280" type="curve" smooth="yes"/>
      <point x="747" y="167"/>
      <point x="696" y="96"/>
      <point x="597" y="96" type="curve" smooth="yes"/>
      <point x="510" y="96"/>
      <point x="455" y="150"/>
      <point x="440" y="226" type="curve"/>
      <point x="429" y="145" type="line"/>
      <point x="454" y="34"/>
      <point x="527" y="-15"/>
    </contour>
  </outline>
</glyph>
<glyph name="kLa" format="2">
  <advance width="753"/>
  <unicode hex="0CB2"/>
  <outline>
    <contour>
      <point x="379" y="-15" type="curve" smooth="yes"/>
      <point x="613" y="-15"/>
      <point x="691" y="156"/>
      <point x="691" y="285" type="curve" smooth="yes"/>
      <point x="691" y="444"/>
      <point x="575" y="546"/>
      <point x="535" y="546" type="curve" smooth="yes"/>
      <point x="518" y="546"/>
      <point x="510" y="526"/>
      <point x="510" y="509" type="curve" smooth="yes"/>
      <point x="510" y="493"/>
      <point x="517" y="483"/>
      <point x="528" y="475" type="curve"/>
      <point x="617" y="445"/>
      <point x="652" y="378"/>
      <point x="652" y="308" type="curve" smooth="yes"/>
      <point x="652" y="201"/>
      <point x="566" y="96"/>
      <point x="375" y="96" type="curve" smooth="yes"/>
      <point x="189" y="96"/>
      <point x="98" y="195"/>
      <point x="98" y="323" type="curve" smooth="yes"/>
      <point x="98" y="409"/>
      <point x="144" y="471"/>
      <point x="213" y="471" type="curve" smooth="yes"/>
      <point x="267" y="471"/>
      <point x="299" y="437"/>
      <point x="299" y="400" type="curve" smooth="yes"/>
      <point x="299" y="366"/>
      <point x="272" y="342"/>
      <point x="226" y="342" type="curve" smooth="yes"/>
      <point x="173" y="342"/>
      <point x="131" y="373"/>
      <point x="125" y="450" type="curve"/>
      <point x="84" y="388" type="line"/>
      <point x="110" y="388" type="line"/>
      <point x="121" y="306"/>
      <point x="174" y="268"/>
      <point x="227" y="268" type="curve" smooth="yes"/>
      <point x="286" y="268"/>
      <point x="335" y="314"/>
      <point x="335" y="401" type="curve" smooth="yes"/>
      <point x="335" y="481"/>
      <point x="296" y="558"/>
      <point x="219" y="558" type="curve" smooth="yes"/>
      <point x="127" y="558"/>
      <point x="60" y="445"/>
      <point x="60" y="316" type="curve" smooth="yes"/>
      <point x="60" y="189"/>
      <point x="124" y="-15"/>
    </contour>
  </outline>
</glyph>
<glyph name="kLla" format="2">
  <advance width="687"/>
  <unicode hex="0CB3"/>
  <outline>
    <contour>
      <point x="349" y="-47" type="curve" smooth="yes"/>
      <point x="403" y="-47"/>
      <point x="473" y="-8"/>
      <point x="473" y="76" type="curve" smooth="yes"/>
      <point x="473" y="167"/>
      <point x="392" y="207"/>
      <point x="287" y="234" type="curve" smooth="yes"/>
      <point x="172" y="263"/>
      <point x="93" y="287"/>
      <point x="93" y="370" type="curve" smooth="yes"/>
      <point x="93" y="432"/>
      <point x="127" y="494"/>
      <point x="196" y="494" type="curve" smooth="yes"/>
      <point x="244" y="494"/>
      <point x="269" y="465"/>
      <point x="269" y="435" type="curve" smooth="yes"/>
      <point x="269" y="407"/>
      <point x="248" y="387"/>
      <point x="209" y="387" type="curve" smooth="yes"/>
      <point x="163" y="387"/>
      <point x="126" y="415"/>
      <point x="119" y="469" type="curve"/>
      <point x="77" y="424" type="line"/>
      <point x="106" y="424" type="line"/>
      <point x="116" y="353"/>
      <point x="164" y="317"/>
      <point x="210" y="317" type="curve" smooth="yes"/>
      <point x="259" y="317"/>
      <point x="303" y="356"/>
      <point x="303" y="430" type="curve" smooth="yes"/>
      <point x="303" y="495"/>
      <point x="269" y="563"/>
      <point x="193" y="563" type="curve" smooth="yes"/>
      <point x="99" y="563"/>
      <point x="55" y="457"/>
      <point x="55" y="378" type="curve" smooth="yes"/>
      <point x="55" y="349"/>
      <point x="61" y="315"/>
      <point x="71" y="287" type="curve" smooth="yes"/>
      <point x="104" y="196"/>
      <point x="170" y="162"/>
      <point x="277" y="133" type="curve" smooth="yes"/>
      <point x="351" y="113"/>
      <point x="409" y="104"/>
      <point x="409" y="51" type="curve" smooth="yes"/>
      <point x="409" y="12"/>
      <point x="376" y="-9"/>
      <point x="345" y="-9" type="curve" smooth="yes"/>
      <point x="311" y="-9"/>
      <point x="285" y="18"/>
      <point x="285" y="53" type="curve" smooth="yes"/>
      <point x="285" y="106"/>
      <point x="336" y="144"/>
      <point x="452" y="205" type="curve" smooth="yes"/>
      <point x="533" y="248"/>
      <point x="617" y="300"/>
      <point x="617" y="375" type="curve" smooth="yes"/>
      <point x="617" y="409"/>
      <point x="600" y="453"/>
      <point x="560" y="473" type="curve"/>
      <point x="560" y="498" type="line"/>
      <point x="489" y="460" type="line"/>
      <point x="548" y="460"/>
      <point x="578" y="416"/>
      <point x="578" y="376" type="curve" smooth="yes"/>
      <point x="578" y="316"/>
      <point x="507" y="274"/>
      <point x="432" y="234" type="curve" smooth="yes"/>
      <point x="332" y="181"/>
      <point x="248" y="131"/>
      <point x="248" y="54" type="curve" smooth="yes"/>
      <point x="248" y="0"/>
      <point x="283" y="-47"/>
    </contour>
    <contour>
      <point x="510" y="460" type="line"/>
      <point x="625" y="483"/>
      <point x="644" y="550"/>
      <point x="644" y="600" type="curve" smooth="yes"/>
      <point x="644" y="669"/>
      <point x="611" y="715"/>
      <point x="567" y="747" type="curve"/>
      <point x="546" y="727" type="line"/>
      <point x="576" y="702"/>
      <point x="595" y="666"/>
      <point x="595" y="631" type="curve" smooth="yes"/>
      <point x="595" y="588"/>
      <point x="567" y="548"/>
      <point x="471" y="548" type="curve" smooth="yes"/>
      <point x="367" y="548" type="line"/>
      <point x="372" y="460" type="line"/>
    </contour>
  </outline>
</glyph>
<glyph name="kSsa" format="2">
  <advance width="827"/>
  <unicode hex="0CB7"/>
  <outline>
    <contour>
      <point x="569" y="460" type="line" smooth="yes"/>
      <point x="735" y="460"/>
      <point x="758" y="546"/>
      <point x="758" y="602" type="curve" smooth="yes"/>
      <point x="758" y="665"/>
      <point x="728" y="713"/>
      <point x="681" y="747" type="curve"/>
      <point x="660" y="727" type="line"/>
      <point x="690" y="702"/>
      <point x="709" y="666"/>
      <point x="709" y="631" type="curve" smooth="yes"/>
      <point x="709" y="588"/>
      <point x="681" y="548"/>
      <point x="585" y="548" type="curve" smooth="yes"/>
      <point x="95" y="548" type="line"/>
      <point x="100" y="460" type="line"/>
    </contour>
    <contour>
      <point x="243" y="-15" type="curve" smooth="yes"/>
      <point x="330" y="-15"/>
      <point x="401" y="43"/>
      <point x="425" y="142" type="curve"/>
      <point x="445" y="142" type="line"/>
      <point x="435" y="244" type="line"/>
      <point x="419" y="244" type="line"/>
      <point x="403" y="141"/>
      <point x="335" y="94"/>
      <point x="240" y="94" type="curve" smooth="yes"/>
      <point x="143" y="94"/>
      <point x="107" y="143"/>
      <point x="107" y="191" type="curve" smooth="yes"/>
      <point x="107" y="237"/>
      <point x="141" y="281"/>
      <point x="193" y="281" type="curve" smooth="yes"/>
      <point x="234" y="281"/>
      <point x="262" y="254"/>
      <point x="262" y="222" type="curve" smooth="yes"/>
      <point x="262" y="206"/>
      <point x="255" y="188"/>
      <point x="241" y="173" type="curve"/>
      <point x="261" y="158" type="line"/>
      <point x="300" y="186"/>
      <point x="323" y="224"/>
      <point x="323" y="263" type="curve" smooth="yes"/>
      <point x="323" y="321"/>
      <point x="273" y="360"/>
      <point x="212" y="360" type="curve" smooth="yes"/>
      <point x="124" y="360"/>
      <point x="70" y="279"/>
      <point x="70" y="187" type="curve" smooth="yes"/>
      <point x="70" y="98"/>
      <point x="121" y="-15"/>
    </contour>
    <contour>
      <point x="782" y="-20" type="line"/>
      <point x="541" y="311" type="line"/>
      <point x="515" y="293" type="line"/>
      <point x="730" y="-57" type="line"/>
    </contour>
    <contour>
      <point x="425" y="291" type="curve" smooth="yes"/>
      <point x="458" y="291"/>
      <point x="484" y="319"/>
      <point x="484" y="352" type="curve" smooth="yes"/>
      <point x="484" y="385"/>
      <point x="458" y="412"/>
      <point x="425" y="412" type="curve" smooth="yes"/>
      <point x="392" y="412"/>
      <point x="365" y="385"/>
      <point x="365" y="352" type="curve" smooth="yes"/>
      <point x="365" y="319"/>
      <point x="392" y="291"/>
    </contour>
    <contour>
      <point x="597" y="-15" type="curve" smooth="yes"/>
      <point x="694" y="-15"/>
      <point x="759" y="76"/>
      <point x="759" y="174" type="curve" smooth="yes"/>
      <point x="759" y="253"/>
      <point x="725" y="331"/>
      <point x="668" y="398" type="curve"/>
      <point x="637" y="377" type="line"/>
      <point x="679" y="330"/>
      <point x="705" y="268"/>
      <point x="705" y="214" type="curve" smooth="yes"/>
      <point x="705" y="133"/>
      <point x="662" y="93"/>
      <point x="584" y="93" type="curve" smooth="yes"/>
      <point x="491" y="93"/>
      <point x="445" y="170"/>
      <point x="435" y="244" type="curve"/>
      <point x="424" y="166" type="line"/>
      <point x="446" y="39"/>
      <point x="516" y="-15"/>
    </contour>
  </outline>
</glyph>
<glyph name="kSa" format="2">
  <advance width="715"/>
  <unicode hex="0CB8"/>
  <outline>
    <contour>
      <point x="93" y="-30" type="line"/>
      <point x="105" y="103"/>
      <point x="176" y="166"/>
      <point x="289" y="166" type="curve" smooth="yes"/>
      <point x="366" y="166"/>
      <point x="419" y="137"/>
      <point x="454" y="93" type="curve" smooth="yes"/>
      <point x="489" y="49"/>
      <point x="509" y="-15"/>
      <point x="559" y="-15" type="curve" smooth="yes"/>
      <point x="611" y="-15"/>
      <point x="645" y="54"/>
      <point x="645" y="153" type="curve" smooth="yes"/>
      <point x="645" y="242"/>
      <point x="618" y="331"/>
      <point x="582" y="405" type="curve"/>
      <point x="546" y="387" type="line"/>
      <point x="563" y="360"/>
      <point x="597" y="256"/>
      <point x="597" y="176" type="curve" smooth="yes"/>
      <point x="597" y="124"/>
      <point x="583" y="87"/>
      <point x="538" y="87" type="curve" smooth="yes"/>
      <point x="511" y="87"/>
      <point x="494" y="101"/>
      <point x="478" y="124" type="curve" smooth="yes"/>
      <point x="440" y="177"/>
      <point x="404" y="273"/>
      <point x="283" y="273" type="curve" smooth="yes"/>
      <point x="154" y="273"/>
      <point x="61" y="162"/>
      <point x="55" y="-28" type="curve"/>
    </contour>
    <contour>
      <point x="333" y="305" type="curve" smooth="yes"/>
      <point x="365" y="305"/>
      <point x="391" y="333"/>
      <point x="391" y="365" type="curve" smooth="yes"/>
      <point x="391" y="397"/>
      <point x="365" y="424"/>
      <point x="333" y="424" type="curve" smooth="yes"/>
      <point x="301" y="424"/>
      <point x="274" y="397"/>
      <point x="274" y="365" type="curve" smooth="yes"/>
      <point x="274" y="333"/>
      <point x="301" y="305"/>
    </contour>
    <contour>
      <point x="467" y="460" type="line" smooth="yes"/>
      <point x="633" y="460"/>
      <point x="656" y="546"/>
      <point x="656" y="602" type="curve" smooth="yes"/>
      <point x="656" y="665"/>
      <point x="626" y="713"/>
      <point x="579" y="747" type="curve"/>
      <point x="558" y="727" type="line"/>
      <point x="588" y="702"/>
      <point x="607" y="666"/>
      <point x="607" y="631" type="curve" smooth="yes"/>
      <point x="607" y="588"/>
      <point x="579" y="548"/>
      <point x="483" y="548" type="curve" smooth="yes"/>
      <point x="55" y="548" type="line"/>
      <point x="60" y="460" type="line"/>
    </contour>
  </outline>
</glyph>
<glyph name="kNukta" format="2">
  <unicode hex="0CBC"/>
  <outline>
    <contour>
      <point x="119" y="-200" type="curve" smooth="yes"/>
      <point x="148" y="-200"/>
      <point x="172" y="-175"/>
      <point x="172" y="-145" type="curve" smooth="yes"/>
      <point x="172" y="-115"/>
      <point x="148" y="-90"/>
      <point x="119" y="-90" type="curve" smooth="yes"/>
      <point x="90" y="-90"/>
      <point x="67" y="-115"/>
      <point x="67" y="-145" type="curve" smooth="yes"/>
      <point x="67" y="-175"/>
      <point x="90" y="-200"/>
    </contour>
    <contour>
      <point x="-120" y="-200" type="curve" smooth="yes"/>
      <point x="-91" y="-200"/>
      <point x="-67" y="-175"/>
      <point x="-67" y="-145" type="curve" smooth="yes"/>
      <point x="-67" y="-115"/>
      <point x="-91" y="-90"/>
      <point x="-120" y="-90" type="curve" smooth="yes"/>
      <point x="-149" y="-90"/>
      <point x="-172" y="-115"/>
      <point x="-172" y="-145" type="curve" smooth="yes"/>
      <point x="-172" y="-175"/>
      <point x="-149" y="-200"/>
    </contour>
  </outline>
</glyph>
<glyph name="kAvagraha" format="2">
  <advance width="467"/>
  <unicode hex="0CBD"/>
  <outline>
    <contour>
      <point x="247" y="-15" type="curve" smooth="yes"/>
      <point x="359" y="-15"/>
      <point x="412" y="67"/>
      <point x="412" y="149" type="curve" smooth="yes"/>
      <point x="412" y="339"/>
      <point x="128" y="306"/>
      <point x="128" y="411" type="curve" smooth="yes"/>
      <point x="128" y="438"/>
      <point x="147" y="460"/>
      <point x="223" y="460" type="curve" smooth="yes"/>
      <point x="394" y="460" type="line"/>
      <point x="389" y="548" type="line"/>
      <point x="219" y="548" type="line" smooth="yes"/>
      <point x="124" y="548"/>
      <point x="70" y="496"/>
      <point x="70" y="427" type="curve" smooth="yes"/>
      <point x="70" y="269"/>
      <point x="359" y="298"/>
      <point x="359" y="169" type="curve" smooth="yes"/>
      <point x="359" y="116"/>
      <point x="310" y="84"/>
      <point x="235" y="84" type="curve" smooth="yes"/>
      <point x="159" y="84"/>
      <point x="93" y="117"/>
      <point x="69" y="187" type="curve"/>
      <point x="40" y="180" type="line"/>
      <point x="65" y="43"/>
      <point x="153" y="-15"/>
    </contour>
  </outline>
</glyph>
<glyph name="kSignAa" format="2">
  <advance width="447"/>
  <unicode hex="0CBE"/>
  <outline>
    <contour>
      <point x="152" y="-15" type="curve" smooth="yes"/>
      <point x="294" y="-15"/>
      <point x="380" y="118"/>
      <point x="380" y="256" type="curve" smooth="yes"/>
      <point x="380" y="400"/>
      <point x="286" y="548"/>
      <point x="56" y="548" type="curve" smooth="yes"/>
      <point x="-55" y="548" type="line"/>
      <point x="-50" y="460" type="line"/>
      <point x="61" y="460" type="line" smooth="yes"/>
      <point x="257" y="460"/>
      <point x="341" y="351"/>
      <point x="341" y="242" type="curve" smooth="yes"/>
      <point x="341" y="146"/>
      <point x="276" y="61"/>
      <point x="148" y="61" type="curve" smooth="yes"/>
      <point x="33" y="61"/>
      <point x="4" y="130"/>
      <point x="4" y="182" type="curve" smooth="yes"/>
      <point x="4" y="242"/>
      <point x="42" y="289"/>
      <point x="106" y="289" type="curve" smooth="yes"/>
      <point x="111" y="289"/>
      <point x="114" y="289"/>
      <point x="121" y="288" type="curve"/>
      <point x="101" y="272"/>
      <point x="92" y="251"/>
      <point x="92" y="230" type="curve" smooth="yes"/>
      <point x="92" y="197"/>
      <point x="115" y="166"/>
      <point x="155" y="166" type="curve" smooth="yes"/>
      <point x="190" y="166"/>
      <point x="225" y="191"/>
      <point x="225" y="241" type="curve" smooth="yes"/>
      <point x="225" y="293"/>
      <point x="188" y="331"/>
      <point x="123" y="331" type="curve" smooth="yes"/>
      <point x="44" y="331"/>
      <point x="-29" y="274"/>
      <point x="-29" y="168" type="curve" smooth="yes"/>
      <point x="-29" y="62"/>
      <point x="44" y="-15"/>
    </contour>
  </outline>
</glyph>
<glyph name="kSignI" format="2">
  <advance width="187"/>
  <unicode hex="0CBF"/>
  <outline>
    <contour>
      <point x="-44" y="331" type="curve" smooth="yes"/>
      <point x="-6" y="331"/>
      <point x="177" y="380"/>
      <point x="177" y="557" type="curve" smooth="yes"/>
      <point x="177" y="676"/>
      <point x="94" y="759"/>
      <point x="10" y="759" type="curve" smooth="yes"/>
      <point x="-63" y="759"/>
      <point x="-103" y="697"/>
      <point x="-103" y="634" type="curve" smooth="yes"/>
      <point x="-103" y="569"/>
      <point x="-61" y="485"/>
      <point x="18" y="485" type="curve" smooth="yes"/>
      <point x="68" y="485"/>
      <point x="112" y="519"/>
      <point x="112" y="584" type="curve" smooth="yes"/>
      <point x="112" y="603"/>
      <point x="108" y="624"/>
      <point x="100" y="647" type="curve"/>
      <point x="123" y="662" type="line"/>
      <point x="53" y="686" type="line"/>
      <point x="72" y="664"/>
      <point x="78" y="640"/>
      <point x="78" y="621" type="curve" smooth="yes"/>
      <point x="78" y="583"/>
      <point x="50" y="552"/>
      <point x="5" y="552" type="curve" smooth="yes"/>
      <point x="-40" y="552"/>
      <point x="-68" y="582"/>
      <point x="-68" y="618" type="curve" smooth="yes"/>
      <point x="-68" y="659"/>
      <point x="-32" y="686"/>
      <point x="10" y="686" type="curve" smooth="yes"/>
      <point x="27" y="686"/>
      <point x="53" y="682"/>
      <point x="72" y="661" type="curve"/>
      <point x="95" y="656" type="line"/>
      <point x="126" y="631"/>
      <point x="142" y="595"/>
      <point x="142" y="547" type="curve" smooth="yes"/>
      <point x="142" y="429"/>
      <point x="37" y="409"/>
      <point x="-41" y="395" type="curve" smooth="yes"/>
      <point x="-52" y="393"/>
      <point x="-55" y="357"/>
      <point x="-55" y="345" type="curve" smooth="yes"/>
      <point x="-55" y="333"/>
      <point x="-52" y="331"/>
    </contour>
  </outline>
</glyph>
<glyph name="kSignU" format="2">
  <advance width="318"/>
  <unicode hex="0CC1"/>
  <outline>
    <contour>
      <point x="101" y="-15" type="curve" smooth="yes"/>
      <point x="207" y="-15"/>
      <point x="253" y="82"/>
      <point x="253" y="185" type="curve" smooth="yes"/>
      <point x="253" y="385"/>
      <point x="78" y="533"/>
      <point x="28" y="533" type="curve" smooth="yes"/>
      <point x="14" y="533"/>
      <point x="5" y="521"/>
      <point x="5" y="504" type="curve" smooth="yes"/>
      <point x="5" y="489"/>
      <point x="12" y="472"/>
      <point x="23" y="464" type="curve"/>
      <point x="152" y="419"/>
      <point x="203" y="318"/>
      <point x="203" y="232" type="curve" smooth="yes"/>
      <point x="203" y="157"/>
      <point x="164" y="96"/>
      <point x="84" y="96" type="curve" smooth="yes"/>
      <point x="28" y="96"/>
      <point x="-30" y="126"/>
      <point x="-73" y="217" type="curve"/>
      <point x="-102" y="199" type="line"/>
      <point x="-41" y="31"/>
      <point x="28" y="-15"/>
    </contour>
  </outline>
</glyph>
<glyph name="kSignUu" format="2">
  <advance width="748"/>
  <unicode hex="0CC2"/>
  <outline>
    <contour>
      <point x="93" y="-15" type="curve" smooth="yes"/>
      <point x="156" y="-15"/>
      <point x="217" y="28"/>
      <point x="217" y="121" type="curve" smooth="yes"/>
      <point x="217" y="175"/>
      <point x="196" y="230"/>
      <point x="196" y="281" type="curve" smooth="yes"/>
      <point x="196" y="391"/>
      <point x="293" y="457"/>
      <point x="410" y="457" type="curve" smooth="yes"/>
      <point x="557" y="457"/>
      <point x="642" y="350"/>
      <point x="642" y="238" type="curve" smooth="yes"/>
      <point x="642" y="141"/>
      <point x="579" y="61"/>
      <point x="464" y="61" type="curve" smooth="yes"/>
      <point x="371" y="61"/>
      <point x="327" y="115"/>
      <point x="327" y="180" type="curve" smooth="yes"/>
      <point x="327" y="235"/>
      <point x="359" y="286"/>
      <point x="416" y="286" type="curve" smooth="yes"/>
      <point x="421" y="286"/>
      <point x="424" y="286"/>
      <point x="431" y="285" type="curve"/>
      <point x="411" y="269"/>
      <point x="402" y="248"/>
      <point x="402" y="227" type="curve" smooth="yes"/>
      <point x="402" y="194"/>
      <point x="425" y="163"/>
      <point x="465" y="163" type="curve" smooth="yes"/>
      <point x="499" y="163"/>
      <point x="535" y="187"/>
      <point x="535" y="239" type="curve" smooth="yes"/>
      <point x="535" y="290"/>
      <point x="500" y="328"/>
      <point x="438" y="328" type="curve" smooth="yes"/>
      <point x="360" y="328"/>
      <point x="294" y="268"/>
      <point x="294" y="168" type="curve" smooth="yes"/>
      <point x="294" y="63"/>
      <point x="366" y="-15"/>
      <point x="469" y="-15" type="curve" smooth="yes"/>
      <point x="603" y="-15"/>
      <point x="681" y="116"/>
      <point x="681" y="249" type="curve" smooth="yes"/>
      <point x="681" y="412"/>
      <point x="565" y="548"/>
      <point x="393" y="548" type="curve" smooth="yes"/>
      <point x="253" y="548"/>
      <point x="150" y="460"/>
      <point x="150" y="346" type="curve" smooth="yes"/>
      <point x="150" y="292"/>
      <point x="174" y="230"/>
      <point x="174" y="185" type="curve" smooth="yes"/>
      <point x="174" y="133"/>
      <point x="140" y="92"/>
      <point x="81" y="92" type="curve" smooth="yes"/>
      <point x="6" y="92"/>
      <point x="-48" y="158"/>
      <point x="-75" y="217" type="curve"/>
      <point x="-104" y="199" type="line"/>
      <point x="-44" y="30"/>
      <point x="29" y="-15"/>
    </contour>
  </outline>
</glyph>
<glyph name="kSignVocalicR" format="2">
  <unicode hex="0CC3"/>
  <outline>
    <contour>
      <point x="-25" y="-449" type="curve" smooth="yes"/>
      <point x="113" y="-449"/>
      <point x="163" y="-318"/>
      <point x="163" y="-210" type="curve" smooth="yes"/>
      <point x="163" y="-38"/>
      <point x="37" y="78"/>
      <point x="17" y="78" type="curve" smooth="yes"/>
      <point x="14" y="78"/>
      <point x="6" y="75"/>
      <point x="6" y="56" type="curve" smooth="yes"/>
      <point x="6" y="40"/>
      <point x="12" y="22"/>
      <point x="20" y="13" type="curve"/>
      <point x="81" y="-39"/>
      <point x="124" y="-109"/>
      <point x="124" y="-193" type="curve" smooth="yes"/>
      <point x="124" y="-273"/>
      <point x="85" y="-362"/>
      <point x="-32" y="-362" type="curve" smooth="yes"/>
      <point x="-139" y="-362"/>
      <point x="-176" y="-288"/>
      <point x="-176" y="-243" type="curve" smooth="yes"/>
      <point x="-176" y="-193"/>
      <point x="-151" y="-141"/>
      <point x="-92" y="-141" type="curve" smooth="yes"/>
      <point x="-56" y="-141"/>
      <point x="-37" y="-164"/>
      <point x="-37" y="-186" type="curve" smooth="yes"/>
      <point x="-37" y="-210"/>
      <point x="-59" y="-223"/>
      <point x="-87" y="-223" type="curve" smooth="yes"/>
      <point x="-120" y="-223"/>
      <point x="-149" y="-204"/>
      <point x="-152" y="-150" type="curve"/>
      <point x="-193" y="-198" type="line"/>
      <point x="-166" y="-198" type="line"/>
      <point x="-158" y="-261"/>
      <point x="-120" y="-285"/>
      <point x="-86" y="-285" type="curve" smooth="yes"/>
      <point x="-46" y="-285"/>
      <point x="-11" y="-250"/>
      <point x="-11" y="-188" type="curve" smooth="yes"/>
      <point x="-11" y="-133"/>
      <point x="-38" y="-80"/>
      <point x="-95" y="-80" type="curve" smooth="yes"/>
      <point x="-166" y="-80"/>
      <point x="-212" y="-164"/>
      <point x="-212" y="-241" type="curve" smooth="yes"/>
      <point x="-212" y="-320"/>
      <point x="-163" y="-449"/>
    </contour>
  </outline>
</glyph>
<glyph name="kSignVocalicRr" format="2">
  <unicode hex="0CC4"/>
  <outline>
    <contour>
      <point x="338" y="-315" type="curve" smooth="yes"/>
      <point x="433" y="-315"/>
      <point x="491" y="-225"/>
      <point x="491" y="-129" type="curve" smooth="yes"/>
      <point x="491" y="-30"/>
      <point x="429" y="71"/>
      <point x="272" y="71" type="curve" smooth="yes"/>
      <point x="18" y="71" type="line"/>
      <point x="21" y="4" type="line"/>
      <point x="275" y="3" type="line" smooth="yes"/>
      <point x="407" y="3"/>
      <point x="461" y="-66"/>
      <point x="461" y="-138" type="curve" smooth="yes"/>
      <point x="461" y="-201"/>
      <point x="420" y="-259"/>
      <point x="334" y="-259" type="curve" smooth="yes"/>
      <point x="258" y="-259"/>
      <point x="240" y="-213"/>
      <point x="240" y="-179" type="curve" smooth="yes"/>
      <point x="240" y="-139"/>
      <point x="265" y="-107"/>
      <point x="305" y="-107" type="curve"/>
      <point x="307" y="-107"/>
      <point x="311" y="-107"/>
      <point x="316" y="-108" type="curve"/>
      <point x="302" y="-118"/>
      <point x="295" y="-133"/>
      <point x="295" y="-147" type="curve" smooth="yes"/>
      <point x="295" y="-169"/>
      <point x="311" y="-192"/>
      <point x="339" y="-192" type="curve" smooth="yes"/>
      <point x="364" y="-192"/>
      <point x="389" y="-173"/>
      <point x="389" y="-138" type="curve" smooth="yes"/>
      <point x="389" y="-103"/>
      <point x="363" y="-77"/>
      <point x="317" y="-77" type="curve" smooth="yes"/>
      <point x="261" y="-77"/>
      <point x="211" y="-116"/>
      <point x="211" y="-187" type="curve" smooth="yes"/>
      <point x="211" y="-261"/>
      <point x="264" y="-315"/>
    </contour>
    <contour>
      <point x="-24" y="-449" type="curve" smooth="yes"/>
      <point x="115" y="-449"/>
      <point x="164" y="-315"/>
      <point x="164" y="-210" type="curve" smooth="yes"/>
      <point x="164" y="-116"/>
      <point x="125" y="-41"/>
      <point x="89" y="1" type="curve"/>
      <point x="103" y="30" type="line"/>
      <point x="21" y="4" type="line"/>
      <point x="68" y="-20"/>
      <point x="125" y="-98"/>
      <point x="125" y="-194" type="curve" smooth="yes"/>
      <point x="125" y="-273"/>
      <point x="86" y="-362"/>
      <point x="-30" y="-362" type="curve" smooth="yes"/>
      <point x="-138" y="-362"/>
      <point x="-175" y="-288"/>
      <point x="-175" y="-243" type="curve" smooth="yes"/>
      <point x="-175" y="-193"/>
      <point x="-150" y="-141"/>
      <point x="-91" y="-141" type="curve" smooth="yes"/>
      <point x="-55" y="-141"/>
      <point x="-36" y="-164"/>
      <point x="-36" y="-186" type="curve" smooth="yes"/>
      <point x="-36" y="-210"/>
      <point x="-58" y="-223"/>
      <point x="-86" y="-223" type="curve" smooth="yes"/>
      <point x="-119" y="-223"/>
      <point x="-148" y="-204"/>
      <point x="-151" y="-150" type="curve"/>
      <point x="-192" y="-198" type="line"/>
      <point x="-165" y="-198" type="line"/>
      <point x="-157" y="-261"/>
      <point x="-119" y="-285"/>
      <point x="-85" y="-285" type="curve" smooth="yes"/>
      <point x="-45" y="-285"/>
      <point x="-10" y="-250"/>
      <point x="-10" y="-188" type="curve" smooth="yes"/>
      <point x="-10" y="-133"/>
      <point x="-37" y="-80"/>
      <point x="-94" y="-80" type="curve" smooth="yes"/>
      <point x="-165" y="-80"/>
      <point x="-211" y="-164"/>
      <point x="-211" y="-241" type="curve" smooth="yes"/>
      <point x="-211" y="-320"/>
      <point x="-162" y="-449"/>
    </contour>
  </outline>
</glyph>
<glyph name="kSignE" format="2">
  <advance width="382"/>
  <unicode hex="0CC6"/>
  <outline>
    <contour>
      <point x="164" y="460" type="line" smooth="yes"/>
      <point x="292" y="460"/>
      <point x="353" y="510"/>
      <point x="353" y="601" type="curve" smooth="yes"/>
      <point x="353" y="688"/>
      <point x="297" y="755"/>
      <point x="216" y="755" type="curve" smooth="yes"/>
      <point x="161" y="755"/>
      <point x="111" y="724"/>
      <point x="111" y="674" type="curve" smooth="yes"/>
      <point x="111" y="636"/>
      <point x="141" y="614"/>
      <point x="170" y="614" type="curve" smooth="yes"/>
      <point x="199" y="614"/>
      <point x="226" y="635"/>
      <point x="226" y="669" type="curve" smooth="yes"/>
      <point x="226" y="690"/>
      <point x="215" y="712"/>
      <point x="186" y="721" type="curve"/>
      <point x="196" y="724"/>
      <point x="207" y="726"/>
      <point x="217" y="726" type="curve" smooth="yes"/>
      <point x="264" y="726"/>
      <point x="305" y="690"/>
      <point x="305" y="635" type="curve" smooth="yes"/>
      <point x="305" y="587"/>
      <point x="275" y="548"/>
      <point x="180" y="548" type="curve" smooth="yes"/>
      <point x="-55" y="548" type="line"/>
      <point x="-50" y="460" type="line"/>
    </contour>
  </outline>
</glyph>
<glyph name="kSignAu" format="2">
  <advance width="691"/>
  <unicode hex="0CCC"/>
  <outline>
    <contour>
      <point x="419" y="172" type="curve" smooth="yes"/>
      <point x="555" y="172"/>
      <point x="631" y="303"/>
      <point x="631" y="437" type="curve" smooth="yes"/>
      <point x="631" y="583"/>
      <point x="542" y="726"/>
      <point x="312" y="726" type="curve" smooth="yes"/>
      <point x="-23" y="726" type="line"/>
      <point x="-18" y="640" type="line"/>
      <point x="317" y="640" type="line" smooth="yes"/>
      <point x="516" y="640"/>
      <point x="592" y="534"/>
      <point x="592" y="430" type="curve" smooth="yes"/>
      <point x="592" y="334"/>
      <point x="529" y="236"/>
      <point x="414" y="236" type="curve" smooth="yes"/>
      <point x="329" y="236"/>
      <point x="280" y="290"/>
      <point x="280" y="348" type="curve" smooth="yes"/>
      <point x="280" y="394"/>
      <point x="311" y="433"/>
      <point x="360" y="433" type="curve" smooth="yes"/>
      <point x="365" y="433"/>
      <point x="368" y="433"/>
      <point x="375" y="432" type="curve"/>
      <point x="355" y="416"/>
      <point x="346" y="395"/>
      <point x="346" y="374" type="curve" smooth="yes"/>
      <point x="346" y="341"/>
      <point x="369" y="310"/>
      <point x="409" y="310" type="curve" smooth="yes"/>
      <point x="444" y="310"/>
      <point x="479" y="335"/>
      <point x="479" y="385" type="curve" smooth="yes"/>
      <point x="479" y="437"/>
      <point x="441" y="475"/>
      <point x="379" y="475" type="curve" smooth="yes"/>
      <point x="307" y="475"/>
      <point x="249" y="423"/>
      <point x="249" y="337" type="curve" smooth="yes"/>
      <point x="249" y="243"/>
      <point x="319" y="172"/>
    </contour>
    <contour>
      <point x="152" y="460" type="line" smooth="yes"/>
      <point x="291" y="460"/>
      <point x="308" y="527"/>
      <point x="308" y="566" type="curve" smooth="yes"/>
      <point x="308" y="597"/>
      <point x="300" y="624"/>
      <point x="266" y="660" type="curve"/>
      <point x="226" y="660" type="line"/>
      <point x="256" y="635"/>
      <point x="267" y="616"/>
      <point x="267" y="599" type="curve" smooth="yes"/>
      <point x="267" y="562"/>
      <point x="244" y="548"/>
      <point x="169" y="548" type="curve" smooth="yes"/>
      <point x="-55" y="548" type="line"/>
      <point x="-50" y="460" type="line"/>
    </contour>
  </outline>
</glyph>
<glyph name="kVirama" format="2">
  <advance width="408"/>
  <unicode hex="0CCD"/>
  <outline>
    <contour>
      <point x="400" y="682" type="curve" smooth="yes"/>
      <point x="277" y="682"/>
      <point x="166" y="601"/>
      <point x="166" y="455" type="curve" smooth="yes"/>
      <point x="166" y="360"/>
      <point x="213" y="290"/>
      <point x="276" y="290" type="curve" smooth="yes"/>
      <point x="332" y="290"/>
      <point x="369" y="344"/>
      <point x="369" y="404" type="curve" smooth="yes"/>
      <point x="369" y="455"/>
      <point x="337" y="548"/>
      <point x="200" y="548" type="curve" smooth="yes"/>
      <point x="-55" y="548" type="line"/>
      <point x="-50" y="460" type="line"/>
      <point x="230" y="460" type="line" smooth="yes"/>
      <point x="313" y="460"/>
      <point x="333" y="427"/>
      <point x="333" y="402" type="curve" smooth="yes"/>
      <point x="333" y="372"/>
      <point x="305" y="354"/>
      <point x="274" y="354" type="curve" smooth="yes"/>
      <point x="235" y="354"/>
      <point x="199" y="381"/>
      <point x="199" y="459" type="curve" smooth="yes"/>
      <point x="199" y="557"/>
      <point x="259" y="620"/>
      <point x="366" y="620" type="curve" smooth="yes"/>
      <point x="396" y="620"/>
      <point x="402" y="617"/>
      <point x="406" y="617" type="curve" smooth="yes"/>
      <point x="416" y="617"/>
      <point x="433" y="657"/>
      <point x="433" y="672" type="curve" smooth="yes"/>
      <point x="433" y="675"/>
      <point x="432" y="679"/>
      <point x="426" y="680" type="curve" smooth="yes"/>
      <point x="421" y="681"/>
      <point x="414" y="682"/>
    </contour>
  </outline>
</glyph>
<glyph name="kLengthMark" format="2">
  <unicode hex="0CD5"/>
  <outline>
    <contour>
      <point x="321" y="-113" type="curve" smooth="yes"/>
      <point x="327" y="-113"/>
      <point x="329" y="-105"/>
      <point x="329" y="-94" type="curve" smooth="yes"/>
      <point x="329" y="-69"/>
      <point x="319" y="-29"/>
      <point x="311" y="-15" type="curve"/>
      <point x="188" y="39"/>
      <point x="83" y="163"/>
      <point x="83" y="311" type="curve" smooth="yes"/>
      <point x="83" y="415"/>
      <point x="137" y="473"/>
      <point x="212" y="473" type="curve" smooth="yes"/>
      <point x="267" y="473"/>
      <point x="300" y="437"/>
      <point x="300" y="400" type="curve" smooth="yes"/>
      <point x="300" y="366"/>
      <point x="273" y="332"/>
      <point x="227" y="332" type="curve" smooth="yes"/>
      <point x="177" y="332"/>
      <point x="128" y="372"/>
      <point x="126" y="466" type="curve"/>
      <point x="74" y="403" type="line"/>
      <point x="106" y="399" type="line"/>
      <point x="120" y="303"/>
      <point x="179" y="258"/>
      <point x="230" y="258" type="curve" smooth="yes"/>
      <point x="287" y="258"/>
      <point x="336" y="314"/>
      <point x="336" y="400" type="curve" smooth="yes"/>
      <point x="336" y="482"/>
      <point x="292" y="558"/>
      <point x="210" y="558" type="curve" smooth="yes"/>
      <point x="130" y="558"/>
      <point x="45" y="486"/>
      <point x="45" y="320" type="curve" smooth="yes"/>
      <point x="45" y="133"/>
      <point x="153" y="-15"/>
      <point x="280" y="-93" type="curve" smooth="yes"/>
      <point x="293" y="-101"/>
      <point x="314" y="-113"/>
    </contour>
  </outline>
</glyph>
<glyph name="kAiLengthMark" format="2">
  <unicode hex="0CD6"/>
  <outline>
    <contour>
      <point x="-44" y="-449" type="curve" smooth="yes"/>
      <point x="88" y="-449"/>
      <point x="141" y="-329"/>
      <point x="141" y="-245" type="curve" smooth="yes"/>
      <point x="141" y="-165"/>
      <point x="95" y="-89"/>
      <point x="8" y="-80" type="curve"/>
      <point x="10" y="-111" type="line"/>
      <point x="70" y="-127"/>
      <point x="99" y="-179"/>
      <point x="99" y="-229" type="curve" smooth="yes"/>
      <point x="99" y="-293"/>
      <point x="52" y="-362"/>
      <point x="-52" y="-362" type="curve" smooth="yes"/>
      <point x="-157" y="-362"/>
      <point x="-195" y="-291"/>
      <point x="-195" y="-243" type="curve" smooth="yes"/>
      <point x="-195" y="-202"/>
      <point x="-176" y="-141"/>
      <point x="-111" y="-141" type="curve" smooth="yes"/>
      <point x="-75" y="-141"/>
      <point x="-56" y="-164"/>
      <point x="-56" y="-186" type="curve" smooth="yes"/>
      <point x="-56" y="-210"/>
      <point x="-78" y="-223"/>
      <point x="-106" y="-223" type="curve" smooth="yes"/>
      <point x="-142" y="-223"/>
      <point x="-170" y="-201"/>
      <point x="-171" y="-144" type="curve"/>
      <point x="-210" y="-198" type="line"/>
      <point x="-185" y="-198" type="line"/>
      <point x="-177" y="-261"/>
      <point x="-139" y="-285"/>
      <point x="-105" y="-285" type="curve" smooth="yes"/>
      <point x="-65" y="-285"/>
      <point x="-30" y="-250"/>
      <point x="-30" y="-188" type="curve" smooth="yes"/>
      <point x="-30" y="-133"/>
      <point x="-57" y="-80"/>
      <point x="-114" y="-80" type="curve" smooth="yes"/>
      <point x="-185" y="-80"/>
      <point x="-231" y="-164"/>
      <point x="-231" y="-240" type="curve" smooth="yes"/>
      <point x="-231" y="-319"/>
      <point x="-182" y="-449"/>
    </contour>
    <contour>
      <point x="20" y="-101" type="line"/>
      <point x="89" y="-73"/>
      <point x="125" y="-35"/>
      <point x="125" y="10" type="curve" smooth="yes"/>
      <point x="125" y="58"/>
      <point x="82" y="101"/>
      <point x="19" y="106" type="curve"/>
      <point x="10" y="84" type="line"/>
      <point x="53" y="62"/>
      <point x="66" y="37"/>
      <point x="66" y="8" type="curve" smooth="yes"/>
      <point x="66" y="-23"/>
      <point x="51" y="-52"/>
      <point x="8" y="-80" type="curve"/>
    </contour>
  </outline>
</glyph>
<glyph name="kNakaaraPollu" format="2">
  <advance width="528"/>
  <unicode hex="0CDD"/>
  <outline>
    <contour>
      <point x="338" y="303" type="line"/>
      <point x="335" y="380" type="line"/>
      <point x="157" y="380" type="line" smooth="yes"/>
      <point x="117" y="380"/>
      <point x="94" y="393"/>
      <point x="94" y="418" type="curve" smooth="yes"/>
      <point x="94" y="443"/>
      <point x="115" y="460"/>
      <point x="168" y="460" type="curve" smooth="yes"/>
      <point x="528" y="460" type="line"/>
      <point x="523" y="548" type="line"/>
      <point x="184" y="548" type="line" smooth="yes"/>
      <point x="93" y="548"/>
      <point x="55" y="493"/>
      <point x="55" y="427" type="curve" smooth="yes"/>
      <point x="55" y="365"/>
      <point x="88" y="329"/>
      <point x="125" y="313" type="curve"/>
      <point x="143" y="303" type="line"/>
    </contour>
    <contour>
      <point x="318" y="-13" type="line"/>
      <point x="315" y="64" type="line"/>
      <point x="177" y="64" type="line" smooth="yes"/>
      <point x="136" y="64"/>
      <point x="114" y="79"/>
      <point x="114" y="102" type="curve" smooth="yes"/>
      <point x="114" y="123"/>
      <point x="132" y="144"/>
      <point x="179" y="145" type="curve"/>
      <point x="147" y="171" type="line"/>
      <point x="86" y="152"/>
      <point x="76" y="113"/>
      <point x="76" y="84" type="curve" smooth="yes"/>
      <point x="76" y="8"/>
      <point x="146" y="-13"/>
      <point x="188" y="-13" type="curve" smooth="yes"/>
    </contour>
    <contour>
      <point x="328" y="145" type="line"/>
      <point x="325" y="222" type="line"/>
      <point x="167" y="222" type="line" smooth="yes"/>
      <point x="126" y="222"/>
      <point x="104" y="237"/>
      <point x="104" y="260" type="curve" smooth="yes"/>
      <point x="104" y="282"/>
      <point x="123" y="303"/>
      <point x="172" y="303" type="curve"/>
      <point x="141" y="329" type="line"/>
      <point x="77" y="313"/>
      <point x="66" y="272"/>
      <point x="66" y="246" type="curve" smooth="yes"/>
      <point x="66" y="205"/>
      <point x="94" y="175"/>
      <point x="129" y="158" type="curve"/>
      <point x="149" y="145" type="line"/>
    </contour>
  </outline>
</glyph>
<glyph name="kLlla" format="2">
  <advance width="851"/>
  <unicode hex="0CDE"/>
  <outline>
    <contour>
      <point x="261" y="-15" type="curve" smooth="yes"/>
      <point x="339" y="-15"/>
      <point x="403" y="36"/>
      <point x="430" y="136" type="curve"/>
      <point x="450" y="136" type="line"/>
      <point x="440" y="244" type="line"/>
      <point x="424" y="244" type="line"/>
      <point x="408" y="145"/>
      <point x="351" y="96"/>
      <point x="267" y="96" type="curve" smooth="yes"/>
      <point x="158" y="96"/>
      <point x="104" y="179"/>
      <point x="104" y="273" type="curve" smooth="yes"/>
      <point x="104" y="304"/>
      <point x="116" y="470"/>
      <point x="233" y="471" type="curve" smooth="yes"/>
      <point x="287" y="471"/>
      <point x="315" y="433"/>
      <point x="315" y="397" type="curve" smooth="yes"/>
      <point x="315" y="362"/>
      <point x="288" y="337"/>
      <point x="242" y="337" type="curve" smooth="yes"/>
      <point x="191" y="337"/>
      <point x="147" y="372"/>
      <point x="146" y="454" type="curve"/>
      <point x="99" y="388" type="line"/>
      <point x="129" y="388" type="line"/>
      <point x="138" y="303"/>
      <point x="188" y="263"/>
      <point x="241" y="263" type="curve" smooth="yes"/>
      <point x="299" y="263"/>
      <point x="350" y="312"/>
      <point x="350" y="403" type="curve" smooth="yes"/>
      <point x="350" y="482"/>
      <point x="311" y="558"/>
      <point x="234" y="558" type="curve" smooth="yes"/>
      <point x="130" y="558"/>
      <point x="65" y="412"/>
      <point x="65" y="272" type="curve" smooth="yes"/>
      <point x="65" y="133"/>
      <point x="129" y="-15"/>
    </contour>
    <contour>
      <point x="606" y="-15" type="curve" smooth="yes"/>
      <point x="732" y="-15"/>
      <point x="786" y="118"/>
      <point x="786" y="253" type="curve" smooth="yes"/>
      <point x="786" y="396"/>
      <point x="725" y="558"/>
      <point x="614" y="558" type="curve" smooth="yes"/>
      <point x="541" y="558"/>
      <point x="504" y="489"/>
      <point x="504" y="410" type="curve" smooth="yes"/>
      <point x="504" y="316"/>
      <point x="558" y="263"/>
      <point x="618" y="263" type="curve" smooth="yes"/>
      <point x="671" y="263"/>
      <point x="720" y="303"/>
      <point x="726" y="388" type="curve"/>
      <point x="752" y="388" type="line"/>
      <point x="708" y="451" type="line"/>
      <point x="703" y="366"/>
      <point x="664" y="337"/>
      <point x="614" y="337" type="curve" smooth="yes"/>
      <point x="568" y="337"/>
      <point x="540" y="363"/>
      <point x="540" y="400" type="curve" smooth="yes"/>
      <point x="540" y="436"/>
      <point x="565" y="471"/>
      <point x="619" y="471" type="curve" smooth="yes"/>
      <point x="658" y="471"/>
      <point x="690" y="450"/>
      <point x="709" y="421" type="curve"/>
      <point x="727" y="394" type="line"/>
      <point x="744" y="347"/>
      <point x="747" y="300"/>
      <point x="747" y="275" type="curve" smooth="yes"/>
      <point x="747" y="170"/>
      <point x="696" y="96"/>
      <point x="597" y="96" type="curve" smooth="yes"/>
      <point x="506" y="96"/>
      <point x="451" y="160"/>
      <point x="440" y="244" type="curve"/>
      <point x="430" y="157" type="line"/>
      <point x="450" y="36"/>
      <point x="527" y="-15"/>
    </contour>
  </outline>
</glyph>
<glyph name="kVocalicRr" format="2">
  <advance width="1674"/>
  <unicode hex="0CE0"/>
  <outline>
    <contour>
      <point x="1019" y="-15" type="curve" smooth="yes"/>
      <point x="1082" y="-15"/>
      <point x="1143" y="28"/>
      <point x="1143" y="121" type="curve" smooth="yes"/>
      <point x="1143" y="175"/>
      <point x="1122" y="230"/>
      <point x="1122" y="281" type="curve" smooth="yes"/>
      <point x="1122" y="391"/>
      <point x="1219" y="457"/>
      <point x="1336" y="457" type="curve" smooth="yes"/>
      <point x="1483" y="457"/>
      <point x="1568" y="350"/>
      <point x="1568" y="238" type="curve" smooth="yes"/>
      <point x="1568" y="141"/>
      <point x="1505" y="61"/>
      <point x="1390" y="61" type="curve" smooth="yes"/>
      <point x="1297" y="61"/>
      <point x="1253" y="115"/>
      <point x="1253" y="180" type="curve" smooth="yes"/>
      <point x="1253" y="235"/>
      <point x="1285" y="286"/>
      <point x="1342" y="286" type="curve" smooth="yes"/>
      <point x="1347" y="286"/>
      <point x="1350" y="286"/>
      <point x="1357" y="285" type="curve"/>
      <point x="1337" y="269"/>
      <point x="1328" y="248"/>
      <point x="1328" y="227" type="curve" smooth="yes"/>
      <point x="1328" y="194"/>
      <point x="1351" y="163"/>
      <point x="1391" y="163" type="curve" smooth="yes"/>
      <point x="1425" y="163"/>
      <point x="1461" y="187"/>
      <point x="1461" y="239" type="curve" smooth="yes"/>
      <point x="1461" y="290"/>
      <point x="1426" y="328"/>
      <point x="1364" y="328" type="curve" smooth="yes"/>
      <point x="1286" y="328"/>
      <point x="1220" y="268"/>
      <point x="1220" y="168" type="curve" smooth="yes"/>
      <point x="1220" y="63"/>
      <point x="1292" y="-15"/>
      <point x="1395" y="-15" type="curve" smooth="yes"/>
      <point x="1529" y="-15"/>
      <point x="1607" y="116"/>
      <point x="1607" y="249" type="curve" smooth="yes"/>
      <point x="1607" y="412"/>
      <point x="1491" y="548"/>
      <point x="1319" y="548" type="curve" smooth="yes"/>
      <point x="1179" y="548"/>
      <point x="1076" y="460"/>
      <point x="1076" y="346" type="curve" smooth="yes"/>
      <point x="1076" y="292"/>
      <point x="1100" y="230"/>
      <point x="1100" y="185" type="curve" smooth="yes"/>
      <point x="1100" y="133"/>
      <point x="1066" y="92"/>
      <point x="1007" y="92" type="curve" smooth="yes"/>
      <point x="930" y="92"/>
      <point x="870" y="161"/>
      <point x="843" y="235" type="curve"/>
      <point x="827" y="136" type="line"/>
      <point x="855" y="136" type="line"/>
      <point x="896" y="17"/>
      <point x="966" y="-15"/>
    </contour>
    <contour>
      <point x="246" y="-15" type="curve" smooth="yes"/>
      <point x="399" y="-15"/>
      <point x="502" y="96"/>
      <point x="502" y="260" type="curve" smooth="yes"/>
      <point x="502" y="461"/>
      <point x="360" y="558"/>
      <point x="231" y="558" type="curve" smooth="yes"/>
      <point x="139" y="558"/>
      <point x="55" y="509"/>
      <point x="55" y="426" type="curve" smooth="yes"/>
      <point x="55" y="367"/>
      <point x="98" y="322"/>
      <point x="159" y="322" type="curve" smooth="yes"/>
      <point x="222" y="322"/>
      <point x="260" y="369"/>
      <point x="260" y="419" type="curve" smooth="yes"/>
      <point x="260" y="461"/>
      <point x="233" y="501"/>
      <point x="183" y="513" type="curve"/>
      <point x="183" y="534" type="line"/>
      <point x="119" y="501" type="line"/>
      <point x="182" y="493"/>
      <point x="207" y="456"/>
      <point x="207" y="423" type="curve" smooth="yes"/>
      <point x="207" y="385"/>
      <point x="178" y="365"/>
      <point x="149" y="365" type="curve" smooth="yes"/>
      <point x="121" y="365"/>
      <point x="93" y="384"/>
      <point x="93" y="423" type="curve" smooth="yes"/>
      <point x="93" y="482"/>
      <point x="159" y="519"/>
      <point x="221" y="519" type="curve" smooth="yes"/>
      <point x="305" y="519"/>
      <point x="397" y="454"/>
      <point x="397" y="268" type="curve" smooth="yes"/>
      <point x="397" y="88"/>
      <point x="310" y="26"/>
      <point x="230" y="26" type="curve" smooth="yes"/>
      <point x="173" y="26"/>
      <point x="103" y="63"/>
      <point x="103" y="122" type="curve" smooth="yes"/>
      <point x="103" y="160"/>
      <point x="135" y="179"/>
      <point x="166" y="179" type="curve" smooth="yes"/>
      <point x="204" y="179"/>
      <point x="224" y="150"/>
      <point x="224" y="121" type="curve" smooth="yes"/>
      <point x="224" y="83"/>
      <point x="189" y="42"/>
      <point x="122" y="45" type="curve"/>
      <point x="197" y="6" type="line"/>
      <point x="205" y="31" type="line"/>
      <point x="257" y="47"/>
      <point x="277" y="90"/>
      <point x="277" y="125" type="curve" smooth="yes"/>
      <point x="277" y="174"/>
      <point x="237" y="226"/>
      <point x="171" y="226" type="curve" smooth="yes"/>
      <point x="119" y="226"/>
      <point x="63" y="193"/>
      <point x="63" y="124" type="curve" smooth="yes"/>
      <point x="63" y="38"/>
      <point x="149" y="-15"/>
    </contour>
    <contour>
      <point x="698" y="-15" type="curve" smooth="yes"/>
      <point x="810" y="-15"/>
      <point x="853" y="85"/>
      <point x="853" y="186" type="curve" smooth="yes"/>
      <point x="853" y="327"/>
      <point x="781" y="417"/>
      <point x="727" y="462" type="curve"/>
      <point x="727" y="483" type="line"/>
      <point x="599" y="460" type="line"/>
      <point x="723" y="460"/>
      <point x="803" y="348"/>
      <point x="803" y="232" type="curve" smooth="yes"/>
      <point x="803" y="157"/>
      <point x="764" y="96"/>
      <point x="680" y="96" type="curve" smooth="yes"/>
      <point x="600" y="96"/>
      <point x="534" y="147"/>
      <point x="496" y="260" type="curve"/>
      <point x="473" y="179" type="line"/>
      <point x="498" y="179" type="line"/>
      <point x="527" y="62"/>
      <point x="614" y="-15"/>
    </contour>
    <contour>
      <point x="599" y="460" type="line"/>
      <point x="675" y="460" type="line" smooth="yes"/>
      <point x="849" y="460"/>
      <point x="867" y="550"/>
      <point x="867" y="602" type="curve" smooth="yes"/>
      <point x="867" y="665"/>
      <point x="837" y="713"/>
      <point x="790" y="747" type="curve"/>
      <point x="769" y="727" type="line"/>
      <point x="799" y="702"/>
      <point x="818" y="666"/>
      <point x="818" y="631" type="curve" smooth="yes"/>
      <point x="818" y="587"/>
      <point x="789" y="548"/>
      <point x="693" y="548" type="curve" smooth="yes"/>
      <point x="521" y="548" type="line"/>
      <point x="526" y="460" type="line"/>
    </contour>
  </outline>
</glyph>
<glyph name="kVocalicLl" format="2">
  <advance width="1377"/>
  <unicode hex="0CE1"/>
  <outline>
    <contour>
      <point x="626" y="-15" type="curve" smooth="yes"/>
      <point x="672" y="-15"/>
      <point x="828" y="1"/>
      <point x="828" y="279" type="curve" smooth="yes"/>
      <point x="828" y="325"/>
      <point x="823" y="387"/>
      <point x="805" y="460" type="curve"/>
      <point x="991" y="460" type="line" smooth="yes"/>
      <point x="1187" y="460"/>
      <point x="1271" y="351"/>
      <point x="1271" y="242" type="curve" smooth="yes"/>
      <point x="1271" y="146"/>
      <point x="1206" y="61"/>
      <point x="1078" y="61" type="curve" smooth="yes"/>
      <point x="963" y="61"/>
      <point x="934" y="130"/>
      <point x="934" y="182" type="curve" smooth="yes"/>
      <point x="934" y="242"/>
      <point x="972" y="289"/>
      <point x="1036" y="289" type="curve" smooth="yes"/>
      <point x="1041" y="289"/>
      <point x="1044" y="289"/>
      <point x="1051" y="288" type="curve"/>
      <point x="1031" y="272"/>
      <point x="1022" y="251"/>
      <point x="1022" y="230" type="curve" smooth="yes"/>
      <point x="1022" y="197"/>
      <point x="1045" y="166"/>
      <point x="1085" y="166" type="curve" smooth="yes"/>
      <point x="1120" y="166"/>
      <point x="1155" y="191"/>
      <point x="1155" y="241" type="curve" smooth="yes"/>
      <point x="1155" y="293"/>
      <point x="1118" y="331"/>
      <point x="1053" y="331" type="curve" smooth="yes"/>
      <point x="974" y="331"/>
      <point x="901" y="274"/>
      <point x="901" y="168" type="curve" smooth="yes"/>
      <point x="901" y="62"/>
      <point x="974" y="-15"/>
      <point x="1082" y="-15" type="curve" smooth="yes"/>
      <point x="1224" y="-15"/>
      <point x="1310" y="118"/>
      <point x="1310" y="256" type="curve" smooth="yes"/>
      <point x="1310" y="400"/>
      <point x="1216" y="548"/>
      <point x="986" y="548" type="curve" smooth="yes"/>
      <point x="744" y="548" type="line"/>
      <point x="780" y="445"/>
      <point x="787" y="360"/>
      <point x="787" y="307" type="curve" smooth="yes"/>
      <point x="787" y="94"/>
      <point x="671" y="80"/>
      <point x="623" y="80" type="curve" smooth="yes"/>
      <point x="547" y="80"/>
      <point x="534" y="115"/>
      <point x="534" y="140" type="curve" smooth="yes"/>
      <point x="534" y="228"/>
      <point x="688" y="255"/>
      <point x="688" y="388" type="curve" smooth="yes"/>
      <point x="688" y="456"/>
      <point x="647" y="558"/>
      <point x="530" y="558" type="curve" smooth="yes"/>
      <point x="441" y="558"/>
      <point x="389" y="498"/>
      <point x="366" y="407" type="curve"/>
      <point x="346" y="407" type="line"/>
      <point x="356" y="299" type="line"/>
      <point x="372" y="299" type="line"/>
      <point x="385" y="387"/>
      <point x="435" y="460"/>
      <point x="533" y="460" type="curve" smooth="yes"/>
      <point x="613" y="460"/>
      <point x="642" y="411"/>
      <point x="642" y="366" type="curve" smooth="yes"/>
      <point x="642" y="259"/>
      <point x="481" y="241"/>
      <point x="481" y="120" type="curve" smooth="yes"/>
      <point x="481" y="50"/>
      <point x="534" y="-15"/>
    </contour>
    <contour>
      <point x="123" y="235" type="line"/>
      <point x="103" y="265"/>
      <point x="92" y="302"/>
      <point x="92" y="335" type="curve" smooth="yes"/>
      <point x="92" y="411"/>
      <point x="148" y="460"/>
      <point x="215" y="460" type="curve" smooth="yes"/>
      <point x="290" y="460"/>
      <point x="337" y="401"/>
      <point x="356" y="299" type="curve"/>
      <point x="367" y="387" type="line"/>
      <point x="341" y="499"/>
      <point x="282" y="558"/>
      <point x="199" y="558" type="curve" smooth="yes"/>
      <point x="100" y="558"/>
      <point x="43" y="473"/>
      <point x="43" y="377" type="curve" smooth="yes"/>
      <point x="43" y="322"/>
      <point x="62" y="265"/>
      <point x="94" y="218" type="curve"/>
    </contour>
  </outline>
</glyph>
<glyph name="kSignVocalicL" format="2">
  <unicode hex="0CE2"/>
  <outline>
    <contour>
      <point x="120" y="-444" type="curve" smooth="yes"/>
      <point x="162" y="-444"/>
      <point x="220" y="-417"/>
      <point x="229" y="-313" type="curve"/>
      <point x="203" y="-309" type="line"/>
      <point x="191" y="-361"/>
      <point x="154" y="-373"/>
      <point x="125" y="-373" type="curve" smooth="yes"/>
      <point x="86" y="-373"/>
      <point x="78" y="-352"/>
      <point x="78" y="-337" type="curve" smooth="yes"/>
      <point x="78" y="-286"/>
      <point x="177" y="-259"/>
      <point x="177" y="-174" type="curve" smooth="yes"/>
      <point x="177" y="-124"/>
      <point x="142" y="-55"/>
      <point x="57" y="-55" type="curve" smooth="yes"/>
      <point x="-16" y="-55"/>
      <point x="-55" y="-105"/>
      <point x="-72" y="-183" type="curve"/>
      <point x="-59" y="-256" type="line"/>
      <point x="-50" y="-196"/>
      <point x="-19" y="-142"/>
      <point x="52" y="-142" type="curve" smooth="yes"/>
      <point x="102" y="-142"/>
      <point x="125" y="-170"/>
      <point x="125" y="-201" type="curve" smooth="yes"/>
      <point x="125" y="-262"/>
      <point x="29" y="-280"/>
      <point x="29" y="-357" type="curve" smooth="yes"/>
      <point x="29" y="-406"/>
      <point x="71" y="-444"/>
    </contour>
    <contour>
      <point x="-246" y="-288" type="line"/>
      <point x="-257" y="-271"/>
      <point x="-263" y="-250"/>
      <point x="-263" y="-230" type="curve" smooth="yes"/>
      <point x="-263" y="-185"/>
      <point x="-234" y="-142"/>
      <point x="-178" y="-142" type="curve" smooth="yes"/>
      <point x="-127" y="-142"/>
      <point x="-93" y="-178"/>
      <point x="-78" y="-256" type="curve"/>
      <point x="-59" y="-256" type="line"/>
      <point x="-51" y="-164" type="line"/>
      <point x="-70" y="-164" type="line"/>
      <point x="-91" y="-94"/>
      <point x="-131" y="-55"/>
      <point x="-189" y="-55" type="curve" smooth="yes"/>
      <point x="-267" y="-55"/>
      <point x="-310" y="-122"/>
      <point x="-310" y="-195" type="curve" smooth="yes"/>
      <point x="-310" y="-231"/>
      <point x="-297" y="-273"/>
      <point x="-276" y="-304" type="curve"/>
    </contour>
  </outline>
</glyph>
<glyph name="kSignVocalicLl" format="2">
  <unicode hex="0CE3"/>
  <outline>
    <contour>
      <point x="132" y="-444" type="curve" smooth="yes"/>
      <point x="165" y="-444"/>
      <point x="279" y="-433"/>
      <point x="279" y="-245" type="curve" smooth="yes"/>
      <point x="279" y="-215"/>
      <point x="276" y="-176"/>
      <point x="265" y="-130" type="curve"/>
      <point x="391" y="-130" type="line" smooth="yes"/>
      <point x="523" y="-130"/>
      <point x="577" y="-198"/>
      <point x="577" y="-269" type="curve" smooth="yes"/>
      <point x="577" y="-331"/>
      <point x="536" y="-388"/>
      <point x="450" y="-388" type="curve" smooth="yes"/>
      <point x="374" y="-388"/>
      <point x="356" y="-342"/>
      <point x="356" y="-308" type="curve" smooth="yes"/>
      <point x="356" y="-268"/>
      <point x="381" y="-236"/>
      <point x="421" y="-236" type="curve"/>
      <point x="423" y="-236"/>
      <point x="427" y="-236"/>
      <point x="432" y="-237" type="curve"/>
      <point x="418" y="-247"/>
      <point x="411" y="-262"/>
      <point x="411" y="-276" type="curve" smooth="yes"/>
      <point x="411" y="-298"/>
      <point x="427" y="-321"/>
      <point x="455" y="-321" type="curve" smooth="yes"/>
      <point x="480" y="-321"/>
      <point x="505" y="-302"/>
      <point x="505" y="-267" type="curve" smooth="yes"/>
      <point x="505" y="-232"/>
      <point x="479" y="-206"/>
      <point x="433" y="-206" type="curve" smooth="yes"/>
      <point x="377" y="-206"/>
      <point x="327" y="-245"/>
      <point x="327" y="-316" type="curve" smooth="yes"/>
      <point x="327" y="-390"/>
      <point x="380" y="-444"/>
      <point x="454" y="-444" type="curve" smooth="yes"/>
      <point x="549" y="-444"/>
      <point x="607" y="-355"/>
      <point x="607" y="-260" type="curve" smooth="yes"/>
      <point x="607" y="-162"/>
      <point x="545" y="-62"/>
      <point x="388" y="-62" type="curve" smooth="yes"/>
      <point x="216" y="-62" type="line"/>
      <point x="240" y="-132"/>
      <point x="245" y="-189"/>
      <point x="245" y="-224" type="curve" smooth="yes"/>
      <point x="245" y="-364"/>
      <point x="166" y="-374"/>
      <point x="135" y="-374" type="curve" smooth="yes"/>
      <point x="89" y="-374"/>
      <point x="78" y="-352"/>
      <point x="78" y="-336" type="curve" smooth="yes"/>
      <point x="78" y="-287"/>
      <point x="177" y="-258"/>
      <point x="177" y="-174" type="curve" smooth="yes"/>
      <point x="177" y="-124"/>
      <point x="142" y="-55"/>
      <point x="57" y="-55" type="curve" smooth="yes"/>
      <point x="-16" y="-55"/>
      <point x="-55" y="-105"/>
      <point x="-72" y="-183" type="curve"/>
      <point x="-59" y="-256" type="line"/>
      <point x="-50" y="-196"/>
      <point x="-19" y="-142"/>
      <point x="51" y="-142" type="curve" smooth="yes"/>
      <point x="102" y="-142"/>
      <point x="125" y="-170"/>
      <point x="125" y="-200" type="curve" smooth="yes"/>
      <point x="125" y="-262"/>
      <point x="29" y="-281"/>
      <point x="29" y="-355" type="curve" smooth="yes"/>
      <point x="29" y="-403"/>
      <point x="69" y="-444"/>
    </contour>
    <contour>
      <point x="-246" y="-288" type="line"/>
      <point x="-257" y="-271"/>
      <point x="-263" y="-250"/>
      <point x="-263" y="-230" type="curve" smooth="yes"/>
      <point x="-263" y="-185"/>
      <point x="-234" y="-142"/>
      <point x="-178" y="-142" type="curve" smooth="yes"/>
      <point x="-127" y="-142"/>
      <point x="-93" y="-178"/>
      <point x="-78" y="-256" type="curve"/>
      <point x="-59" y="-256" type="line"/>
      <point x="-51" y="-164" type="line"/>
      <point x="-70" y="-164" type="line"/>
      <point x="-91" y="-94"/>
      <point x="-131" y="-55"/>
      <point x="-189" y="-55" type="curve" smooth="yes"/>
      <point x="-267" y="-55"/>
      <point x="-310" y="-122"/>
      <point x="-310" y="-195" type="curve" smooth="yes"/>
      <point x="-310" y="-231"/>
      <point x="-297" y="-273"/>
      <point x="-276" y="-304" type="curve"/>
    </contour>
  </outline>
</glyph>
<glyph name="kZero" format="2">
  <advance width="616"/>
  <unicode hex="0CE6"/>
  <outline>
    <contour>
      <point x="315" y="-15" type="curve" smooth="yes"/>
      <point x="471" y="-15"/>
      <point x="546" y="123"/>
      <point x="546" y="265" type="curve" smooth="yes"/>
      <point x="546" y="409"/>
      <point x="469" y="558"/>
      <point x="305" y="558" type="curve" smooth="yes"/>
      <point x="145" y="558"/>
      <point x="70" y="417"/>
      <point x="70" y="279" type="curve" smooth="yes"/>
      <point x="70" y="132"/>
      <point x="154" y="-15"/>
    </contour>
    <contour>
      <point x="307" y="95" type="curve" smooth="yes"/>
      <point x="188" y="95"/>
      <point x="109" y="168"/>
      <point x="109" y="274" type="curve" smooth="yes"/>
      <point x="109" y="387"/>
      <point x="199" y="459"/>
      <point x="310" y="459" type="curve" smooth="yes"/>
      <point x="423" y="459"/>
      <point x="507" y="385"/>
      <point x="507" y="275" type="curve" smooth="yes"/>
      <point x="507" y="165"/>
      <point x="423" y="95"/>
    </contour>
  </outline>
</glyph>
<glyph name="kOne" format="2">
  <advance width="630"/>
  <unicode hex="0CE7"/>
  <outline>
    <contour>
      <point x="221" y="-7" type="curve"/>
      <point x="234" y="-7"/>
      <point x="250" y="32"/>
      <point x="256" y="82" type="curve"/>
      <point x="172" y="110"/>
      <point x="109" y="178"/>
      <point x="109" y="271" type="curve" smooth="yes"/>
      <point x="109" y="385"/>
      <point x="205" y="459"/>
      <point x="315" y="459" type="curve" smooth="yes"/>
      <point x="429" y="459"/>
      <point x="521" y="379"/>
      <point x="521" y="268" type="curve" smooth="yes"/>
      <point x="521" y="176"/>
      <point x="458" y="110"/>
      <point x="374" y="82" type="curve"/>
      <point x="380" y="32"/>
      <point x="396" y="-7"/>
      <point x="409" y="-7" type="curve"/>
      <point x="411" y="-7"/>
      <point x="416" y="-6"/>
      <point x="424" y="-2" type="curve" smooth="yes"/>
      <point x="462" y="17"/>
      <point x="560" y="102"/>
      <point x="560" y="264" type="curve" smooth="yes"/>
      <point x="560" y="410"/>
      <point x="480" y="558"/>
      <point x="311" y="558" type="curve" smooth="yes"/>
      <point x="149" y="558"/>
      <point x="70" y="422"/>
      <point x="70" y="271" type="curve" smooth="yes"/>
      <point x="70" y="104"/>
      <point x="167" y="18"/>
      <point x="206" y="-2" type="curve" smooth="yes"/>
      <point x="214" y="-6"/>
      <point x="219" y="-7"/>
    </contour>
  </outline>
</glyph>
<glyph name="kTwo" format="2">
  <advance width="599"/>
  <unicode hex="0CE8"/>
  <outline>
    <contour>
      <point x="272" y="0" type="line" smooth="yes"/>
      <point x="455" y="0"/>
      <point x="534" y="120"/>
      <point x="534" y="283" type="curve" smooth="yes"/>
      <point x="534" y="447"/>
      <point x="454" y="558"/>
      <point x="333" y="558" type="curve" smooth="yes"/>
      <point x="218" y="558"/>
      <point x="167" y="458"/>
      <point x="167" y="372" type="curve" smooth="yes"/>
      <point x="167" y="289"/>
      <point x="215" y="213"/>
      <point x="297" y="213" type="curve" smooth="yes"/>
      <point x="358" y="213"/>
      <point x="400" y="254"/>
      <point x="400" y="312" type="curve" smooth="yes"/>
      <point x="400" y="349"/>
      <point x="383" y="381"/>
      <point x="346" y="409" type="curve"/>
      <point x="326" y="394" type="line"/>
      <point x="340" y="379"/>
      <point x="347" y="361"/>
      <point x="347" y="345" type="curve" smooth="yes"/>
      <point x="347" y="313"/>
      <point x="321" y="286"/>
      <point x="281" y="286" type="curve" smooth="yes"/>
      <point x="233" y="286"/>
      <point x="204" y="323"/>
      <point x="204" y="364" type="curve" smooth="yes"/>
      <point x="204" y="417"/>
      <point x="254" y="461"/>
      <point x="332" y="461" type="curve" smooth="yes"/>
      <point x="444" y="461"/>
      <point x="495" y="373"/>
      <point x="495" y="283" type="curve" smooth="yes"/>
      <point x="495" y="181"/>
      <point x="429" y="94"/>
      <point x="281" y="94" type="curve" smooth="yes"/>
      <point x="15" y="94" type="line"/>
      <point x="20" y="0" type="line"/>
    </contour>
  </outline>
</glyph>
